<mxfile host="app.diagrams.net" agent="Mozilla/5.0 (X11; Linux x86_64; rv:128.0) Gecko/20100101 Firefox/128.0" version="26.2.5">
  <diagram name="Page-1" id="miYOqahZDEgp6GLvhzzV">
    <mxGraphModel dx="2068" dy="1315" grid="1" gridSize="10" guides="1" tooltips="1" connect="1" arrows="1" fold="1" page="1" pageScale="1" pageWidth="850" pageHeight="1100" math="0" shadow="0">
      <root>
        <mxCell id="0" />
        <mxCell id="1" parent="0" />
        <mxCell id="WmRn3ag8AA0C3TBZO2lk-5" style="edgeStyle=orthogonalEdgeStyle;rounded=0;orthogonalLoop=1;jettySize=auto;html=1;" edge="1" parent="1" source="WmRn3ag8AA0C3TBZO2lk-1" target="WmRn3ag8AA0C3TBZO2lk-3">
          <mxGeometry relative="1" as="geometry" />
        </mxCell>
        <mxCell id="WmRn3ag8AA0C3TBZO2lk-1" value="" style="shape=image;verticalLabelPosition=bottom;labelBackgroundColor=default;verticalAlign=top;aspect=fixed;imageAspect=0;image=data:image/jpeg,/9j/4AAQSkZJRgABAgEBLAEsAAD/4QAC/9sAhAABAQEBAQEBAQEBAQEBAQEBAQEBAQEBAQEBAQEBAQEBAQEBAQEBAQEBAQEBAgICAgICAgICAgIDAwMDAwMDAwMDAQEBAQEBAQIBAQICAgECAgMDAwMDAwMDAwMDAwMDAwMDAwMDAwMDAwMDAwMDAwMDAwMDAwMDAwMDAwMDAwMDAwP/wgARCAZICXEDAREAAhEBAxEB/8QAMAABAQADAAMBAQEAAAAAAAAAAAsICQoFBgcEAgMBAQAAAAAAAAAAAAAAAAAAAAD/2gAMAwEAAhADEAAAAO/gAAAAAAAAAAAAAAAAAAAAAAAAAAAAAAAAAAAAAAAAAAAAAAAAAAAAAAAAAAAAAAAAAAAAAAAAAAAAAAAAAAAAAAAAAAAAAAAAAAAAAAAAAAAAAAAAAAAAAAAAAAAAAAAAAAAAAAAAAAAAAAAAAAAAAAAAAAAAAAAAAAAAAAAAAAAAAAAAAAAAAAAAAAAAAAAAAAAAAAAAAAAAAAAAAAAAAAAAAAAAAAAAAAAAAAAAAAAAAAAAAAAAAAAAAAAAAAAAAAAAAAAAAAAAAAAAAAAAAAAAAAAAAAAAAAAAAAAAAAAAAAAAAAAAAAAAAAAAAAAAAAAAAAAAAAAAAAAAAAAAAAAAAAAAAAAAAAAAAAAAAAAAAAAAAAAAAAAAAAAAAAAAAAAAAAAAAAAAAAAAAAAAAAAAAAAAAAAAAAAAAAAAAAAAAAAAAAAAAAAAAAAAAAAAAAAAAAAAAAAAAAAAAAAAAAAAAAAAAAAAAAAAAAAAAAAAAAAAAAAAAAAAAAAAAAAAAAAAAAAAAAAAAAAAAAAAAAAAAAAAAAAAAAAAAAAAAAAAAAAAAAAAAAAAAAAAAAAAAAAAAAAAAAAAAAAAAAAAAAAAAAAAAAAAAAAAAAAAAAAAAAAAAAAAAAAAAAAAAAAAAAAAAAAAAAAAAAAAAAAAAAAAAAAAAAAAAAAAAAAAAAAAAAAAAAAAAAAAAAAAAAAAAAAAAAAAAAAAAAAAAAAAAAAAAAAAAAAAAAAAAAAAAAAAAAAAAAAAAAAAAAAAAAAAAAAAAAAAAAAAAAAAAAAAAAAAAAAAAAAAAAAAAAAAAAAAAAAAAAAAAAAAAAAAAAAAAAAAAAAAAAAAAAAAAAAAAAAAAAAAAAAAAAAAAAAAAAAAAAAAAAAAAAAAAAAAAAAAAAAAAAAAAAAAAAAAAAAAAAAAAAAAAAAAAAAAAAAAAAAAAAAAAAAAAAAAAAAAAAAAAAAAAAAAAAAAAAAAAAAAAAAAAAAAAAAAAAAAAAAAAAAAAAAAAAAAAAAAAAAAAAAAAAAAAAAAAAAAAAAAAAAAAAAAAAAAAAAAAAAAAAAAAAAAAAAAAAAAAAAAAAAAAAAAAAAAAAAAAAAAAAAAAAAAAAAAAAAAAAAAAAAAAAAAAAAAAAAAAAAAAAAAAAAAAAAAAAAAAAAAAAAAAAAAAAAAAAAAAAAAAAAAAAAAAAAAAAAAAAAAAAAAAAAAAAAAAAAAAAAAAAAAAAAAAAAAAAAAAAAAAAAAAAAAAAAAAAAAAAAAAAAAAAAAAAAAAAAAAAAAAAAAAAAAAAAAAAAAAAAAAAAAAAAAAAAAAAAAAAAAAAAAAAAAAAAAAAAAAAAAAAAAAAAAAAAAAAAAAAAAAAAAAAAAAAAAAAAAAAAAAAAAAAAAAAAAAAAAAAAAAAAAAAAAAAAAAAAAAAAAAAAAAAAAAAAAAAAAAAAAAAAAAAAAAAAAAAAAAAAAAAAAAAAAAAAAAAAAAAAAAAAAAAAAAAAAAAAAAAAAAAAAAAAAAAAAAAAAAAAAAAAAAAAAAAAAAAAAAAAAAAAAAAAAAAAAAAAAAAAAAAAAAAAAAAAAAAAAAAAAAAAAAAAAAAAAAAAAAAAAAAAAAAAAAAAAAAAAAAAAAAAAAAAAAAAAAAAAAAAAAAAAAAAAAAAAAAAAAAAAAAAAAAAAAAAAAAAAAAAAAAAAAAAAAAAAAAAAAAAAAAAAAAAAAAAAAAAAAAAAAAAAAAAAAAAAAAAAAAAAAAAAAAAAAAAAAAAAAAAAAAAAAAAAAAAAAAAAAAAAAAAAAAAAAAAAAAAAAAAAAAAAAAAAAAAAAAAAAAAAAAAAAAAAAAAAAAAAAAAAAAAAAAAAAAAAAAAAAAAAAAAAAAAAAAAAAAAAAAAAAAAAAAAAAAAAAAAAAAAAAAAAAAAAAAAAAAAAAAAAAAAAAAAAAAAAAAAAAAAAAAAAAAAAAAAAAAAAAAAAAAAAAAAAAAAAAAAAAAAAAAAAAAAAAAAAAAAAAAAAAAAAAAAAAAAAAAAAAAAAAAAAAAAAAAAAAAAAAAAAAAAAAAAAAAAAAAAAAAAAAAAAAAAAAAAAAAAAAAAAAAAAAAAAAAAAAAAAAAAAAAAAAAAAAAAAAAAAAAAAAAAAAAAAAAAAAAAAAAAAAAAAAAAAAAAAAAAAAAAAAAAAAAAAAAAAAAAAAAAAAAAAAAAAAAAAAAAAAAAAAAAAAAAAAAAAAAAAAAAAAAAAAAAAAAAAAAAAAAAAAAAAAAAAAAAAAAAAAAAAAAAAAAAAAAAAAAAAAAAAAAAAAAAAAAAAAAAAAAAAAAAAAAAAAAAAAAAAAAAAAAAAAAAAAAAAAAAAAAAAAAAAAAAAAAAAAAAAAAAAAAAAAAAAAAAAAAAAAAAAAAAAAAAAAAAAAAAAAAAAAAAAAAAAAAAAAAAAAAAAAAAAAAAAAAAAAAAAAAAAAAAAAAAAAAAAAAAAAAAAAAAAAAAAAAAAAAAAAAAAAAAAAAAAAAAAAAAAAAAAAAAAAAAAAAAAAAAAAAAAAAAAAAAAAAAAAAAAAAAAAAAAAAAAAAAAAAAAAAAAAAAAAAAAAAAAAAAAAAAAAAAAAAAAAAAAAAAAAAAAAAAAAAAAAAAAAAAAAAAAAAAAAAAAAAAAAAAAAAAAAAAAAAAAAAAAAAAAAAAAAAAAAAAAAAAAAAAAAAAAAAAAAAAAAAAAAAAAAAAAAAAAAAAAAAAAAAAAAAAAAAAAAAAAAAAAAAAAAAAAAAAAAAAAAAAAAAAAAAAAAAAAAAAAAAAAAAAAAAAAAAAAAAAAAAAAAAAAAAAAAAAAAAAAAAAAAAAAAAAAAAAAAAAAAAAAAAAAAAAAAAAAAAAAAAAAAAAAAAAAAAAAAAAAAAAAAAAAAAAAAAAAAAAAAAAAAAAAAAAAAAAAAAAAAAAAAAAAAAAAAAAAAAAAAAAAAAAAAAAAAAAAAAAAAAAAAAAAAAAAAAAAAAAAAAAAAAAAAAAAAAAAAAAAAAAAAAAAAAAAAAAAAAAAAAAAAAAAAAAAAAAAAAAAAAAAAAAAAAAAAAAAAAAAAAAAAAAAAAAAAAAAAAAAAAAAAAAAAAAAAAAAAAAAAAAAAAAAAAAAAAAAAAAAAAAAAAAAAAAAAAAAAAAAAAAAAAAAAAAAAAAAAAAAAAAAAAAAAAAAAAAAAAAAAAAAAAAAAAAAAAAAAAAAAAAAAAAAAAAAAAAAAAAAAAAAAAAAAAAAAAAAAAAAAAAAAAAAAAAAAAAAAAAAAAAAAAAAAAAAAAAAAAAAAAAAAAAAAAAAAAAAAAAAAAAAAAAAAAAAAAAAAAAAAAAAAAAAAAAAAAAAAAAAAAAAAAAAAAAAAAAAAAAAAAAAAAAAAAAAAAAAAAAAAAAAAAAAAAAAAAAAAAAAAAAAAAAAAAAAAAAAAAAAAAAAAAAAAAAAAAAAAAAAAAAAAAAAAAAAAAAAAAAAAAAAAAAAAAAAAAAAAAAAAAAAAAAAAAAAAAAAAAAAAAAAAAAAAAAAAAAAAAAAAAAAAAAAAAAAAAAAAAAAAAAAAAAAAAAAAAAAAAAAAAAAAAAAAAAAAAAAAAAAAAAAAAAAAAAAAAAAAAAAAAAAAAAAAAAAAAAAAAAAAAAAAAAAAAAAAAAAAAAAAAAAAAAAAAAAAAAAAAAAAAAAAAAAAAAAAAAAAAAAAAAAAAAAAAAAAAAAAAAAAAAAAAAAAAAAAAAAAAAAAAAAAAAAAAAAAAAAAAAAAAAAAAAAAAAAAAAAAAAAAAAAAAAAAAAAAAAAAAAAAAAAAAAAAAAAAAAAAAAAAAAAAAAAAAAAAAAAAAAAAAAAAAAAAAAAAAAAAAAAAAAAAAAAAAAAAAAAAAAAAAAAAAAAAAAAAAAAAAAAAAAAAAAAAAAAAAAAAAAAAAAAAAAAAAAAAAAAAAAAAAAAAAAAAAAAAAAAAAAAAAAAAAAAAAAAAAAAAAAAAAAAAAAAAAAAAAAAAAAAAAAAAAAAAAAAAAAAAAAAAAAAAAAAAAAAAAAAAAAAAAAAAAAAAAAAAAAAAAAAAAAAAAAAAAAAAAAAAAAAAAAAAAAAAAAAAAAAAAAAAAAAAAAAAAAAAAAAAAAAAAAAAAAAAAAAAAAAAAAAAAAAAAAAAAAAAAAAAAAAAAAAAAAAAAAAAAAAAAAAAAAAAAAAAAAAAAAAAAAAAAAAAAAAAAAAAAAAAAAAAAAAAAAAAAAAAAAAAAAAAAAAAAAAAAAAAAAAAAAAAAAAAAAAAAAAAAAAAAAAAAAAAAAAAAAAAAAAAAAAAAAAAAAAAAAAAAAAAAAAAAAAAAAAAAAAAAAAAAAAAAAAAAAAAAAAAAAAAAAAAAAAAAAAAAAAAAAAAAAAAAAAAAAAAAAAAAAAAAAAAAAAAAAAAAAAAAAAAAAAAAAAAAAAAAAAAAAAAAAAAAAAAAAAAAAAAAAAAAAAAAAAAAAAAAAAAAAAAAAAAAAAAAAAAAAAAAAAAAAAAAAAAAAAAAAAAAAAAAAAAAAAAAAAAAAAAAAAAAAAAAAAAAAAAAAAAAAAAAAAAAAAAAAAAAAAAAAAAAAAAAAAAAAAAAAAAAAAAAAAAAAAAAAAAAAAAAAAAAAAAAAAAAAAAAAAAAAAAAAAAAAAAAAAAAAAAAAAAAAAAAAAAAAAAAAAAAAAAAAAAAAAAAAAAAAAAAAAAAAAAAAAAAAAAAAAAAAAAAAAAAAAAAAAAAAAAAAAAAAAAAAAAAAAAAAAAAAAAAAAAAAAAAAAAAAAAAAAAAAAAAAAAAAAAAAAAAAAAAAAAAAAAAAAAAAAAAAAAAAAAAAAAAAAAAAAAAAAAAAAAAAAAAAAAAAAAAAAAAAAAAAAAAAAAAAAAAAAAAAAAAAAAAAAAAAAAAAAAAAAAAAAAAAAAAAAAAAAAAAAAAAAAAAAAAAAAAAAAAAAAAAAAAAAAAAAAAAAAAAAAAAAAAAAAAAAAAAAAAAAAAAAAAAAAAAAAAAAAAAAAAAAAAAAAAAAAAAAAAAAAAAAAAAAAAAAAAAAAAAAAAAAAAAAAAAAAAAAAAAAAAAAAAAAAAAAAAAAAAAAAAAAAAAAAAAAAAAAAAAAAAAAAAAAAAAAAAAAAAAAAAAAAAAAAAAAAAAAAAAAAAAAAAAAAAAAAAAAAAAAAAAAAAAAAAAAAAAAAAAAAAAAAAAAAAAAAAAAAAAAAAAAAAAAAAAAAAAAAAAAAAAAAAAAAAAAAAAAAAAAAAAAAAAAAAAAAAAAAAAAAAAAAAAAAAAAAAAAAAAAAAAAAAAAAAAAAAAAAAAAAAAAAAAAAAAAAAAAAAAAAAAAAAAAAAAAAAAAAAAAAAAAAAAAAAAAAAAAAAAAAAAAAAAAAAAAAAAAAAAAAAAAAAAAAAAAAAAAAAAAAAAAAAAAAAAAAAAAAAAAAAAAAAAAAAAAAAAAAAAAAAAAAAAAAAAAAAAAAAAAAAAAAAAAAAAAAAAAAAAAAAAAAAAAAAAAAAAAAAAAAAAAAAAAAAAAAAAAAAAAAAAAAAAAAAAAAAAAAAAAAAAAAAAAAAAAAAAAAAAAAAAAAAAAAAAAAAAAAAAAAAAAAAAAAAAAAAAAAAAAAAAAAAAAAAAAAAAAAAAAAAAAAAAAAAAAAAAAAAAAAAAAAAAAAAAAAAAAAAAAAAAAAAAAAAAAAAAAAAAAAAAAAAAAAAAAAAAAAAAAAAAAAAAAAAAAAAAAAAAAAAAAAAAAAAAAAAAAAAAAAAAAAAAAAAAAAAAAAAAAAAAAAAAAAAAAAAAAAAAAAAAAAAAAAAAAAAAAAAAAAAAAAAAAAAAAAAAAAAAAAAAAAAAAAAAAAAAAAAAAAAAAAAAAAAAAAAAAAAAAAAAAAAAAAAAAAAAAAAAAAAAAAAAAAAAAAAAAAAAAAAAAAAAAAAAAAAAAAAAAAAAAAAAAAAAAAAAAAAAAAAAAAAAAAAAAAAAAAAAAAAAAAAAAAAAAAAAAAAAAAAAAAAAAAAAAAAAAAAAAAAAAAAAAAAAAAAAAAAAAAAAAAAAAAAAAAAAAAAAAAAAAAAAAAAAAAAAAAAAAAAAAAAAAAAAAAAAAAAAAAAAAAAAAAAAAAAAAAAAAAAAAAAAAAAAAAAAAAAAAAAAAAAAAAAAAAAAAAAAAAAAAAAAAAAAAAAAAAAAAAAAAAAAAAAAAAAAAAAAAAAAAAAAAAAAAAAAAAAAAAAAAAAAAAAAAAAAAAAAAAAAAAAAAAAAAAAAAAAAAAAAAAAAAAAAAAAAAAAAAAAAAAAAAAAAAAAAAAAAAAAAAAAAAAAAAAAAAAAAAAAAAAAAAAAAAAAAAAAAAAAAAAAAAAAAAAAAAAAAAAAAAAAAAAAAAAAAAAAAAAAAAAAAAAAAAAAAAAAAAAAAAAAAAAAAAAAAAAAAAAAAAAAAAAAAAAAAAAAAAAAAAAAAAAAAAAAAAAAAAAAAAAAAAAAAAAAAAAAAAAAAAAAAAAAAAAAAAAAAAAAAAAAAAAAAAAAAAAAAAAAAAAAAAAAAAAAAAAAAAAAAAAAAAAAAAAAAAAAAAAAAAAAAAAAAAAAAAAAAAAAAAAAAAAAAAAAAAAAAAAAAAAAAAAAAAAAAAAAAAAAAAAAAAAAAAAAAAAAAAAAAAAAAAAAAAAAAAAAAAAAAAAAAAAAAAAAAAAAAAAAAAAAAAAAAAAAAAAAAAAAAAAAAAAAAAAAAAAAAAAAAAAAAAAAAAAAAAAAAAAAAAAAAAAAAAAAAAAAAAAAAAAAAAAAAAAAAAAAAAAAAAAAAAAAAAAAAAAAAAAAAAAAAAAAAAAAAAAAAAAAAAAAAAAAAAAAAAAAAAAAAAAAAAAAAAAAAAAAAAAAAAAAAAAAAAAAAAAAAAAAAAAAAAAAAAAAAAAAAAAAAAAAAAAAAAAAAAAAAAAAAAAAAAAAAAAAAAAAAAAAAAAAAAAAAAAAAAAAAAAAAAAAAAAAAAAAAAAAAAAAAAAAAAAAAAAAAAAAAAAAAAAAAAAAAAAAAAAAAAAAAAAAAAAAAAAAAAAAAAAAAAAAAAAAAAAAAAAAAAAAAAAAAAAAAAAAAAAAAAAAAAAAAAAAAAAAAAAAAAAAAAAAAAAAAAAAAAAAAAAAAAAAAAAAAAAAAAAAAAAAAAAAAAAAAAAAAAAAAAAAAAAAAAAAAAAAAAAAAAAAAAAAAAAAAAAAAAAAAAAAAAAAAAAAAAAAAAAAAAAAAAAAAAAAAAAAAAAAAAAAAAAAAAAAAAAAAAAAAAAAAAAAAAAAAAAAAAAAAAAAAAAAAAAAAAAAAAAAAAAAAAAAAAAAAAAAAAAAAAAAAAAAAAAAAAAAAAAAAAAAAAAAAAAAAAAAAAAAAAAAAAAAAAAAAAAAAAAAAAAAAAAAAAAAAAAAAAAAAAAAAAAAAAAAAAAAAAAAAAAAAAAAAAAAAAAAAAAAAAAAAAAAAAAAAAAAAAAAAAAAAAAAAAAAAAAAAAAAAAAAAAAAAAAAAAAAAAAAAAAAAAAAAAAAAAAAAAAAAAAAAAAAAAAAAAAAAAAAAAAAAAAAAAAAAAAAAAAAAAAAAAAAAAAAAAAAAAAAAAAAAAAAAAAAAAAAAAAAAAAAAAAAAAAAAAAAAAAAAAAAAAAAAAAAAAAAAAAAAAAAAAAAAAAAAAAAAAAAAAAAAAAAAAAAAAAAAAAAAAAAAAAAAAAAAAAAAAAAAAAAAAAAAAAAAAAAAAAAAAAAAAAAAAAAAAAAAAAAAAAAAAAAAAAAAAAAAAAAAAAAAAAAAAAAAAAAAAAAAAAAAAAAAAAAAAAAAAAAAAAAAAAAAAAAAAAAAAAAAAAAAAAAAAAAAAAAAAAAAAAAAAAAAAAAAAAAAAAAAAAAAAAAAAAAAAAAAAAAAAAAAAAAAAAAAAAAAAAAAAAAAAAAAAAAAAAAAAAAAAAAAAAAAAAAAAAAAAAAAAAAAAAAAAAAAAAAAAAAAAAAAAAAAAAAAAAAAAAAAAAAAAAAAAAAAAAAAAAAAAAAAAAAAAAAAAAAAAAAAAAAAAAAAAAAAAAAAAAAAAAAAAAAAAAAAAAAAAAAAAAAAAAAAAAAAAAAAAAAAAAAAAAAAAAAAAAAAAAAAAAAAAAAAAAAAAAAAAAAAAAAAAAAAAAAAAAAAAAAAAAAAAAAAAAAAAAAAAAAAAAAAAAAAAAAAAAAAAAAAAAAAAAAAAAAAAAAAAAAAAAAAAAAAAAAAAAAAAAAAAAAAAAAAAAAAAAAAAAAAAAAAAAAAAAAAAAAAAAAAAAAAAAAAAAAAAAAAAAAAAAAAAAAAAAAAAAAAAAAAAAAAAAAAAAAAAAAAAAAAAAAAAAAAAAAAAAAAAAAAAAAAAAAAAAAAAAAAAAAAAAAAAAAAAAAAAAAAAAAAAAAAAAAAAAAAAAAAAAAAAAAAAAAAAAAAAAAAAAAAAAAAAAAAAAAAAAAAAAAAAAAAAAAAAAAAAAAAAAAAAAAAAAAAAAAAAAAAAAAAAAAAAAAAAAAAAAAAAAAAAAAAAAAAAAAAAAAAAAAAAAAAAAAAAAAAAAAAAAAAAAAAAAAAAAAAAAAAAAAAAAAAAAAAAAAAAAAAAAAAAAAAAAAAAAAAAAAAAAAAAAAAAAAAAAAAAAAAAAAAAAAAAAAAAAAAAAAAAAAAAAAAAAAAAAAAAAAAAAAAAAAAAAAAAAAAAAAAAAAAAAAAAAAAAAAAAAAAAAAAAAAAAAAAAAAAAAAAAAAAAAAAAAAAAAAAAAAAAAAAAAAAAAAAAAAAAAAAAAAAAAAAAAAAAAAAAAAAAAAAAAAAAAAAAAAAAAAAAAAAAAAAAAAAAAAAAAAAAAAAAAAAAAAAAAAAAAAAAAAAAAAAAAAAAAAAAAAAAAAAAAAAAAAAAAAAAAAAAAAAAAAAAAAAAAAAAAAAAAAAAAAAAAAAAAAAAAAAAAAAAAAAAAAAAAAAAAAAAAAAAAAAAAAAAAAAAAAAAAAAAAAAAAAAAAAAAAAAAAAAAAAAAAAAAAAAAAAAAAAAAAAAAAAAAAAAAAAAAAAAAAAAAAAAAAAAAAAAAAAAAAAAAAAAAAAAAAAAAAAAAAAAAAAAAAAAAAAAAAAAAAAAAAAAAAAAAAAAAAAAAAAAAAAAAAAAAAAAAAAAAAAAAAAAAAAAAAAAAAAAAAAAAAAAAAAAAAAAAAAAAAAAAAAAAAAAAAAAAAAAAAAAAAAAAAAAAAAAAAAAAAAAAAAAAAAAAAAAAAAAAAAAAAAAAAAAAAAAAAAAAAAAAAAAAAAAAAAAAAAAAAAAAAAAAAAAAAAAAAAAAAAAAAAAAAAAAAAAAAAAAAAAAAAAAAAAAAAAAAAAAAAAAAAAAAAAAAAAAAAAAAAAAAAAAAAAAAAAAAAAAAAAAAAAAAAAAAAAAAAAAAAAAAAAAAAAAAAAAAAAAAAAAAAAAAAAAAAAAAAAAAAAAAAAAAAAAAAAAAAAAAAAAAAAAAAAAAAAAAAAAAAAAAAAAAAAAAAAAAAAAAAAAAAAAAAAAAAAA1dHOea5j1EAAAAAAAAAAAAAAAAAAAAAAAAAAAAAAAAAAAAAAAAAAAAHshsDOhY2/gAAAAAAAAAAAAAAAAAAAAAAAAAAAAAAAAAAAAAAAAAAAAAAAAAAAAAAAAAAAAAAAAAAAAAAAAAAAAAAAAAAAAAAAAAAAAAAAAAAAAAGrQm6nO8fyAAAAAAAAAAAAAAAAAAAAAAAAAAAAAAAAAAAAAAAAAAAAAAAbxykobnQAAAAAAAAAAAAAAAAAAAAAAAAAAAAAAAAAAAAAAAAAAAAAAAAAAAAAAAAAAAAAAAAAAAAAAAAAAAAAAAAAAAAAAAAAAAAAAAAAAAAcy5LAPlwAAAAAAAAAAAAAAAAAAAAAAAAAAAAAAAAAAAAAAAAAAAAAAAAPbinIdcwAAAAAAAAAAAAAAAAAAAAAAAAAAAAAAAAAAAAAAAAAAAAAAAAAAAAAAAAAAAAAAAAAAAAAAAAAAAAAAAAAAAAAAAAAAAAAAAAAAANLBHqPQwAAAAAAAAAAAAAAAAAAAAAAAAAAAAAAAAAAAAAAAAAAAAAAAAAeYK2R0XAAAAAAAAAAAAAAAAAAAAAAAAAAAAAAAAAAAAAAAAAAAAAAAAAAAAAAAAAAAAAAAAAAAAAAAAAAAAAAAAAAAAAAAAAAAAAAAAAAA8aRfzUyADZcdLR90AAAAAAAAAAAAAAAAAAAAAAAAAAAAAAAAAAAAAAAAAAAAB8lOcM1MgAzvLZJ9AAAAAAAAAAAAAAAAAAAAAAAAAAAAAAAAAAAAAAAAAAAAAAAAAAAAAAAAAAAAAAAAAAAAAAAAAAAAAAAAAAAAAAAAAAAAAAAAAAAOaUkwgA7liiMecAAAAAAAAAAAAAAAAAAAAAAAAAAAAAAAAAAAAAAAAAAAAAB+U4Nie0ACnqdgYAAAAAAAAAAAAAAAAAAAAAAAAAAAAAAAAAAAAAAAAAAAAAAAAAAAAAAAAAAAAAAAAAAAAAAAAAAAAAAAAAAAAAAAAAAAAAAAAABM5OM0A30Fgo/2AAAAAAAAAAAAAAAAAAAAAAAAAAAAAAAAAAAAAAAAAAAAAAAJTBy3AHUSVbwAAAAAAAAAAAAAAAAAAAAAAAAAAAAAAAAAAAAAAAAAAAAAAAAAAAAAAAAAAAAAAAAAAAAAAAAAAAAAAAAAAAAAAAAAAAAAAAAACPSaHQCnIdigAAAAAAAAAAAAAAAAAAAAAAAAAAAAAAAAAAAAAAAAAAAAAAAOZck3gGzgtgAAAAAAAAAAAAAAAAAAAAAAAAAAAAAAAAAAAAAAAAAAAAAAAAAAAAAAAAAAAAAAAAAAAAAAAAAAAAAAAAAAAAAAAAAAAAAAAAAAEYU1AgFbY6QgAAAAAAAAAAAAAAAAAAAAAAAAAAAAAAAAAAAAAAAAAAAAAAAaQCOMAZnlykAAAAAAAAAAAAAAAAAAAAAAAAAAAAAAAAAAAAAAAAAAAAAAAAAAAAAAAAAAAAAAAAAAAAAAAAAAAAAAAAAAAAAAAAAAAAAAAAAAjCmoEArdHR8AAAAAAAAAAAAAAAAAAAAAAAAAAAAAAAAAAAAAAAAAAAAAAADSARxgDL8ucgAAAAAAAAAAAAAAAAAAAAAAAAAAAAAAAAAAAAAAAAAAAAAAAAAAAAAAAAAAAAAAAAAAAAAAAAAAAAAAAAAAAAAAAAAAAAAAAAAEYU1AgFbo6PgAAAAAAAAAAAAAAAAAAAAAAAAAAAAAAAAAAAAAAAAAAAAAAAaQCOMAZflzkAAAAAAAAAAAAAAAAAAAAAAAAAAAAAAAAAAAAAAAAAAAAAAAAAAAAAAAAAAAAAAAAAAAAAAAAAAAAAAAAAAAAAAAAAAAAAAAAAAjCmoEArdHR8AAAAAAAAAAAAAAAAAAAAAAAAAAAAAAAAAAAAAAAAAAAAAAADSARxgDL8ucgAAAAAAAAAAAAAAAAAAAAAAAAAAAAAAAAAAAAAAAAAAAAAAAAAAAAAAAAAAAAAAAAAAAAAAAAAAAAAAAAAAAAAAAAAAAAAAAAAEYU1AgFbo6PgAAAAAAAAAAAAAAAAAAAAAAAAAAAAAAAAAAAAAAAAAAAAAAAaQCOMAZflzkAAAAAAAAAAAAAAAAAAAAAAAAAAAAAAAAAAAAAAAAAAAAAAAAAAAAAAAAAAAAAAAAAAAAAAAAAAAAAAAAAAAAAAAAAAAAAAAAAAjCmoEAo8m8AAAAAAAAAAAAAAAAAAAAAAAAAAAAAAAAAAAAAAAAAAAAAAAAGqImRgGX5c5AAAAAAAAAAAAAAAAAAAAAAAAAAAAAAAAAAAAAAAAAAAAAAAAAAAAAAAAAAAAAAAAAAAAAAAAAAAAAAAAAAAAAAAAAAAAAAAAAAIwpqBAAAAAAAAAAAAAAAAAAAAAAAAAAAAAAAAAAAAAAAAAAAAAAAAAAABl+XOQAAAAAAAAAAAAAAAAAAAAAAAAAAAAAAAAAAAAAAAAAAAAAAAAAAAAAAAAAAAAAAAAAAAAAAAAAAAAAAAAAAAAAAAAAAAAAAAAACMKagQAAAAAAAAAAAAAAAAAAAAAAAAAAAAAAAAAAAAAAAAAAAAAAAAAAAZflzkAAAAAAAAAAAAAAAAAAAAAAAAAAAAAAAAAAAAAAAAAAAAAAAAAAAAAAAAAAAAAAAAAAAAAAAAAAAAAAAAAAAAAAAAAAAAAAAAAAjCmoEAAAAAAAAAAAAAAAAAAAAAAAAAAAAAAAAAAAAAAAAAAAAAAAAAAAGX5c5AAAAAAAAAAAAAAAAAAAAAAAAAAAAAAAAAAAAAAAAAAAAAAAAAAAAAAAAAAAAAAAAAAAAAAAAAAAAAAAAAAAAAAAAAAAAAAAAAAIwpqBAMtz6QAAAAAAAAAAAAAAAAAAAAAAAAAAAAAAAAAAAAAAAAAAAAAAAD0cw4AMvy5yAAAAAAAAAAAAAAAAAAAAAAAAAAAAAAAAAAAAAAAAAAAAAAAAAAAAAAAAAAAAAAAAAAAAAAAAAAAAAAAAAAAAAAAAAAAAAAAAAARhTUCAVujo+AAAAAAAAAAAAAAAAAAAAAAAAAAAAAAAAAAAAAAAAAAAAAAABpAI4wBl+XOQAAAAAAAAAAAAAAAAAAAAAAAAAAAAAAAAAAAAAAAAAAAAAAAAAAAAAAAAAAAAAAAAAAAAAAAAAAAAAAAAAAAAAAAAAAAAAAAAACMKagQCt0dHwAAAAAAAAAAAAAAAAAAAAAAAAAAAAAAAAAAAAAAAAAAAAAAANIBHGAMvy5yAAAAAAAAAAAAAAAAAAAAAAAAAAAAAAAAAAAAAAAAAAAAAAAAAAAAAAAAAAAAAAAAAAAAAAAAAAAAAAAAAAAAAAAAAAAAAAAAAARhTUCAVujo+AAAAAAAAAAAAAAAAAAAAAAAAAAAAAAAAAAAAAAAAAAAAAAABpAI4wBl+XOQAAAAAAAAAAAAAAAAAAAAAAAAAAAAAAAAAAAAAAAAAAAAAAAAAAAAAAAAAAAAAAAAAAAAAAAAAAAAAAAAAAAAAAAAAAAAAAAAACMKagQCt0dHwAAAAAAAAAAAAAAAAAAAAAAAAAAAAAAAAAAAAAAAAAAAAAAANIBHGAMvy5yAAAAAAAAAAAAAAAAAAAAAAAAAAAAAAAAAAAAAAAAAAAAAAAAAAAAAAAAAAAAAAAAAAAAAAAAAAAAAAAAAAAAAAAAAAAAAAAAAARhTUCAVujo+AAAAAAAAAAAAAAAAAAAAAAAAAAAAAAAAAAAAAAAAAAAAAAABpAI4wBl+XOQAAAAAAAAAAAAAAAAAAAAAAAAAAAAAAAAAAAAAAAAAAAAAAAAAAAAAAAAAAAAAAAAAAAAAAAAAAAAAAAAAAAAAAAAAAAAAAAAACMKagQCt0dHwAAAAAAAAAAAAAAAAAAAAAAAAAAAAAAAAAAAAAAAAAAAAAAANIBHGAMvy5yAAAAAAAAAAAAAAAAAAAAAAAAAAAAAAAAAAAAAAAAAAAAAAAAAAAAAAAAAAAAAAAAAAAAAAAAAAAAAAAAAAAAAAAAAAAAAAAAAARhTUCAVujo+AAAAAAAB6iYiHmTLw8oAAAAAAAAAAAAAAAAAAAAAAAAAAAAAAAAAAAAADSARxgDL8ucgAAAAAAAAAAAAAAAAAAAAAAAAAAAAAAAAAAAAAAAAAAAAAAAAAAAAAAAAAAAAAAAAAAAAAAAAAAAAAAAAAAAAAAAAAAAAAAAAAEYU1AgFbo6PgAAAAAD105FTjzNJJ6qD6udBx2knSUAAAAAAAAAAAAAAAAAAAAAAAAAAAAAAAAAAAADSARxgDL8ucgAAAAAAAAAAAAAAAAAAAAAAAAAAAAAAAAAAAAAAAAAAAAAAAAAAAAAAAAAAAAAAAAAAAAAAAAAAAAAAAAAAAAAAAAAAAAAAAAAEYU1AgFbo6PgAAAAAaziVgahwAAAdNJUFMigAAAAAAAAAAAAAAAAAAAAAAAAAAAAAAAAAAAaQCOMAZflzkAAAAAAAAAAAAAAAAAAAAAAAAAAAAAAAAAAAAAAAAAAAAAAAAAAAAAAAAAAAAAAAAAAAAAAAAAAAAAAAAAAAAAAAAAAAAAAAAAAjCmoEArdHR8AAAAAatiPWYyAAAAA29Ff4yAAAAAAAAAAAAAAANSxMWNbR/IAAAAAAAAAAAB+g2slP82MgAAAAGkAjjAGX5c5AAAAAAAAAAAAAAAAAAAAAAAAAAAAAAAAAAAAAAAAAAAAAAAAAAAAAAAAAAAAAAAAAAAAAAAAAAAAAAAAAAAAAAAAAAAAAAAAAAIwpqBAK3R0fAAAAA9BIwpq/AAPNn5Dx4AB1PlVkAAAAAAAAAAAAAAj1mhsAAAAAAAAAAAAAA6fyryAAAAAaQCOMAZflzkAAAAAAAAAAAAAAAAAAAAAAAAAAAAAAAAAAAAAAAAAAAAAAAAAAAAAAAAAAAAAAAAAAAAAAAAAAAAAAAAAAAAAAAAAAAAAAAAAAjCmoEArdHR8AAAADh0JyQAN8JQ0N5J6qc3pOiNdQALBBvwAAAAAAAAAAAAABFtNTIAAAAAAAAAAAAABv4LAAAAAABpAI4wBl+XOQAAAAAAAAAAAAAAAAAAAAAAAAAAAAAAAAAAAAAAAAAAAAAAAAAAAAAAAAAAAAAAAAAAAAAAAAAAAAAAAAAAAAAAAAAAAAAAAAACMKagQCt0dHwAAAAIoZrDAOhUrcntQAMVSNUYDAHWqVIwAAAAAAAAAAAAAcr5LkPQgAAAAAAAAAAAAD62VdzomAAAAANIBHGAMvy5yAAAAAAAAAAAAAAAAAAAAAAAAAAAAAAAAAAAAAAAAAAAAAAAAAAAAAAAAAAAAAAAAAAAAAAAAAAAAAAAAAAAAAAAAAAAAAAAAAARhTUCAVujo+AAAAMMyGmAC1WbTQAAcipLxAMzS5WAAAAAAAAAAAAAAY7mJAAAAAAAAAAAAABmWfdAAAAAAaQCOMAZflzkAAAAAAAAAAAAAAAAAAAAAAAAAAAAAAAAAAAAAAAAAAAAAAAAAAAAAAAAAAAAAAAAAAAAAAAAAAAAAAAAAAAAAAAAAAAAAAAAAAjCmoEArdHR8AAAAaMiOoAZqlyMAAAw1IaIB/RfKPbAAAAAAAAAAAAAAAAAAAAAAAAAAAAAAAAAADSARxgDL8ucgAAAAAAAAAAAAAAAAAAAAAAAAAAAAAAAAAAAAAAAAAAAAAAAAAAAAAAAAAAAAAAAAAAAAAAAAAAAAAAAAAAAAAAAAAAAAAAAAAEYU1AgFbo6PgAAADRcR2ADN0uNgAAGHpDJABfKPbgAAAAAAAAAAAAAAAAAAAAAAAAAAAAAAAAADSARxgDL8ucgAAAAAAAAAAAAAAAAAAAAAAAAAAAAAAAAAAAAAAAAAAAAAAAAAAAAAAAAAAAAAAAAAAAAAAAAAAAAAAAAAAAAAAAAAAAAAAAAAEYU1AgFbo6PgAAADCUhwgH9FsE2agAA5MSWqAZhlzUAAAAAAAAAAAAAAAAAAAAAAAAAAAAAAAAAAGkAjjAGX5c5AAAAAAAAAAAAAAAAAAAAAAAAAAAAAAAAAAAAAAAAAAAAAAAAAAAAAAAAAAAAAAAAAAAAAAAAAAAAAAAAAAAAAAAAAAAAAAAAAAIwpqBAK3R0fAAAAAiXmtcA6Pys2eeABjmRqjXQAdXpU7AAAAAAAAAAAAAAAAAAAAAAAAAAAAAAAAAABpAI4wBl+XOQAAAAAAAAAAAAAAAAAAAAAAAAAAAAAAAAAAAAAAAAAAAAAAAAAAAAAAAAAAAAAAAAAAAAAAAAAAAAAAAAAAAAAAAAAAAAAAAAACMKagQCt0dHwAAAAOFInaAA6FSiYbkTwpzuk4U1hgArznQiAAAAAAAAAAAAAAAAAAAAAAAAAAAAAAAAAADSARxgDL8ucgAAAAAAAAAAAAAAAAAAAAAAAAAAAAAAAAAAAAAAAAAAAAAAAAAAAAAAAAAAAAAAAAAAAAAAAAAAAAAAAAAAAAAAAAAAAAAAAAAEYU1AgFbo6PgAAAAfMyLma3wAD6WeHPTAADp1KwYAAAAAAAAAAAAAAAAAAAAAAAAAAAAAAAAAABpAI4wBl+XOQAAAAAAAAAAAAAAAAAAAAAAAAAAAAAAAAAAAAAAAAAAAAAAAAAAAAAAAAAAAAAAAAAAAAAAAAAAAAAAAAAAAAAAAAAAAAAAAAACMKagQCt0dHwAAAABqQI/Jj4AAAADaoWDjJYAAAAAAAAAA8WcbhqIPwgAAAAAAAAAAAAAAAAAAAHkjdwddh/sAaQCOMAZflzkAAAAAAAAAAAAAAAAAAAAAAAAAAAAAAAAAAAAAAAAAAAAAAAAAAAAAAAAAAAAAAAAAAAAAAAAAAAAAAAAAAAAAAAAAAAAAAAAAAjCmoEArdHR8AAAAADVESqjVyAAADonKlZlMAAAAAAAAAADgMJ/QAAAAAAAAAAAAAAAAAAAAABSXO2EA0gEcYAy/LnIAAAAAAAAAAAAAAAAAAAAAAAAAAAAAAAAAAAAAAAAAAAAAAAAAAAAAAAAAAAAAAAAAAAAAAAAAAAAAAAAAAAAAAAAAAAAAAAAABGFNQIBW6Oj4AAAAAA9JOOg48DTmePB7ib8jtHOog/2AAAAAAAAAAAJC5z3gAAAAAAAAAAAAAAAAAAAAAHU6VWwDSARxgDL8ucgAAAAAAAAAAAAAAAAAAAAAAAAAAAAAAAAAAAAAAAAAAAAAAAAAAAAAAAAAAAAAAAAAAAAAAAAAAAAAAAAAAAAAAAAAAAAAAAAAEYU1AgFbo6PgAAAAAAAfIzDA8sZxnuQAAAAAAAAAAAAOFgnXAAAAAAAAAAAAAAAAAAAAAAFOA7GADSARxgDL8ucgAAAAAAAAAAAAAAAAAAAAAAAAAAAAAAAAAAAAAAAAAAAAAAAAAAAAAAAAAAAAAAAAAAAAAAAAAAAAAAAAAAAAAAAAAAAAAAAAAEYU1AgFbo6PgAAAAAAAAAAAAAAAAAAAAAAf4nKaaiT8IAAAAAAAAAAAAAAAAAAAB5I3dHTgADSARxgDL8ucgAAAAAAAAAAAAAAAAAAAAAAAAAAAAAAAAAAAAAAAAAAAAAAAAAAAAAAAAAAAAAAAAAAAAAAAAAAAAAAAAAAAAAAAAAAAAAAAAAEYU1AgFbo6PgAAAAAAD+TFkx0P2GWZ90AAAAAAAAAAAAAAAAAAAAAAAAAAAAAAAAAAAAABpAI4wBl+XOQAAAAAAAAAAAAAAAAAAAAAAAAAAAAAAAAAAAAAAAAAAAAAAAAAAAAAAAAAAAAAAAAAAAAAAAAAAAAAAAAAAAAAAAAAAAAAAAAACMKagQCt0dHwAAAAAPnpyrnLAaHzHAAGcp0DnWAdHh5AAAAAAAAAAAAAAAAAAAAAAAAAAAAAAAAAAAAGkAjjAGX5c5AAAAAAAAAAAAAAAAAAAAAAAAAAAAAAAAAAAAAAAAAAAAAAAAAAAAAAAAAAAAAAAAAAAAAAAAAAAAAAAAAAAAAAAAAAAAAAAAAAIwpqBAK3R0fAAAAA/CcahP/ADEAAAAAG1IozHSAAAAAAAAAAAAAAAAAAAAAAAAAAAAAAAAAAAAaQCOMAZflzkAAAAAAAAAAAAAAAAAAAAAAAAAAAAAAAAAAAAAAAAAAAAAAAAAAAAAAAAAAAAAAAAAAAAAAAAAAAAAAAAAAAAAAAAAAAAAAAAAAjCmoEArdHR8AAAAYuksQ55AAAAAAD+js+KRR7cAAAAAAAAAAAAAAAAAAAAAAAAAAAAAAAAAAaQCOMAZflzkAAAAAAAAAAAAAAAAAAAAAAAAAAAAAAAAAAAAAAAAAAAAAAAAAAAAAAAAAAAAAAAAAAAAAAAAAAAAAAAAAAAAAAAAAAAAAAAAAAjCmoEArdHR8AAADC8kGmskAAA+0nhT5gAAAdGpWJPegAAAAAAAAAAAAAAAAAAAAAAAAAAAAAAAAAaQCOMAZflzkAAAAAAAAAAAAAAAAAAAAAAAAAAAAAAAAAAAAAAAAAAAAAAAAAAAAAAAAAAAAAAAAAAAAAAAAAAAAAAAAAAAAAAAAAAAAAAAAAAjCmoEArdHR8AAAfLSOuagQAeUOqE68Te0feAYenPacZxoMAAOsUqYn9AAAAAAAAAAAAAAAAAAAAAAAAAAAAAAAAAGkAjjAGX5c5AAAAAAAAAAAAAAAAAAAAAAAAAAAAAAAAAAAAAAAAAAAAAAAAAAAAAAAAAAAAAAAAAAAAAAAAAAAAAAAAAAAAAAAAAAAAAAAAAAIwpqBAK3R0fAAAE1M4swAbQCpGblQAAAcv5MeMaAAU5DsUAAAAAAAABiSa9gAAAAAAAAAAAAAAAAAAAADZWZKAA0gEcYAy/LnIAAAAAAAAAAAAAAAAAAAAAAAAAAAAAAAAAAAAAAAAAAAAAAAAAAAAAAAAAAAAAAAAAAAAAAAAAAAAAAAAAAAAAAAAAAAAAAAAABGFNQIBW6Oj4AAGoAjLHjwDcwV2jIYAAAAGsYj+mIQBk2W7T7gAAAAAAADnJJPh6AAAAAAAAAAAAAAAAAAAAAAfYyuYbyQDSARxgDL8ucgAAAAAAAAAAAAAAAAAAAAAAAAAAAAAAAAAAAAAAAAAAAAAAAAAAAAAAAAAAAAAAAAAAAAAAAAAAAAAAAAAAAAAAAAAAAAAAAAAEYU1AgFbo6PgAASwjlEAMny0QZogAAAAA0QEfw8SAUUTunAAAAAAABJIOb4AAAAAAAAAAAAAAAAAAAAAA6zypSAaQCOMAZflzkAAAAAAAAAAAAAAAAAAAAAAAAAAAAAAAAAAAAAAAAAAAAAAAAAAAAAAAAAAAAAAAAAAAAAAAAAAAAAAAAAAAAAAAAAAAAAAAAAAjCmoEArdHR8AAfByFqekgFLM7RQAAAAAATIzjjANqxaiAAAAAAABMBOQUAAAAAAAAAAAAAAAAAAAAAA7jijUAaQCOMAZflzkAAAAAAAAAAAAAAAAAAAAAAAAAAAAAAAAAAAAAAAAAAAAAAAAAAAAAAAAAAAAAAAAAAAAAAAAAAAAAAAAAAAAAAAAAAAAAAAAAAjCmoEArdHR8AAcwpKBAMgy5qfQAAAAAAAaqCK8AC4mZygAAAAAAGJpM4NRZ+MAAAAAAAAAAAAAAAAAAAA8gbuClmffgDSARxgDL8ucgAAAAAAAAAAAAAAAAAAAAAAAAAAAAAAAAAAAAAAAAAAAAAAAAAAAAAAAAAAAAAAAAAAAAAAAAAAAAAAAAAAAAAAAAAAAAAAAAAEYU1AgFbo6PgACfycBoB1SlVMAAAAAAAERE16gFYw6bAAAAAAAAAAAAAAAAAAAAAAAAAAAAAAAADSARxgDL8ucgAAAAAAAAAAAAAAAAAAAAAAAAAAAAAAAAAAAAAAAAAAAAAAAAAAAAAAAAAAAAAAAAAAAAAAAAAAAAAAAAAAAAAAAAAAAAAAAAAEYU1AgFbo6PgACY+cc4B37FAIAAAAAAAEmo5nAClWdpoAAAAAAAAAAAAAAAAAAAAAAAAAAAAAAABpAI4wBl+XOQAAAAAAAAAAAAAAAAAAAAAAAAAAAAAAAAAAAAAAAAAAAAAAAAAAAAAAAAAAAAAAAAAAAAAAAAAAAAAAAAAAAAAAAAAAAAAAAAACMKagQCt0dHwABLEOUIAo5ncKAAAAAAACWIcoQBR7O30AAAAAAAAAAAAAAAAAAAAAAAAAAAAAAAA0gEcYAy/LnIAAAAAAAAAAAAAAAAAAAAAAAAAAAAAAAAAAAAAAAAAAAAAAAAAAAAAAAAAAAAAAAAAAAAAAAAAAAAAAAAAAAAAAAAAAAAAAAAABGFNQIBW6Oj4AAliHKEAUezt9AAAAAAABLEOUIAo9nb6AAAAAAAAAAAAAAAAAAAAAAAAAAAAAAAAaQCOMAZflzkAAAAAAAAAAAAAAAAAAAAAAAAAAAAAAAAAAAAAAAAAAAAAAAAAAAAAAAAAAAAAAAAAAAAAAAAAAAAAAAAAAAAAAAAAAAAAAAAAAjCmoEArdHR8AASxDlCAKPZ2+gAAAAAAAliHKEAUezt9AAAAAAAAAAAAAAAAAAAAAAAAAAAAAAAANIBHGAMvy5yAAAAAAAAAAAAAAAAAAAAAAAAAAAAAAAAAAAAAAAAAAAAAAAAAAAAAAAAAAAAAAAAAAAAAAAAAAAAAAAAAAAAAAAAAAAAAAAAAARhTUCAVujo+AAJYhyhAFHs7fQAAAAAAASxDlCAKPZ2+gAAAAAAAAAAAAAAAAAAAAAAAAAAAAAAAGkAjjAGX5c5AAAAAAAAAAAAAAAAAAAAAAAAAAAAAAAAAAAAAAAAAAAAAAAAAAAAAAAAAAAAAAAAAAAAAAAAAAAAAAAAAAAAAAAAAAAAAAAAAAIwpqBAK3R0fAAEsQ5QgCj2dvoAAAAAAAJYhyhAFHs7fQAAAAAAAAAAAAAAAAAAAAAAAAAAAAAAADSARxgDL8ucgAAAAAAAAAAAAAAAAAAAAAAAAAAAAAAAAAAAAAAAAAAAAAAAAAAAAAAAAAAAAAAAAAAAAAAAAAAAAAAAAAAAAAAAAAAAAAAAAAEYU1AgFbo6PgACWIcoQBv1Nw4AAAAAAAObU1mgFHs7fQAAAAAADDMmOGrUAAAAAAAAAAAAAAAAAAAAA3JFNcyQANIBHGAMvy5yAAAAAAAAAAAAAAAAAAAAAAAAAAAAAAAAAAAAAAAAAAAAAAAAAAAAAAAAAAAAAAAAAAAAAAAAAAAAAAAAAAAAAAAAAAAAAAAAAARhTUCAVujo+AAJYhyhAAAAAAAAAAAAo9nb6AAAAAAAS7jkYAAAAAAAAAAAAAAAAAAAAAAO3wo+AGkAjjAGX5c5AAAAAAAAAAAAAAAAAAAAAAAAAAAAAAAAAAAAAAAAAAAAAAAAAAAAAAAAAAAAAAAAAAAAAAAAAAAAAAAAAAAAAAAAAAAAAAAAAAIwpqBAK3R0fAAEt45KAAAAAAAAAAAAUhTtzAAAAAAAJKRzaAAAAAAAAAAAAAAAAAAAAAAHWuVIQDSARxgDL8ucgAAAAAAAAAAAAAAAAAAAAAAAAAAAAAAAAAAAAAAAAAAAAAAAAAAAAAAAAAAAAAAAAAAAAAAAAAAAAAAAAAAAAAAAAAAAAAAAAAEYU1AgFbo6PgADkfJc4AAAAAAAAAAB7UWYzbWAAAAAAAc9ZJsPlwAAAAAAAAAAAAAAAAAAAAB95K6xupANIBHGAMvy5yAAAAAAAAAAAAAAAAAAAAAAAAAAAAAAAAAAAAAAAAAAAAAAAAAAAAAAAAAAAAAAAAAAAAAAAAAAAAAAAAAAAAAAAAAAAAAAAAAARhTUCAVujo+AABy+mkc/kAAAAAAAAAHljprN3YAAAAAAABjaa2j84AAAAAAAAAAAAAAAAAAAB+42dn3YAGkAjjAGX5c5AAAAAAAAAAAAAAAAAAAAAAAAAAAAAAAAAAAAAAAAAAAAAAAAAAAAAAAAAAAAAAAAAAAAAAAAAAAAAAAAAAAAAAAAAAAAAAAAAAIwpqBAK3R0fAAAAAAAAAAAAAAAAAAAAAAAAAAAAAAAAAAAAAAAAAAAAAAAA0gEcYAy/LnIAAAAAAAAAAAAAAAAAAAAAAAAAAAAAAAAAAAAAAAAAAAAAAAAAAAAAAAAAAAAAAAAAAAAAAAAAAAAAAAAAAAAAAAAAAAAAAAAABGFNQIBW6Oj4AAAAAAAAAAAAAAAAAAAAAAAAAAAAAAAAAAAAAAAAAAAAAAAGkAjjAGX5c5AAAAAAAAAAAAAAAAAAAAAAAAAAAAAAAAAAAAAAAAAAAAAAAAAAAAAAAAAAAAAAAAAAAAAAAAAAAAAAAAAAAAAAAAAAAAAAAAAAIwpqBAK3R0fAAAAAAAAAAAAAAAAAAAAAAAAAAAAAAAAAAAAAAAAAAAAAAAA0gEcYAzNLlYAAAAAAAAAAAAAAAAAAAAAAAAAAAAAAAAAAAAAAAAAAAAAAAAAAAAAAAAAAAAAAAAAAAAAAAAAAAAAAAAAAAAAAAAAAAAAAAAABHhNEoBT1OwMAAAAAAAAAAAAAAAAAAAAAAAAAAAAAAAAAAAAAAAAAAAAAAAHNOSXwDZkWxgAAAAAAAAAAAAAAAAAAAAAAAAAAAAAAAAAAAAAAAAAAAAAAAAAAAAAAAAAAAAAAAAAAAAAAAAAAAAAAAAAAAAAAAAAAAAAAAAACZKccIB0Lld8/oAAAAAAAAAAAAAAAAAAAAAAAAAAAAAAAAAAAAAAAAAAAAAAAljHKAAdOZWFAAAAAAAAAAAAAAAAAAAAAAAAAAAAAAAAAAAAAAAAAAAAAAAAAAAAAAAAAAAAAAAAAAAAAAAAAAAAAAAAAAAAAAAAAAAAAAAAAAOYck/gA75SgKfuAAAAAAAAAAAAAAAAAAAAAAAAAAAAAAAAAAAAAAAAAAAAAB/JxGE34/kApsnY+AAAAAAAAAAAAAAAAAAAAAAAAAAAAAAAAAAAAAAAAAAAAAAAAAAAAAAAAAAAAAAAAAAAAAAAAAAAAAAAAAAAAAAAAAAAAAAAAAAeHIsZq7ABtwOmg+xgAAAAAAAAAAAAAAAAAAAAAAAAAAAAAAAAAAAAAAAAAAAA+anOQaRQAZnltU+qAAAAAAAAAAAAAAAAAAAAAAAAAAAAAAAAAAAAAAAAAAAAAAAAAAAAAAAAAAAAAAAAAAAAAAAAAAAAAAAAAAAAAAAAAAAAAAAAAAA0UEgo9TAAAAAAAAAAAAAAAAAAAAAAAAAAAAAAAAAAAAAAAAAAAAAAAAAB+wrEHTIAAAAAAAAAAAAAAAAAAAAAAAAAAAAAAAAAAAAAAAAAAAAAAAAAAAAAAAAAAAAAAAAAAAAAAAAAAAAAAAAAAAAAAAAAAAAAAAAAAADlTJdp6KAAAAAAAAAAAAAAAAAAAAAAAAAAAAAAAAAAAAAAAAAAAAAAAADzRSrOzMAAAAAAAAAAAAAAAAAAAAAAAAAAAAAAAAAAAAAAAAAAAAAAAAAAAAAAAAAAAAAAAAAAAAAAAAAAAAAAAAAAAAAAAAAAAAAAAAAAAAGnYmtmjQAAAAAAAAAAAAAAAAAAAAAAAAAAAAAAAAAAAAAAAAAAAAAAAG3opNG+QAAAAAAAAAAAAAAAAAAAAAAAAAAAAAAAAAAAAAAAAAAAAAAAAAAAAAAAAAAAAAAAAAAAAAAAAAAAAAAAAAAAAAAAAAAAAAAAAAAAAAA0zHOaa7jwAAAAAAAAAAAAAAAAAAAAAAAAAAAAAAAAAAAAAAAAAAAAAPKGfp0Jm9E/2AAAAAAAAAAAAAAAAAAAAAAAAAAAAAAAAAAAAAAAAAAAAAAAAAAAAAAAAAAAAAAAAAAAAAAAAAAAAAAAAAAAAAAAAAAAAAAAAAAAAAAAAAAAAAAAAAAAAAAAAAAAAAAAAAAAAAAAAAAAAAAAAAAAAAAAAAAAAAAAAAAAAAAAAAAAAAAAAAAAAAAAAAAAAAAAAAAAAAAAAAAAAAAAAAAAAAAAAAAAAAAAAAAAAAAAAAAAAAAAAAAAAAAAAAAAAAAAAAAAAAAAAAAAAAAAAAAAAAAAAAAAAAAAAAAAAAAAAAAAAAAAAAAAAAAAAAAAAAAAAAAAAAAAAAAAAAAAAAAAAAAAAAAAAAAAAAAAAAAAAAAAAAAAAAAAAAAAAAAAAAAAAAAAAAAAAAAAAAAAAAAAAAAAAAAAAAAAAAAAAAAAAAAAAAAAAAAAAAAAAAAAAAAAAAAAAAAAAAAAAAAAAAAAAAAAAAAAAAAAAAAAAAAAAAAAAAAAAAAAAAAAAAAAAAAAAAAAAAAAAAAAAAAAAAAAAAAAAAAAAAAAAAAAAAAAAAAAAAAAAAAAAAAAAAAAAAAAAAAAAAAAAAAAAAAAAAAAAAAAAAAAAAAAAAAAAAAAAAAAAAAAAAAAAAAAAAAAAAAAAAAAAAAAAAAAAAAAAAAAAAAAAAAAAAAAAAAAAAAAAAAAAAAAAAAAAAAAAAAAAAAAAAAAAAAAAAAAAAAAAAAAAAAAAAAAAAAAAAAAAAAAAAAAAAAAAAAAAAAAAAAAAAAAAAAAAAAAAAAAAAAAAAAAAAAAAAAAAAAAAAAAAAAAAAAAAAAAAAAAAAAAAAAAAAAAAAAAAAAAAAAAAAAAAAAAAAAAAAAAAAAAAAAAAAAAAAAAAAAAAAAAAAAAAAAAAAAAAAAAAAAAAAAAAAAAAAAAAAAAAAAAAAAAAAAAAAAAAAAAAAAAAAAAAAAAAAAAAAAAAAAAAAAAAAAAAAAAAAAAAAAAAAAAAAAAAAAAAAAAAAAAAAAAAAAAAAAAAAAAAAAAAAAAAAAAAAAAAAAAAAAAAAAAAAAAAAAAAAAAAAAAAAAAAAAAAAAAAAAAAAAAAAAAAAAAAAAAAAAAAAAAAAAAAAAAAAAAAAAAAAAAAAAAAAAAAAAAAAAAAAAAAAAAAAAAAAAAAAAAAAAAAAAAAAAAAAAAAAAAAAAAAAAAAAAAAAAAAAAAAAAAAAAAAAAAAAAAAAAAAAAAAAAAAAAAAAAAAAAAAAAAAAAAAAAAAAAAAAAAAAAAAAAAAAAAAAAAAAAAAAAAAAAAAAAAAAAAAAAAAAAAAAAAAAAAAAAAAAAAAAAAAAAAAAAAAAAAAAAAAAAAAAAAAAAAAAAAAAAAAAAAAAAAAAAAAAAAAAAAAAAAAAAAAAAAAAAAAAAAAAAAAAAAAAAAAAAAAAAAAAAAAAAAAAAAAAAAAAAAAAAAAAAAAAAAAAAAAAAAAAAAAAAAAAAAAAAAAAAAAAAAAAAAAAAAAAAAAAAAAAAAAAAAAAAAAAAAAAAAAAAAAAAAAAAAAAAAAAAAAAAAAAAAAAAAAAAAAAAAAAAAAAAAAAAAAAAAAAAAAAAAAAAAAAAAAAAAAAAAAAAAAAAAAAAAAAAAAAAAAAAAAAAAAAAAAAAAAAAAAAAAAAAAAAAAAAAAAAAAAAAAAAAAAAAAAAAAAAAAAAAAAAAAAAAAAAAAAAAAAAAAAAAAAAAAAAAAAAAAAAAAAAAAAAAAAAAAAAAAAAAAAAAAAAAAAAAAAAAAAAAAAAAAAAAAAAAAAAAAAAAAAAAAAAAAAAAAAAAAAAAAAAAAAAAAAAAAAAAAAAAAAAAAAAAAAAAAAAAAAAAAAAAAAAAAAAAAAAAAAAAAAAAAAAAAAAAAAAAAAAAAAAAAAAAAAAAAAAAAAAAAAAAAAAAAAAAAAAAAAAAAAAAAAAAAAAAAAAAAAAAAAAAAAAAAAAAAAAAAAAAAAAAAAAAAAAAAAAAAAAAAAAAAAAAAAAAAAAAAAAAAAAAAAAAAAAAAAAAAAAAAAAAAAAAAAAAAAAAAAAAAAAAAAAAAAAAAAAAAAAAAAAAAAAAAAAAAAAAAAAAAAAAAAAAAAAAAAAAAAAAAAAAAAAAAAAAAAAAAAAAAAAAAAAAAAAAAAAAAAAAAAAAAAAAAAAAAAAAAAAAAAAAAAAAAAAAAAAAAAAAAAAAAAAAAAAAAAAAAAAAAAAAAAAAAAAAAAAAAAAAAAAAAAAAAAAAAAAAAAAAAAAAAAAAAAAAAAAAAAAAAAAAAAAAAAAAAAAAAAAAAAAAAAAAAAAAAAAAAAAAAAAAAAAAAAAAAAAAAAAAAAAAAAAAAAAAAAAAAAAAAAAAAAAAAAAAAAAAAAAAAAAAAAAAAAAAAAAAAAAAAAAAAAAAAAAAAAAAAAAAAAAAAAAAAAAAAAAAAAAAAAAAAAAAAAAAAAAAAAAAAAAAAAAAAAAAAAAAAAAAAAAAAAAAAAAAAAAAAAAAAAAAAAAAAAAAAAAAAAAAAAAAAAAAAAAAAAAAAAAAAAAAAAAAAAAAAAAAAAAAAAAAAAAAAAAAAAAAAAAAAAAAAAAAAAAAAAAAAAAAAAAAAAAAAAAAAAAAAAAAAAAAAAAAAAAAAAAAAAAAAAAAAAAAAAAAAAAAAAAAAAAAAAAAAAAAAAAAAAAAAAAAAAAAAAAAAAAAAAAAAAAAAAAAAAAAAAAAAAAAAAAAAAAAAAAAAAAAAAAAAAAAAAAAAAAAAAAAAAAAAAAAAAAAAAAAAAAAAAAAAAAAAAAAAAAAAAAAAAAAAAAAAAAAAAAAAAAAAAAAAAAAAAAAAAAAAAAAAAAAAAAAAAAAAAAAAAAAAAAAAAAAAAAAAAAAAAAAAAAAAAAAAAAAAAAAAAAAAAAAAAAAAAAAAAAAAAAAAAAAAAAAAAAAAAAAAAAAAAAAAAAAAAAAAAAAAAAAAAAAAAAAAAAAAAAAAAAAAAAAAAAAAAAAAAAAAAAAAAAAAAAAAAAAAAAAAAAAAAAAAAAAAAAAAAAAAAAAAAAAAAAAAAAAAAAAAAAAAAAAAAAAAAAAAAAAAAAAAAAAAAAAAAAAAAAAAAAAAAAAAAAAAAAAAAAAAAAAAAAAAAAAAAAAAAAAAAAAAAAAAAAAAAAAAAAAAAAAAAAAAAAAAAAAAAAAAAAAAAAAAAAAAAAAAAAAAAAAAAAAAAAAAAAAAAAAAAAAAAAAAAAAAAAAAAAAAAAAAAAAAAAAAAAAAAAAAAAAAAAAAAAAAAAAAAAAAAAAAAAAAAAAAAAAAAAAAAAAAAAAAAAAAAAAAAAAAAAAAAAAAAAAAAAAAAAAAAAAAAAAAAAAAAAAAAAAAAAAAAAAAAAAAAAAAAAAAAAAAAAAAAAAAAAAAAAAAAAAAAAAAAAAAAAAAAAAAAAAAAAAAAAAAAAAAAAAAAAAAAAAAAAAAAAAAAAAAAAAAAAAAAAAAAAAAAAAAAAAAAAAAAAAAAAAAAAAAAAAAAAAAAAAAAAAAAAAAAAAAAAAAAAAAAAAAAAAAAAAAAAAAAAAAAAAAAAAAAAAAAAAAAAAAAAAAAAAAAAAAAAAAAAAAAAAAAAAAAAAAAAAAAAAAAAAAAAAAAAAAAAAAAAAAAAAAAAAAAAAAAAAAAAAAAAAAAAAAAAAAAAAAAAAAAAAAAAAAAAAAAAAAAAAAAAAAAAAAAAAAAAAAAAAAAAAAAAAAAAAAAAAAAAAAAAAAAAAAAAAAAAAAAAAAAAAAAAAAAAAAAAAAAAAAAAAAAAAAAAAAAAAAAAAAAAAAAAAAAAAAAAAAAAAAAAAAAAAAAAAAAAAAAAAAAAAAAAAAAAAAAAAAAAAAAAAAAAAAAAAAAAAAAAAAAAAAAAAAAAAAAAAAAAAAAAAAAAAAAAAAAAAAAAAAAAAAAAAAAAAAAAAAAAAAAAAAAAAAAAAAAAAAAAAAAAAAAAAAAAAAAAAAAAAAAAAAAAAAAAAAAAAAAAAAAAAAAAAAAAAAAAAAAAAAAAAAAAAAAAAAAAAAAAAAAAAAAAAAAAAAAAAAAAAAAAAAAAAAAAAAAAAAAAAAAAAAAAAAAAAAAAAAAAAAAAAAAAAAAAAAAAAAAAAAAAAAAAAAAAAAAAAAAAAAAAAAAAAAAAAAAAAAAAAAAAAAAAAAAAAAAAAAAAAAAAAAAAAAAAAAAAAAAAAAAAAAAAAAAAAAAAAAAAAAAAAAAAAAAAAAAAAAAAAAAAAAAAAAAAAAAAAAAAAAAAAAAAAAAAAAAAAAAAAAAAAAAAAAAAAAAAAAAAAAAAAAAAAAAAAAAAAAAAAAAAAAAAAAAAAAAAAAAAAAAAAAAAAAAAAAAAAAAAAAAAAAAAAAAAAAAAAAAAAAAAAAAAAAAAAAAAAAAAAAAAAAAAAAAAAAAAAAAAAAAAAAAAAAAAAAAAAAAAAAAAAAAAAAAAAAAAAAAAAAAAAAAAAAAAAAAAAAAAAAAAAAAAAAAAAAAAAAAAAAAAAAAAAAAAAAAAAAAAAAAAAAAAAAAAAAAAAAAAAAAAAAAAAAAAAAAAAAAAAAAAAAAAAAAAAAAAAAAAAAAAAAAAAAAAAAAAAAAAAAAAAAAAAAAAAAAAAAAAAAAAAAAAAAAAAAAAAAAAAAAAAAAAAAAAAAAAAAAAAAAAAAAAAAAAAAAAAAAAAAAAAAAAAAAAAAAAAAAAAAAAAAAAAAAAAAAAAAAAAAAAAAAAAAAAAAAAAAAAAAAAAAAAAAAAAAAAAAAAAAAAAAAAAAAAAAAAAAAAAAAAAAAAAAAAAAAAAAAAAAAAAAAAAAAAAAAAAAAAAAAAAAAAAAAAAAAAAAAAAAAAAAAAAAAAAAAAAAAAAAAAAAAAAAAAAAAAAAAAAAAAAAAAAAAAAAAAAAAAAAAAAAAAAAAAAAAAAAAAAAAAAAAAAAAAAAAAAAAAAAAAAAAAAAAAAAAAAAAAAAAAAAAAAAAAAAAAAAAAAAAAAAAAAAAAAAAAAAAAAAAAAAAAAAAAAAAAAAAAAAAAAAAAAAAAAAAAAAAAAAAAAAAAAAAAAAAAAAAAAAAAAAAAAAAAAAAAAAAAAAAAAAAAAAAAAAAAAAAAAAAAAAAAAAAAAAAAAAAAAAAAAAAAAAAAAAAAAAAAAAAAAAAAAAAAAAAAAAAAAAAAAAAAAAAAAAAAAAAAAAAAAAAAAAAAAAAAAAAAAAAAAAAAAAAAAAAAAAAAAAAAAAAAAAAAAAAAAAAAAAAAAAAAAAAAAAAAAAAAAAAAAAAAAAAAAAAAAAAAAAAAAAAAAAAAAAAAAAAAAAAAAAAAAAAAAAAAAAAAAAAAAAAAAAAAAAAAAAAAAAAAAAAAAAAAAAAAAAAAAAAAAAAAAAAAAAAAAAAAAAAAAAAAAAAAAAAAAAAAAAAAAAAAAAAAAAAAAAAAAAAAAAAAAAAAAAAAAAAAAAAAAAAAAAAAAAAAAAAAAAAAAAAAAAAAAAAAAAAAAAAAAAAAAAAAAAAAAAAAAAAAAAAAAAAAAAAAAAAAAAAAAAAAAAAAAAAAAAAAAAAAAAAAAAAAAAAAAAAAAAAAAAAAAAAAAAAAAAAAAAAAAAAAAAAAAAAAAAAAAAAAAAAAAAAAAAAAAAAAAAAAAAAAAAAAAAAAAAAAAAAAAAAAAAAAAAAAAAAAAAAAAAAAAAAAAAAAAAAAAAAAAAAAAAAAAAAAAAAAAAAAAAAAAAAAAAAAAAAAAAAAAAAAAAAAAAAAAAAAAAAAAAAAAAAAAAAAAAAAAAAAAAAAAAAAAAAAAAAAAAAAAAAAAAAAAAAAAAAAAAAAAAAAAAAAAAAAAAAAAAAAAAAAAAAAAAAAAAAAAAAAAAAAAAAAAAAAAAAAAAAAAAAAAAAAAAAAAAAAAAAAAAAAAAAAAAAAAAAAAAAAAAAAAAAAAAAAAAAAAAAAAAAAAAAAAAAAAAAAAAAAAAAAAAAAAAAAAAAAAAAAAAAAAAAAAAAAAAAAAAAAAAAAAAAAAAAAAAAAAAAAAAAAAAAAAAAAAAAAAAAAAAAAAAAAAAAAAAAAAAAAAAAAAAAAAAAAAAAAAAAAAAAAAAAAAAAAAAAAAAAAAAAAAAAAAAAAAAAAAAAAAAAAAAAAAAAAAAAAAAAAAAAAAAAAAAAAAAAAAAAAAAAAAAAAAAAAAAAAAAAAAAAAAAAAAAAAAAAAAAAAAAAAAAAAAAAAAAAAAAAAAAAAAAAAAAAAAAAAAAAAAAAAAAAAAAAAAAAAAAAAAAAAAAAAAAAAAAAAAAAAAAAAAAAAAAAAAAAAAAAAAAAAAAAAAAAAAAAAAAAAAAAAAAAAAAAAAAAAAAAAAAAAAAAAAAAAAAAAAAAAAAAAAAAAAAAAAAAAAAAAAAAAAAAAAAAAAAAAAAAAAAAAAAAAAAAAAAAAAAAAAAAAAAAAAAAAAAAAAAAAAAAAAAAAAAAAAAAAAAAAAAAAAAAAAAAAAAAAAAAAAAAAAAAAAAAAAAAAAAAAAAAAAAAAAAAAAAAAAAAAAAAAAAAAAAAAAAAAAAAAAAAAAAAAAAAAAAAAAAAAAAAAAAAAAAAAAAAAAAAAAAAAAAAAAAAAAAAAAAAAAAAAAAAAAAAAAAAAAAAAAAAAAAAAAAAAAAAAAAAAAAAAAAAAAAAAAAAAAAAAAAAAAAAAAAAAAAAAAAAAAAAAAAAAAAAAAAAAAAAAAAAAAAAAAAAAAAAAAAAAAAAAAAAAAAAAAAAAAAAAAAAAAAAAAAAAAAAAAAAAAAAAAAAAAAAAAAAAAAAAAAAAAAAAAAAAAAAAAAAAAAAAAAAAAAAAAAAAAAAAAAAAAAAAAAAAAAAAAAAAAAAAAAAAAAAAAAAAAAAAAAAAAAAAAAAAAAAAAAAAAAAAAAAAAAAAAAAAAAAAAAAAAAAAAAAAAAAAAAAAAAAAAAAAAAAAAAAAAAAAAAAAAAAAAAAAAAAAAAAAAAAAAAAAAAAAAAAAAAAAAAAAAAAAAAAAAAAAAAAAAAAAAAAAAAAAAAAAAAAAAAAAAAAAAAAAAAAAAAAAAAAAAAAAAAAAAAAAAAAAAAAAAAAAAAAAAAAAAAAAAAAAAAAAAAAAAAAAAAAAAAAAAAAAAAAAAAAAAAAAAAAAAAAAAAAAAAAAAAAAAAAAAAAAAAAAAAAAAAAAAAAAAAAAAAAAAAAAAAAAAAAAAAAAAAAAAAAAAAAAAAAAAAAAAAAAAAAAAAAAAAAAAAAAAAAAAAAAAAAAAAAAAAAAAAAAAAAAAAAAAAAAAAAAAAAAAAAAAAAAAAAAAAAAAAAAAAAAAAAAAAAAAAAAAAAAAAAAAAAAAAAAAAAAAAAAAAAAAAAAAAAAAAAAAAAAAAAAAAAAAAAAAAAAAAAAAAAAAAAAAAAAAAAAAAAAAAAAAAAAAAAAAAAAAAAAAAAAAAAAAAAAAAAAAAAAAAAAAAAAAAAAAAAAAAAAAAAAAAAAAAAAAAAAAAAAAAAAAAAAAAAAAAAAAAAAAAAAAAAAAAAAAAAAAAAAAAAAAAAAAAAAAAAAAAAAAAAAAAAAAAAAAAAAAAAAAAAAAAAAAAAAAAAAAAAAAAAAAAAAAAAAAAAAAAAAAAAAAAAAAAAAAAAAAAAAAAAAAAAAAAAAAAAAAAAAAAAAAAAAAAAAAAAAAAAAAAAAAAAAAAAAAAAAAAAAAAAAAAAAAAAAAAAAAAAAAAAAAAAAAAAAAAAAAAAAAAAAAAAAAAAAAAAAAAAAAAAAAAAAAAAAAAAAAAAAAAAAAAAAAAAAAAAAAAAAAAAAAAAAAAAAAAAAAAAAAAAAAAAAAAAAAAAAAAAAAAAAAAAAAAAAAAAAAAAAAAAAAAAAAAAAAAAAAAAAAAAAAAAAAAAAAAAAAAAAAAAAAAAAAAAAAAAAAAAAAAAAAAAAAAAAAAAAAAAAAAAAAAAAAAAAAAAAAAAAAAAAAAAAAAAAAAAAAAAAAAAAAAAAAAAAAAAAAAAAAAAAAAAAAAAAAAAAAAAAAAAAAAAAAAAAAAAAAAAAAAAAAAAAAAAAAAAAAAAAAAAAAAAAAAAAAAAAAAAAAAAAAAAAAAAAAAAAAAAAAAAAAAAAAAAAAAAAAAAAAAAAAAAAAAAAAAAAAAAAAAAAAAAAAAAAAAAAAAAAAAAAAAAAAAAAAAAAAAAAAAAAAAAAAAAAAAAAAAAAAAAAAAAAAAAAAAAAAAAAAAAAAAAAAAAAAAAAAAAAAAAAAAAAAAAAAAAAAAAAAAAAAAAAAAAAAAAAAAAAAAAAAAAAAAAAAAAAAAAAAAAAAAAAAAAAAAAAAAAAAAAAAAAAAAAAAAAAAAAAAAAAAAAAAAAAAAAAAAAAAAAAAAAAAAAAAAAAAAAAAAAAAAAAAAAAAAAAAAAAAAAAAAAAAAAAAAAAAAAAAAAAAAAAAAAAAAAAAAAAAAAAAAAAAAAAAAAAAAAAAAAAAAAAAAAAAAAAAAAAAAAAAAAAAAAAAAAAAAAAAAAAAAAAAAAAAAAAAAAAAAAAAAAAAAAAAAAAAAAAAAAAAAAAAAAAAAAAAAAAAAAAAAAAAAAAAAAAAAAAAAAAAAAAAAAAAAAAAAAAAAAAAAAAAAAAAAAAAAAAAAAAAAAAAAAAAAAAAAAAAAAAAAAAAAAAAAAAAAAAAAAAAAAAAAAAAAAAAAAAAAAAAAAAAAAAAAAAAAAAAAAAAAAAAAAAAAAAAAAAAAAAAAAAAAAAAAAAAAAAAAAAAAAAAAAAAAAAAAAAAAAAAAAAAAAAAAAAAAAAAAAAAAAAAAAAAAAAAAAAAAAAAAAAAAAAAAAAAAAAAAAAAAAAAAAAAAAAAAAAAAAAAAAAAAAAAAAAAAAAAAAAAAAAAAAAAAAAAAAAAAAAAAAAAAAAAAAAAAAAAAAAAAAAAAAAAAAAAAAAAAAAAAAAAAAAAAAAAAAAAAAAAAAAAAAAAAAAAAAAAAAAAAAAAAAAAAAAAAAAAAAAAAAAAAAAAAAAAAAAAAAAAAAAAAAAAAAAAAAAAAAAAAAAAAAAAAAAAAAAAAAAAAAAAAAAAAAAAAAAAAAAAAAAAAAAAAAAAAAAAAAAAAAAAAAAAAAAAAAAAAAAAAAAAAAAAAAAAAAAAAAAAAAAAAAAAAAAAAAAAAAAAAAAAAAAAAAAAAAAAAAAAAAAAAAAAAAAAAAAAAAAAAAAAAAAAAAAAAAAAAAAAAAAAAAAAAAAAAAAAAAAAAAAAAAAAAAAAAAAAAAAAAAAAAAAAAAAAAAAAAAAAAAAAAAAAAAAAAAAAAAAAAAAAAAAAAAAAAAAAAAAAAAAAAAAAAAAAAAAAAAAAAAAAAAAAAAAAAAAAAAAAAAAAAAAAAAAAAAAAAAAAAAAAAAAAAAAAAAAAAAAAAAAAAAAAAAAAAAAAAAAAAAAAAAAAAAAAAAAAAAAAAAAAAAAAAAAAAAAAAAAAAAAAAAAAAAAAAAAAAAAAAAAAAAAAAAAAAAAAAAAAAAAAAAAAAAAAAAAAAAAAAAAAAAAAAAAAAAAAAAP/8QAMhAAAAUDBAAEBwEAAgIDAAAAAAQFBhcCAwcBFiA2MDVgcBAREhMUFUBQISIj4CQzNP/aAAgBAQABCAP/ANJyVh6NlC+qhQPZtS7euuiddzcr66/+CbF8TYvibF8TYvibF8TYvibF8TYvibF8TYvibF8TYvibF8TYvibF8TYvibF8TYvibF8TYvibF8TYvibF8TYvibF8TYvibF8TYvibF8TYvibF8TYvibF8TYvibF8TYvibF8TYvibF8TYvibF8TYvibF8TYvibF8TYvibF8TYvibF8TYvibF8TYvibF8TYvibF8TYvibF8TYvibF8TYvibF8TYvibF8TYvibF8TYvibF8TYvibF8TYvibF8TYvibF8TYvibF8TYvibF8TYvibF8TYvibF8TYvibF8TYvibF8TYvibF8TYvibF8TYvi3m5Z01/8xLN6fX8tFFHfjVXNabZP3NczwRWrY+4ouXJjicH3LNr1A28hONt60W7TVfKK67f0lfcp/ZBsNa3qnkTp02omrx096isX7xW9bMFseZGoX9KEdZ9yHy7bLSSNTGhoyYOmLxs36kt3K7VdF21jp56OlM+wc9xq66bdFVyt6uS46F40f4oTQcLj/wCUsphBSrp0/OgwQYIMEGCDBBggwQYIMEGCDBBggwQYIMEGCDBBggwQYIMEGCDBBggwQYIMEGCDBBggwQYIMEGCDBBggwQYIMEGCDBBggwQYIMEGCDBBggwQYIMEGCDBBggwQYIMEGCDBBggwQYIMEGCDBBggwQYIMEGCDBBggwQYIMEGCDBBggwQYIMEGCDBBggwQYIMEGCDBBgNYPPU06/hLzIcjc01uKHBtLphtrJNWLlDVg6VLnC3uLlZb1SWteL2uGPMZUKFmwuuK3bt2bdFqz6c100q01pqyDjC1ravLbZ4YcW9TyCYSLvuLmpQ1vrqcm6fHHTZpcrhtWzOmmmmny09P5VbFCEuUnynxxEo6k3dbK+42TL/33ut68MLkKbDePH/UOWyFJxnGTHBl3tS7tbldPuK/u5OHhifpKf6hyR0le4NyrWhwoNdPuK/u5OHhifpKd6hyR0le4N7z9D9xn93Jw8MT9JTvUOSOkr3BvefofuM/u5OHhifpKd6hyR0le4N7z9D9xn93Jw8MT9JTvUOSOkr3BvefofuM/u5OHhjt6NhGapIgpSQyRJDJEkMkSQyRJDJEkMkSQyRJDJEkMkSQyRJDJEkMkSQyRJDJEkMkSQyRJDJEkMkSQyRJDJEkMkSQyRJDJEkMkSQyRJDJEkMkSQyRJDJEkMkSQyRJDJEkMkSQyRJDJEkMkSQyRJDJEkMkSQyRJDJEkMkSQyRJDJEkMkSQyRJDJEkMkSQyRJDJEkMkSQyRJDJEkMkSQyRJDJEkMkSQyRJDJEkMkSQyRJDJEkMkSQyRJDJEkMkSQyRJDJEkMkSQyRJDJEkMkSQyRJDJEkMkSQyRJDJEkMkSQyRJDJEkMkSQyRJDJEkMkSQyRJDJEkMkSQyRJDJEkMkSQyRJDJEkMkSQyRJDJEkMkPh8NVUaqwQIfFvefofuM/u5OH1S3vP0P3Gf3cnD6pb3n6H7jP7uTh9Ut7z9D9xn93Jw8CiAun7NJkjtN0jabpG03SNpukbTdI2m6RtN0jabpG03SNpukbTdI2m6RtN0jabpG03SNpukbTdI2m6RtN0jabpG03SNpukbTdI2m6RtN0jabpG03SNpukbTdI2m6RtN0jabpG03SNpukbTdI2m6RtN0jabpG03SNpukbTdI2m6RtN0jabpG03SNpukbTdI2m6RtN0jabpG03SNpukbTdI2m6RtN0jabpG03SNpukbTdI2m6RtN0jabpG03SNpukbTdI2m6RtN0jabpG03SNpukbTdI2m6RtN0jabpG03SNpukbTdI2m6RtN0jabpG03SNpukbTdI2m6RtN0jabpG03SNpukbTdI2m6RtN0jabpG03SNpukbTdI2m6QZbrgJ2azJv4t7z9D9xn93Jw8MT9JTvUOSOkr3BvefofuM/u5OHhifpKd6hyR0le4N7z9D9xn93Jw8MT9JTvUOSOkr3BvefofuM/u5OHhifpKd6hyR0le4N7z9D9xn93Jw8MT9JTvUOSOkr3BvefofuM/u5OHhifpKd6hyR0le4N7z9D9xn93Jw8MT9JTv4bxiwXp+sxW6Gzb1+m5acjev6/KxRXRcp0rt+jMkdJXuDe8/Q/cZ/dycPDE/SU7xrt21Yt13r7hzCjJ+tZdEVsku9W1q01vX7xivW6Y+BQ+eIV/cIo+WHWma00mW5lFuL1VBe/wCiskdJXuDe8/Q/cZ/dycPDE/SU7xXO60pqEvylB0vVadd7X8zwGdktVblVsmfSlZPWiVpQTfRGSOkr3BvefofuM/u5OHhifpKd4jtdRJppdR4ysLB9dP31JS8JnvA+0T/37CWpklkgWUk/+13u4g0U/wDKMrOQXWs3aq7n7ZVH7ZUH7ZUH7ZUH7ZUH7ZUH7ZUH7ZUH7ZUH7ZUH7ZUH7ZUH7ZUH7ZUH7ZUH7ZUH7ZUH7ZUH7ZUH7ZUH7ZUH7ZUH7ZUH7ZUH7ZUH7ZUGiuraa6a6IeR3UiXaNQ2HMnupMpUCPh5I6SvcG95+h+4z+7k4eGJ+kp3hmjVgkWvnDTucxl1LN9Ru8aLdy5/9dVNVGv018cXvDVBVNEo7/bklXuqzuVPq/txKr3U912SXiZI6SvcG95+h+4z+7k4eGJ+kp3h5mcVRYoUbhbg0Mfq7sq+/SiY3aiLTRqLdu3ao0t2jJQoco+0ccGKG2rU13E9xtZXaxv8AFU+GOHFq4W0Xqv8A9j6JXCLvcFq7/bjEjWdeiT9Ph5I6SvcG95+h+4z+7k4eGJ+kp3hvNX1XHMrqHDHjM1danrcNWLFktZtFy/BaRiC+n30xRcrfNtlXMpRv44dV9STluJtX9mSWJU5rFtSTDJUySv3Cxz+siQOqRm2TIY8ZO0yFy6c8PJHSV7g3vP0P3Gf3cnDwxP0lO8JxHtU1BWT9PBloVDdbicn88wINJ9AoWLfxbp3VOX0Y9/cfSEpVp0pUtlNEbKaI2U0RspojZTRGymiNlNEbKaI2U0RspojZTRGymiNlNEbKaI2U0RspojZTRGymiNlNEbKaI2U0RspojZTRGymiNlNEbKaI2U0QRTE1Mt/aTvEyR0le4N7z9D9xn93Jw8MT9JTvCyVd+yyF6rg2y2h1woZSrm4i1BxAWitfCxXrcsWa6vQuSOkr3BvefofuM/u5OHhifpKd4WS7X3mQvU6fFtGdCbiQjVXNwmKCiCtGa+BenWixZoq9C5I6SvcG95+h+4z+7k4eGJ+kp3hOQlqpN9aI08Geu0OJvJylzy+u0J7d0SaPi3iWqiuo5HT0NkjpK9wb3n6H7jP7uTh4Yn6SneG8EjVDciuncMcvTaylUXO2rtu/bt3rPBWVSKIQMKSi6XGadCwYVDHxw+kannPUoVehskdJXuDe8/Q/cZ/dycPDE/SU7w8zt7W8XJuQvwZ2RFZq/IrWiP8Aay7TT+Pprprp89Lt21Zo1uXl/KLYRqa6Czndqu6zWl9R4Y0buqA2rGt/0NkjpK9wb3n6H7jP7uTh4Yn6SneGcJl1AoZIm3U2zTWWDCYY42Tpwvp8i94wYMa/UY44yZ+rhVtFA56HyR0le4N7z9D9xn93Jw8MT9JTvEeLSJu1L1KXVRLPIp6+nKPhNJpKDtUNCpVISSSGnlkxP/lrrot0V3Li9mRKI3bhZFqzau/PX6JsXxNi+JsXxNi+JsXxNi+JsXxNi+JsXxNi+JsXxNi+JsXxNi+JsXxNi+JsXxNi+JsXxNi+JsXxNi+JsXxNi+JsXxNi+JsXxNi+JsXxNi+JsXxNi+JsXxNi+JsXxNi+JsXxNi+JsXxNi+JsXxTm1c+f/du5fRVS9QVVtNdNdPnp8ckdJXuDe8/Q/cZ/dycPDE/SU7xXWz0p2k/snXM0FpqmPtqHgM/HKs56rZq+joycgkbScmfzZjdF+3VYbBP/ADcPOe8fKGW6c+OSOkr3BvefofuM/u5OHhifpKd4xgsXOWbhY04cNphzWsw31bHztR9avv1U1UVa0V/CwXMGrmlosj4udqt9NVxuYob6LVQZP6aaaafLT+fKelW+Vn6v83D2lzV4afR8ckdJXuDe8/Q/cZ/dycPDE/SU7+EynkDv/BytmtOvX562mg1bOv1W7BcuWo+2W/qzA075umy5iH+biNqXkkhfXD/xyR0le4N7z9D9xn93Jw8MT9JTv8/XTTXT5ar2Im+rXbhkhVg4x89fog40IONCDjQg40IONCDjQg40IONCDjQg40IONCDjQg40IONCDjQg40IONCDjQg40IONCDjQg40IONCDjQg40IONCDjQg40IONCDjQg40IONCDjQg40IONCDjQg40IONCDjQg40IONCnBt/5/927ipuod2g2Z4ZI6SvcG95+h+4z+7k4eGJ+kp38JhdRCnz/KqebSp1101oeTTua/LQsqJhz/APH6MyR0le4N7z9D9xn93Jw8MT9JTvFNGypGzWZOLeYm+Q+q0lKmWncf+qkudWFZS111UOBBzOFL+X4CTmRxk9aaVNDyo1ljWi1fpqprppro9EZI6SvcG95+h+4z+7k4eGJ+kp3h1VU0U1V1uvLpBO1uEm6sL6uvmNTKt4TeebgbNen65pZLRXJrbKX/AEPkjpK9wb3n6H7jP7uTh4Yn6SneEsLKcgkbigqPLIao6a6ytnxmRlUym62kxyWL9g1ZtGC3oXJHSV7g3vP0P3Gf3cnDwxP0lO8FfXk5uJ11TUnS6lJ1qFRw7zoTVG5p9Vu6SOWP+b/NiP8ANtUxSUNFjJc6XsmyvoTJHSV7g3vP0P3Gf3cnDwxP0lO8A6dLJxQweOPN2m3aqVGa+FFFdyum3bQMRuFV0ovqSTilopulNV8olpifppoQ+B5vISlpV+er4dbR3SqpNcWN3K3tK79XHGb61QDdKOp+hMkdJXuDe8/Q/cZ/dycPDE/SU7wMtu/U+d20R4NdpKzrN/jp7WYyI1bWmpXwHfjBJcGl04nKyOooZ26nqfDEzv1VSGqAf/iVF5GRadKlWSGSJIZIkhkiSGSJIZIkhkiSGSJIZIkhkiSGSJIZIkhkiSGSJIZIkhkiSGSJIZIkhkiSGSJIZIkhkiSGSJIZIkhkiSGSJIZIkhkiSGSJIZIkhkiSGSJIZIkhkiSGSJIZIkhkiSGSJIZIkhkiSGSJIZIkhkiSGSE1YSli3rdS+GSOkr3BvefofuM/u5OHhifpKdzfLj0bDeNHqKqqq6qq6/iy2addyh9qhKSiKKRsJyb4Tpaia60+oodXUQ+3lK+lqPxRlU0hqZNVJpqgXVU8mpFP4MivXaifbsEjRoyeMXTRz/LIKB1LNWjqewnfS7Uj71345I6SvcG95+h+4z+7k4eGJ+kp3PLq9qpuLRMtfFGSTa6plEoi30Ik3EoslEfEfzPtOtJq0tV0V2q67dz44WXvulT7dv8A8GWDN2+9lG1X/m4bN3LLqultPjkjpK9wb3n6H7jP7uTh4Yn6SnclQ/bS00+pXjJi6bMXzd/44ebWhJNvOEz42YG1onKtleK/Fkq+qI6Eg7/DmNGulHDbWNP83CqNduKCivV/HJHSV7g3vP0P3Gf3cnDwxP0lO5ZcUfwmhdsU/FJT7ispkEyyUK2SRUuTLeM9kXRebKoQ04NlQ/bN5GUNfHW0VPcCdeTFJexQ5ku7XUn6tF1U666a7TdI2m6RtN0jabpG03SNpukbTdI2m6RtN0jabpG03SNpukbTdI2m6RtN0jabpG03SNpukbTdI2m6RtN0jabpG03SNpukbTdI2m6RtN0jabpG03SNpukbTdI2m6RtN0jabpG03SNpukbTdI2m6RtN0jabpG03SKWi6q9fp0buJF9SvUVrKWmEkYiXTU/45I6SvcG95+h+4z+7k4eGJ+kp3LOJr/lvEtPjh9O/Ldn5VX8DsT9EpyrZCn44jN/ks0ta9BZI6SvcG95+h+4z+7k4eGJ+kp3LNdzXVyptrhg6xp83Ga1/gy3Y+y9DdzhhK780NXsegskdJXuDe8/Q/cZ/dycPDE/SU7lmTt1vhhDTT9Yua/w5k7db4YQ8rXPQWSOkr3BvefofuM/u5OHhifpKdyzJ263wwh5Wufw5k7db4YQ8rXPQWSOkr3BvefofuM/u5OHhifpKdyzJ263wwh5Wufw5k7db4YQ8rXPQWSOkr3BvefofuM/u5OHhifpKdyzJ263wwh5Wufw5k7db4YQ8rXPQWSOkr3BvefofuM/u5OHhifpKdyzJ263wwh5Wufw5k7db4YQ8rXPQWSOkr3BvefofuM/u5OHhifpKdyzJ263wZ7+Ns8scLFpvVBN6oJvVBN6oJvVBN6oJvVBN6oJvVBN6oJvVBN6oJvVBN6oJvVBN6oHW5r7rVNFQx8cIeVrn8C8vJ7cTbympL2UnQr3q/wATdjpG7HSN2OkbsdI3Y6Rux0jdjpG7HSN2OkbsdI3Y6Rux0jdjpG7HSN2OkbsdI3Y6Rux0jdjpG7HSN2OkbsdI3Y6Rux0jdjpG7HSN2OkbsdI3Y6Rux0jdjpG7HSN2OkbsdI3Y6Rux0jdjpG7HSN2OkbsdI3Y6Rux0jdjpDeyu40q7RQppKsRW08upp3xyR0le4N7z9D9xn93Jw8MT9JTuWZO3W/6cIeVrn8GYli6bcdCT/nYVWbttSUUKv45I6SvcG95+h+4z+7k4eGJ+kp3LM1uql1l6tf6MI6a/qVur+DLJS6Xep+9X/m4aKXLzpvGtPjkjpK9wb3n6H7jP7uTh4Yn6SncstNa8spVlWI/z2LF4zetFy7Ibu2G8UTrnj5CZWjtT7dZU4SNpxm4TPf5aamH1g3bIprGaNtopH49XxyR0le4N7z9D9xn93Jw8MT9JTubkxUgrt64cKwcaEHGhBxoQcaEHGhBxoQcaEHGhBxoQcaEHGhBxoQcaEHGhBxoQcaEHGhBxoQcaEHGhBxoUYOvfVp9xrsBBa2ul8t/Coo6Ur0fbU9ccMnXXXURuyRG7JEbskRuyRG7JEbskRuyRG7JEbskRuyRG7JEbskRuyRG7JEbskRuyRG7JEbskRuyRG7JEbskRuyRG7JEbskRuyRG7JEbskRuyRG7JEbskRuyRG7JEbskRuyRG7JEbskRuyRG7JEbskRuyRG7JFOOWVTrpVoQS05LtfZTeGSOkr3BvefofuM/u5OHhifpKd6hyR0le4N7z9D9xn93Jw8MT9JTvUOSOkr3BvefofuM/u5OHhifpKd6hyR0le4NynWtwoNFPuLkuz9h7rmnDDB6i+2zhH1Dlk/STZpuzwZlnW+7W5RT7i5pT9bDgIKGnxxq5qG44aNDXqDLLmoWVuhLKfHEafqceFgx7jZZRdVRrXDdrhjvJlqzasILjpqprppro9O5AydYKWjCK3OGGkTUmiG1i77i3LdF2iu1ceLduthdNp1XBAfDkbfytp5TOF7SnTQ9OJUTiVE4lROJUTiVE4lROJUTiVE4lROJUTiVE4lROJUTiVE4lROJUTiVE4lROJUTiVE4lROJUTiVE4lROJUTiVE4lROJUTiVE4lROJUTiVE4lROJUTiVE4lROJUTiVE4lROJUTiVE4lROJUTiVE4lROJUTiVE4lROJUTiVE4lROJUTiVE4lROJUTiVE4lROJUTiVE4lROJUTiVE4lROJUTiVE4lROJUTiVE4lROJUTiVE4lROJUTiVE4lROJUTiVE4lROJUTiVE4lROJUTiVE4lROJUTiVE4lROJUTiVE4lQZzjr9HyJr+QnO4qa7Bng30Qy4VckklSJMunEypAp7jP5oW3Yk/TZv2LxW9dLmPUlNNVVWlNONmVthP1On/cjIOO7bkpqVEoyWME790qb9RW7dy9cotWsd42/T62Vxd9ynUyEZ2Wv/AJblx64m3rcuXfUDdY7hc1VOpJpY+Rmrppfp9zVjH7UW/qrMnsIF9fnqmXMKOTSr/wAUKukQq6RCrpEKukQq6RCrpEKukQq6RCrpEKukQq6RCrpEKukQq6RCrpEKukQq6RCrpEKukQq6RCrpEKukQq6RCrpEKukQq6RCrpEKukQq6RCrpEKukQq6RCrpEKukQq6RCrpEKukQq6RCrpEKukQq6RCrpEKukQq6RCrpEKukQq6RCrpEKukQq6RCrpEKukQq6RCrpEKukQq6RCrpEKukQq6RCrpEKukQq6RCrpEKukQq6RCrpEKukQq6RCrpEKukQq6RCrpEKukQq6RCrpEKukQq6RCrpEKukQq6RCrpEKukQq6RCrpEKukQq6RCrpEKukQq6RCrpFOFHN8/+5LB9Pz01UkfG7RRtaa7emmmmny0/wDScn//xABYEAAABQEDBgUPCAcGBAYDAAABAgMEBQAGEdQSICGUlbQTMUFVkRQiMkJRU1RgYXBxpbLV5SMwQFJygdLTFSQzYnOCsxBDUGOSkyVEscE0ZIOho+B0oqT/2gAIAQEACT8D/wDpOTLNirk42iAi6dgP1TINwUOlf+/khUM9d9w7pdFiUfLcmV6bJ6KhY1MO4qq5WG70kMhUVD9D3FVFQ/Q9xVRUP0PcVUVD9D3FVFQ/Q9xVRUP0PcVUVD9D3FVFQ/Q9xVRUP0PcVUVD9D3FVFQ/Q9xVRUP0PcVUVD9D3FVFQ/Q9xVRUP0PcVUVD9D3FVFQ/Q9xVRUP0PcVUVD9D3FVFQ/Q9xVRUP0PcVUVD9D3FVFQ/Q9xVRUP0PcVUVD9D3FVFQ/Q9xVRUP0PcVUVD9D3FVFQ/Q9xVRUP0PcVUVD9D3FVFQ/Q9xVRUP0PcVUVD9D3FVFQ/Q9xVRUP0PcVUVD9D3FVFQ/Q9xVRUP0PcVUVD9D3FVFQ/Q9xVRUP0PcVUVD9D3FVFQ/Q9xVRUP0PcVUVD9D3FVFQ/Q9xVRUP0PcVUVD9D3FVFQ/Q9xVRUP0PcVUVD9D3FVFQ/Q9xVRUP0PcVUVD9D3FVFQ/Q9xVRUP0PcVUVD9D3FVFQ/Q9xVRUP0PcVUVD9D3FVFQ/Q9xVRUP0PcVUVD9D3FVFQ/Q9xVRUP0PcVUVD9D3FVFQ/Q9xVRUP0PcVUVD9D3FVFQ/Q9xVRUP0PcVUVD9D3FVFQ/Q9xVRUP0PcVUVD9D3FVFQ/Q9xVRUP0PcVUVD9D3FVFQ/Q9xVRUP0PcVUVD9D3FVFQ/Q9xVRUP0PcVUVD9D3FVFQ/Q9xVRUP0PcVUVD9D3FVFQ/Q9xVRUP0PcVUNGHDRoTUdJD5dJlFqg3bbivOzdIvPSOQsRlcHkvGpZAjg+gGry9m4E31CFXyCLG/hibznL5TlQoi2YIXHduOS8CXgCSV/bmuD0jopb9Exxrw6kYnMVQ5O45edasteHGAZBB+r4wuhfMC3Xx74TKpATuN1L+Ga6OLJHIv4yjSnUsgUuUtGuDF4cLuyOgPYuUQ+sXSHbAHnLyXE4ullEKOlFgQ/YruPrKG7RPl4x0XZThV06XNlqrrGyjmH/sUoaAANABoDxjVUQXROCiSyRhIomcukDEOW4SiFHTSmiluQX0ETkylDkDsSPQAOuKGg3GXuB5yMhSSd5SMa3N2yoB17hQvHwDYDAJu6IgHLSp13LhQyqyyg3nUUON5jGHxlOZNRM5VE1CCJTkOQcopyGDSUxTBoo5f01HFKR4GgvVSXYpviF4uv4lADQU/cAxQ845gIQhROc5huKUpQvMYwjoAACjD1GmItY5PiyGSRjcGbJ5FFxEVDeU13EAZscqohfcLxW5uzLcNxv1hXJIoYvKUmUbyVOMmxuUGrVZ7dx8qqjG+rUepPi9Wo9SfF6tR6k+L1aj1J8Xq1HqT4vVqPUnxerUepPi9Wo9SfF6tR6k+L1aj1J8Xq1HqT4vVqPUnxerUepPi9Wo9SfF6tR6k+L1aj1J8Xq1HqT4vVqPUnxerUepPi9Wo9SfF6tR6k+L1aj1J8Xq1HqT4vVqPUnxerUepPi9Wo9SfF6tR6k+L1aj1J8Xq1HqT4vVqPUnxerUepPi9Wo9SfF6tR6k+L1aj1J8Xq1HqT4vVqPUnxerUepPi9Wo9SfF6tR6k+L1aj1J8Xq1HqT4vVqPUnxerUepPi9Wo9SfF6tR6k+L1aj1J8Xq1HqT4vVqPUnxerUepPi9Wo9SfF6tR6k+L1aj1J8Xq1HqT4vVqPUnxerUepPi9Wo9SfF6tR6k+L1aj1J8Xq1HqT4vVqPUnxerUepPi9Wo9SfF6tR6k+L1aj1J8Xq1HqT4vVqPUnxerUepPi9Wo9SfF6tR6k+L1aj1J8Xq1HqT4vVqPUnxerUepPi9Wo9SfF6tR6k+L1aj1J8Xq1HqT4vVqPUnxerUepPi9Wo9SfF6tR6k+L1aj1J8Xq1HqT4vVqPUnxerUepPi9Wo9SfF6tR6k+L1aj1J8Xq1HqT4vVqPUnxep9o4PyA6ZLMy3+UyS74Q6Kjzi1D/nWo9UtPSdRPrkL/8AMAmbePAKZLhIB/8AEND6HCA8nXk4u4YAHko4KN3SCThBQO3SWICiZvvKbzjGuczCgRxLuyBuYoqPD/ZFEvB/+pmpj1IpcowjDXl6pJ2rl3xGBubtCduGket7JMiSSZQImmmUCJpkKFxSEIUAKUpQ5PF0AMUwCAgIXgIDoEBAeMBpvwaieUq+ikg+TUIGky7BPtFCcqQaDB2OnQbMPetDr/JXjp6ieZaqYd0eDcFUDyAJQ84w/JsI/hhDuLvlRy//AIWyeYTLjmBerX4D2KpSGuRbD/8AkLcf7gGrQAaAAOIA8YCZDCa4VwBChcRB6QQ6rSLdoKQ/CAoX7QgGgMw1ycoydNBAR63hEidWpj9r9WEofa84whcmdogW4b7uBYNSCHpywH0DmB8o/kjEv0aUGaRCpB9yqynjCF6ka6ZvCaOu69YGSgB5Mh1ePozOMZhgj9zlcjY3/wCqvnG5wP7BMzlcSG+reMPeG+/NczQYkzFmKPcEr5AQ49HH5xucD+wTM8Ikd9W8Ye8N9+a5nO8bviPnG5wP7BMzwiR31bxh7w335rmc7xu+I+cbnA/sEzPCJHfVvGHvDffmuZzvG74j5xucD+wTM8Ikd9W8Ye8N9+a5nO8bviPnG5wP7BMyWSau0lnpjomSdGEoKOlVCDemgcnXEN3ankNXfYWp5DV32FqeQ1d9hankNXfYWp5DV32FqeQ1d9hankNXfYWp5DV32FqeQ1d9hankNXfYWp5DV32FqeQ1d9hankNXfYWp5DV32FqeQ1d9hankNXfYWp5DV32FqeQ1d9hankNXfYWp5DV32FqeQ1d9hankNXfYWp5DV32FqeQ1d9hankNXfYWp5DV32FqeQ1d9hankNXfYWp5DV32FqeQ1d9hankNXfYWp5DV32FqeQ1d9hankNXfYWp5DV32FqeQ1d9hankNXfYWp5DV32FqeQ1d9hankNXfYWp5DV32FqeQ1d9hankNXfYWp5DV32FqeQ1d9hankNXfYWp5DV32FqeQ1d9hankNXfYWp5DV32FqeQ1d9hankNXfYWp5DV32FqeQ1d9hankNXfYWp5DV32FqeQ1d9hankNXfYWp5DV32FqeQ1d9hankNXfYWp5DV32FqeQ1d9hankNXfYWp5DV32FqeQ1d9hankNXfYWp5DV32FqeQ1d9hankNXfYWp5DV32FqeQ1d9hankNXfYWp5DV32FqeQ1d9hankNXfYWp5DV32FqeQ1d9hankNXfYWp5DV32FqeQ1d9hankNXfYWp5DV32FqeQ1d9hankNXfYWp5DV32FqeQ1d9hankNXfYWp5DV32FqeQ1d9hankNXfYWp5DV32FqeQ1d9hankNXfYWp5DV32FqeQ1d9hamEXDtwiiVFEqLsonErtBQQAVECkC4hR5czneN3xHzjc4H9gnjTzvG74j5xucD+wTxp53jd8R843OB/YJ4087xu+I+cbnA/sEzIWWeNziYCuGka8cImEg5JgKqiicgiUwXDpqzU/saRw9Wan9jSOHqzU/saRw9Wan9jSOHqzU/saRw9Wan9jSOHqzU/saRw9Wan9jSOHqzU/saRw9Wan9jSOHqzU/saRw9Wan9jSOHqzU/saRw9Wan9jSOHqzU/saRw9Wan9jSOHqzU/saRw9Wan9jSOHqzU/saRw9Wan9jSOHqzU/saRw9Wan9jSOHqzU/saRw9Wan9jSOHqzU/saRw9Wan9jSOHqzU/saRw9Wan9jSOHqzU/saRw9Wan9jSOHqzU/saRw9Wan9jSOHqzU/saRw9Wan9jSOHqzU/saRw9Wan9jSOHqzU/saRw9Wan9jSOHqzU/saRw9Wan9jSOHqzU/saRw9Wan9jSOHqzU/saRw9Wan9jSOHqzU/saRw9Wan9jSOHqzU/saRw9Wan9jSOHqzU/saRw9Wan9jSOHqzU/saRw9Wan9jSOHqzU/saRw9Wan9jSOHqzU/saRw9Wan9jSOHqzU/saRw9Wan9jSOHqzU/saRw9Wan9jSOHqzU/saRw9Wan9jSOHqzU/saRw9Wan9jSOHqzU/saRw9Wan9jSOHqzU/saRw9Wan9jSOHqzU/saRw9Wan9jSOHqzU/saRw9Wan9jSOHqzU/saRw9Wan9jSOHqzU/saRw9Wan9jSOHqzU/saRw9Wan9jSOHqzU/saRw9Wan9jSOHqzU/saRw9Wan9jSOHqzU/saRw9Wan9jSOHqzU/saRw9Wan9jSOHqzU/saRw9Wan9jSOHqzU/saRw9Wan9jSOHqzU/saRw9Wan9jSOHqzU/saRw9Wan9jSOHqzU/saRw9Wan9jSOHqCmGrdIAFVw5jHqCKYCIFATqqIlIQBMN2kczneN3xHzjc4H9gmZ4RI76t4w94b781zOd43fEfONzgf2CZnhEjvq3jD3hvvzXM53jd8R843OB/YJmeESO+reMPeG+/NczneN3xHzjc4H9gmZ4RI76t4w94b781zOd43fEfONzgf2CZnhEjvq3jD3hvvzXM53jd8R843OB/YJmeESO+reMPeG+/NczneN3xHzjc4H9gmZ4RI76t9BWSQL9ZZQiZek4gHLVooIg8dx5ZgUbvQLip6FWG+65KUYqDf3OtXHTRynIbsTkMBij6DBoHxN7w335rmc7xu+I+cbnA/sEzPCJHfVvnlU0UUyidRVU5U00yBxmOc4gUpQ8tImmXAXh1QIi3jyG8hxLwzm4fqgBR5DVKHYIjfc3iw6iKW/k4cgi8MH2lBpZVdQeNRZQyhx9JjiJv7Xjpmp3xo4Vbn/1InINLoy7cONN+n8tk8uQ6R4NXK8p+Eo5od+fQCD45ep1D/VQfBkpG8mWCZhHiDxL7w335rmc7xu+I+cbnA/sEzPCJHfVvnVMpVTKBmySu6odqF5CB2iZb+uOOgvpuAVuAYlNehGNzGBqld2JlOVwv++b7skNHzJlZOG60vAHNlOmZOK9kqcewKX+6MOR3MmnJHLVYNByDpIa4BMkqTskliX6SjpDxJ7w335rmc7xu+I+cbnA/sEzPCJHfVvnPlHCuUkwZgPXunGTf6SoJcahuQPKIAK4ruVx9BEiB2CKJOJNFMOIP+/zd67FcSg/YCa4i5A7cnIm5TDsTfcOilQWauk8tM3EIchk1C9oqmYLjByCH04OHdr5RGDEpsk7lQt2UJjXG4NBK8Ms13/uNSrlkiJhyGkaodkgmXkIIomKssAf5hjDUnIa44/MqSf644/MqSf644/MqSf644/MqSf644/MqSf644/MqSf644/MqSf644/MqSf644/MqSf644/MqSf644/MqSf644/MqSf644/MqSf644/MqSf644/MqSf644/MqSf644/MqSf644/MqSf644/MqSf644/MqSf644/MqSf644/MqSf644/MqSf644/MqSf644/MqSf644/MqTkAEBvAQeuQEBDiEB4TjqQVk2oCHCM5NQ7opidxNc4i4QG7iyTZPkGryGAeDdNDiArNFwC8Uz3dkUwaSm7YPLeAfN94b781zOd43fEfONzgf2CZnhEjvq3zahUWzZI666puxTSTKJjmH0AFZRG5b0Y9sI6GzQo9YW68Q4VTslB5TD3Ls5M6l3HkFE13QA0UxDBxlMAlEOXiHTxZyv/CZVUpOuHrGb41xEXOnQVNXQRTyXD2v0416MaqMW2JyJlZiJFvvO6yzff8ATjfq0wiq1WJ2vCopKOWqn2ynIJA8ig/Od4b781zOd43fEfONzgf2CZnhEjvq3zZ8lR9+uv8AJG4epEziVuiP7q7ggmH+F5c39QiimyVJFcgmA4h2RGiN5BcnDl0gQOUb9FR5JF0XsncmBXRhN3SoGDqRK4eK4mV5RohE0y6CkTKBCFDyFLcAU1buku9uUU1yaePrFSmLppMYR6IXlO0C9mY3JwrIRyAJ/DFOkLinyhbO0rztHZC8ZkVbg64vKQ1xy8oaQzT5b+OH9HvREbzqCkUOAcG5R4dAQvHlOBvpoCHCybl6S/tk35xeJiHdDJX+nAIkZ9UPlhDtCIIKAQR8guDkL9/zneG+/NczneN3xHzjc4H9gmZ4RI76t82bKSM6Og17nUrX9Xb3BxBlpp5Q+UcwDFh48SHemC8ouDm0pskzBcICrdecQ7EnlEKSIigiQqSKKRQImmmQLikIUNBSlDNRBVuuXj0cKgp2i6BxAeDWTHiH/tXXcGOW3XuuK6anv4Fcn2gC4Q7UwCHJmG+RmGhyZN+jqpmU7lA3c/YgqX+b6aUv6ZZJ8HwYiBAftbxNwAmHrSrpGERTEdA3iA8lzdZq4SHJUQXTMkqQe4YhwAwfTGyztyqNxEUCCc4+XR2JA5RHQFcGpMPwL1WZMcsjdIulNoke4L7hG848RjeQAH5zvDffmuZzvG74j5xucD+wTM8Ikd9W+aG47WMeLJDxfLFQPwPSrdmkyXApA6fD2xnzgpTr5X8LQmH7pAzyfrUMqXLMHGdi5OVJUo93g1hIYO4GV3cwbgbSbJU/lSBcnCl/mSvD6dHMX4F7HqtqiuJPsCoQwk+6rORGoo/hqzkRqKP4as5Eaij+GrORGoo/hqzkRqKP4as5Eaij+GrORGoo/hqzkRqKP4as5Eaij+GrORGoo/hqzkRqKP4as5Eaij+GrORGoo/hqzkRqKP4as5Eaij+GrORGoo/hqzkRqKP4as5Eaij+GrORGoo/hqzkRqKP4as5Eaij+GrORGoo/hqzkRqKP4as5Eaij+GrORGoo/hqzkRqKP4as5Eaij+GmDNgmPGVo2Rbgbyn4Ipcs3lH53vDffmuZzvG74j5xucD+wTM8Ikd9W+av0otUtH+fINEOj5TMDKI4l45JQP8o7tIFfT8nf8x2K8U/J6BFqpkm9JDac3sjpJnH0mIAj4jd4b781zOd43fEfONzgf2CZnhEjvq3zV+hJoro/yJFosP3XJ5g5JEJeOUUH/ACiu0uF7v93f8x2KEU/UHy5LVW4vpMOjN7IiSZTekpAAfEbvDffmuZzvG74j5xucD+wTM8Ikd9W+aDKO5jHqaQXX/LcAcUdHkVAM02UuKIIPQ5SvkABNxeHJlm68P3TBnm/W5pUpMkOMjJscizhTyZZwITygYe5mBf1VJMkjeRMzgnCm7txE7x8R+8N9+a5nO8bviPnG5wP7BMzwiR31b5suSkm7Oq20XB1I5/WG13IOSkoBR8oZhh/Q0iYgOuM3UiwaE3pCheIgAaFADSJfsgFKEVSVIVRJVMwHTUTOGUQ5DlvKYpijoHNWBFq2IJjDoyjm7RJIoiGWsqbQUvKNdYQ3yTRvfeDVomI8Elfym05Rh5TiOYW9GGaqLZXa9VOgM2blHy8GZQwfY8R+8N9+a5nO8bviPnG5wP7BMzwiR31b5sl5mlzCQu8HUOItFh5Lk1ziQeX5QvczQ/SMQJtLFU4lO3v7IzJa43A3jpEggJB8gjfUmi2cDxs5AxWbkB+qXhDcEuP8Mx60gOkBDiEKUTSTL2R1TlIQPSYwgAU4CZehfkt48wHQA3Jwr7S3KT7HCG8lKgVBITdSsUbytWxTfVKIiJ1TBxnNpH0aM0mS+lBCQdAIdcmVQgdSoDyhwSFwiHIcxvEfvDffmuZzvG74j5xucD+wTM8Ikd9W+bTBVs7RUQXTHtk1CiUwd0BuHQPGA1eZP9qyc3aHTQ4jwSocmWF2ScOQ4DnO3KAdxFdVMOghgpdZce6sqdQek4jnJ3xEUoRRXKDrHbstx0WgchiB2an7ujtvEjvDffmuZzvG74j5xucD+wTM8Ikd9W+cyUnqGWpHPLtLdcQ7A43CYWy1wAoHkv4wCkDN3Tc2SchuIQ7VRM3EokoGkpg0CHzYcE1SyTPnxi3pNUh6OEXUu6wnL5AARBLgmzYmSX66hh0qLKm7dVU2kw/RjlTTTKY5znMBSEIULzHOYbgKUoBpGmR5cxByRdnV6lZZQcfA/JqLOCh3biAPIIhUREgXkAwvDD95gXJf0VFQ/Q9xVRUP0PcVUVD9D3FVFQ/Q9xVRUP0PcVUVD9D3FVFQ/Q9xVRUP0PcVUVD9D3FVFQ/Q9xVRUP0PcVUVD9D3FVFQ/Q9xVRUP0PcVUVD9D3FVFQ/Q9xVRUP0PcVUVD9D3FVFQ/Q9xVRUP0PcVUVD9D3FVFQ/Q9xVRUP0PcVUVD9D3FVFQ/Q9xVRUP0PcVUVD9D3FVFQ/Q9xVRUP0PcVUVD9D3FVFQ/Q9xVRUP0PcVUVD9D3FVFQ/Q9xVRUP0PcVUVD9D3FVFQ/Q9xVRUP0PcVUVD9D3FVFQ/Q9xVRUP0PcVURFGL3Ci7IP+oVz/8ASm5oRdQQKRc6wOI8xuL5RfIRO2yh+sXIDlNWkB0gIcQhmd4b781zOd43fEfONzgf2CZnhEjvq3zpeBdpAPUcikUOqGxh03cnDIGHskx0dy4dNNxM2Ma5tIIgJ2jgOS4/90rdxkNcb7tPzIHjoa8BM9UL8o5LylYpG/aX/XH5MPLxU3K3bp6R5VFlBAAMsupxqrHu0j/2+jqimRREruUEgiAqAcw9TNDfudZwhg5by/4coZVWNSBwwOcbz9QCcElEBEdOS1VOXJ/dPdxFDM7w335rmc7xu+I+cbnA/sEzPCJHfVvnkEnLdYuQqgumVVJQo8hyHASmCnQxaw3j1G4y3DExu4Q94uWoCP8AFDuAFQ7hwkX/AJiPDq5IS/W+Qylky/bKWimIYo3GKYBKYB7ggOkB/tQWcKm4k0EzqqD6CJgYw0yCKbjd8tJm4A93L+qAB3eV9ohQ8tXzb0twgLogEZJmDlTZXnKcf4gn9AVoANAAHEAfSL7hLGiS/iyf0UyDrfJlgP3/AOHX5IRj0Vf4d6ABf5OFEuZ3hvvzXM53jd8R843OB/YJmeESO+rfQWTR2HcctkV/6pDVZuF/kjmqYf6SJlLVnIW/QN5o1ocQEOLJE6Rsn7qQRbp/UQTIkT/SQAD6WkKpmqHU0mmmF5wbEEx0XlwcZUcsSqdwtw8QD/hyRknkqQibVI4ZJ0Y8o8JlmAdIC8UuNd9UhR5czvDffmuZzvG74j5xucD+wTM8Ikd9W/w/SA6BAeIQpVaEXUG8xG5CLMcoeMwMzCmKfoIcpfJVo0RLyCaMOUfvKD493TVom+zlMXVom+zlMXVom+zlMXVom+zlMXVom+zlMXVom+zlMXVom+zlMXVom+zlMXVom+zlMXVom+zlMXVom+zlMXVom+zlMXVom+zlMXVom+zlMXVom+zlMXVom+zlMXVom+zlMXVom+zlMXVom+zlMXVom+zlMXVom+zlMXVom+zlMXVom+zlMXVom+zlMXVom+zlMXVom+zlMXVom+zlMXVom+zlMXVom+zlMXVom+zlMXVom+zlMXVom+zlMXVom+zlMXVom+zlMXVom+zlMXVom+zlMXVom+zlMXVom+zlMXVom+zlMXVom+zlMXVom+zlMXVpEil7pYs5x/0i/J/1rhJl4mIGTO8KUrVI4cR02Zbyia/vgqXcmnN7w335rmc7xu+I+cbnA/sEzPCJHfVvoMxFNruPqiQaI3cmnhFS8tWjhtH1ZBuYPuMU4lGrSQvFf18k1TDpUUKF9SLF1fxdTO0F7/8AaUN3fE3vDffmuZzvG74j5xucD+wTM8Ikd9W+dcoNG6fZruFSIpF+0dQSlCkXEyuGjLL+qMr/AOOqQyx/5U7h7tLtopIe1Ytyipk+Vd11QoBvKTIqTfvb/Cna64fcVQ5igGbNSTcof3RXaooaOK9ucxkDfeWkGcul2xhJ1C6H0Kty9Th/sjS54d0bRwcjkkQE37j0oi3u/icHRinIYAMUxRAxTFHiEohoEB8Se8N9+a5nO8bviPnG5wP7BMzwiR31b5swFIUBMYxhAClKAXiYwjoAACiJybst5TPlL/0cibl4LJEp3pg8glT5co3FT9d2e8RIQ5rkEb+RBuW5FEv2QD5t6YWuVeePc3rMj8o/JCPyJjfWTEpq/wCFSprgBqucBRcn/wDJuOtA5hHtDZJ+5f4kd4b781zOd43fEfONzgf2CZnhEjvq3zTgrdsno06TqqXCJUUE+yVWPdoAP+lCePhsrrGRDfKOAAetO+UL+0HlyOwL5R0/PqKvI7QRKRHKVeMg4g4fjO7bB/uF/e0FpVNdBYgKJLJGA6ahDaQMQ5bwMA+I3eG+/NczneN3xHzjc4H9gmZ4RI76t8yrkJE61NMtwrOVxARI3bkvDLVPd6ADSOgKOJECCJWTEhhFBml3Choy1jdufjMPcC4Az2D04cV5Gq5gv9IEpo5RC6+9VBVPR3evKGj5gVHMEsp8s27JRoY4hlOWl/EIcZk+xP6dNLEXbOEyqorJjlEUTOF5TFHxF7w335rmc7xu+I+cbnA/sEzPCJHfVvmFSoNWqRll1TcRSF4+LSIjyAGkRrLSYIZScczytCKN/wC0OAdaLlfjOPoDiAM0plFDmApCEKJjnMbQBSlDSYwjQkg2prhucF4V8YvkZlMXgh/iGIYO5TVaWXD+8kFhFO/yNkOBQEvkMB6j2LIA4upWqCHJd/dELyf2w8a6E3GdZmgZX0lWyOFKPlAaUdQ6w35PBnF40vH6yDk3Dcf1VShTcJJiW8ReR+WqCZe64QyQXQuDjG4SB9bOV/4K8V6xQ46I10f+9v5Gqxv2nIXsvrX+IneG+/NczneN3xHzjc4H9gmZ4RI76t8wr+pMFANImIOhy/LxICIcaTPlDvv2QzU8hBIS9Vv1rwbNSj9YQ/aLGDsSBpHyBeIJdUyAluWk3JSi4Nf2RUA0g1RH6pePthN8yVOJlxvNwiZLmbs3Hc6QJoKcw/3hOu5TAamx2zlLtTdioTtVUVA61VE92gwZquVIRiQC0OYeucxxckgFv5VGYiBfKQS9wfocmzY5QXkIusUFVA7qaAXrKfcA1PIau+wtTyGrvsLU8hq77C1PIau+wtTyGrvsLU8hq77C1PIau+wtTyGrvsLU8hq77C1PIau+wtTyGrvsLU8hq77C1PIau+wtTyGrvsLU8hq77C1PIau+wtTyGrvsLU8hq77C1PIau+wtTyGrvsLU8hq77C1PIau+wtTyGrvsLU8hq77C1PIau+wtTyGrvsLU8hq77C1PIau+wtTyGrvsLU8hq77C1PIau+wtTyGrvsLU8hq77C1PIau+wtTyGrvsLU8hq77C1PIau+wtTyGrvsLU8hq77C1PIau+wtTyGrvsLU8hq77C1PIau+wtSDR+Qt2X1MsRQUxHiBUgDlpCP7wBm94b781zOd43fEfONzgf2CZnhEjvq2eJerVf1SOKPK7WAbj3cpW6YCoP2buWjGOc5hMc5hExjGMN5jGMOkTCOYIt45sJTSD279mUeJFG/QdyqAaOQOMfKgVu1bluKQvGYe2UUNxqKqDpMYdI/NkAi5AMLJ8QoC4ZqjylHRlonu69O+4weW4QTyF0RvKcL+CcIiI8G5QMIBloq3aO4OgdIDmDcuzWKqAX3FUL2KqJ/wDLWTESj5Bo2U3et03CQ8oAoW/IN3FEx0GDkEPoOQaYkAODXKuMVqiXQo8OTthAw3JgOgTeQogK6rlysbLVXWOZRQ5u6Yxrx/wxys0dIjemsibJN5SjyHTNylG8pg46AicmyMVCRRJ2ImMAik6SDTck5Ao6OQxRDuCP9veG+/NczneN3xHzjc4H9gmZ4RI76tnnvawifA6OIz1cCqOzf+mAET8gkHMLlOHaoEAdOQkTslVlLuJJFMBMPkCi/JoheoqIACjpwa7hnK3dUUEP5QuANAB86UpZdiU6sctoDLHjOzUNxcE4u/lPcPFfeUyaiZjEUIcBKchyjkmKYo6QMUQzD3maD+kGICP/AC6xgI7TL3CpOBKf0qj9BG8jJvHtkQ+qmdkg8EP950b/AA4R4J5GOSqFv63KROisme7lMW4QD7Q5neG+/NczneN3xHzjc4H9gmZ4RI76tnfs2LRw6MH1uBTMfID944hcHlo2Wu5WVcLHHjOqscVFDfzHNmJ/rUneiyyg65OPTN1xw5Q6rXL/AKSFHl+fJc1mBMV0BQ61ORTLeJu4HViXXfaIccw+Qj1URq609b1K8/V1hP3QSBTL9JfoJB6mlm6QGU5AeM0ytzJj3L2xExDu6e5/hxbm7ZuMe3MIaDuVzJKrCQf8hFMAH+Jmd4b781zOd43fEfONzgf2CZnhEjvq2cNx5N61ZaOPIATPFP5RBrkj9rM0KPnaDUDfU4ZQCCoP7qZRvH0UQE27VBJuiQO1SRICZC/cUvz5MtcG5nTP63VjX5ZEC9wVcng/Qcc02UdzHNTrD/5gEwI56Fym+gJcK3W0gIaFUFQv4NwgfTkLJ36B+4bwEQpEJplf8mq1EpXIF5AWZnMCmX/D4QKs1PaO5EPzB9xioCUas1P7GkcPVmp/Y0jh6s1P7GkcPVmp/Y0jh6s1P7GkcPVmp/Y0jh6s1P7GkcPVmp/Y0jh6s1P7GkcPVmp/Y0jh6s1P7GkcPVmp/Y0jh6s1P7GkcPVmp/Y0jh6s1P7GkcPVmp/Y0jh6s1P7GkcPVmp/Y0jh6s1P7GkcPVmp/Y0jh6s1P7GkcPVmp/Y0jh6s1P7GkcPVmp/Y0jh6s1P7GkcPVmp/Y0jh6s1P7GkcPVmp/Y0jh6s1P7GkcPVmp/Y0jh6s1P7GkcPVmp/Y0jh6s1P7GkcPVmp/Y0jh6s1P7GkcPVmp/Y0jh6s1P7GkcPVmp/Y0jh6s1P7GkcPVmp/Y0jh6s1P7GkcPVmp28frRL4gf6joFKFF/QzC8BPlmTVfKl0daigQxwSE3Fepdk/VGkQQaNSZCZA0jx5RjnMOk6ihxvMI8Yjmd4b781zOd43fEfONzgf2CZnhEjvq2cPJIOlA9PUqSI/dcfMDrYtg5cgPJwy2SzTD05Dg4h9n6CGSmhIuOBL9Vuqfh25fuQULmDf1C9fNOTRlK9WAHQ78Qu8N9+a5nO8bviPnG5wP7BMzwiR31bO7EkGif+ZR8/Af/AGSDMuvD9GIE7oAPVqinJxDcXo+gh/4pmwX9OSgDW/8A/mzL7k5UFfJ8s0QIP3/IeIXeG+/NczneN3xHzjc4H9gmZ4RI76tnc0M/6zvMALxfNgEeW4G5rgv7gX/QeaGf9Z3meHt93HxC7w335rmc7xu+I+cbnA/sEzPCJHfVs7mhn/Wd5nh7fdx+g80M/wCs7zPD2+7j4hd4b781zOd43fEfONzgf2CZnhEjvq2dzQz/AKzvM8Pb7uP0Hmhn/Wd5nh7fdx8Qu8N9+a5nO8bviPnG5wP7BMzwiR31bO5oZ/1neZ4e33cfoPNDP+s7zPD2+7j4hd4b781zOd43fEfONzgf2CZnhEjvq2dzQz/rO8zw9vu4/QeaGf8AWd5nh7fdx8Qu8N9+a5nO8bviPnG5wP7BMzwiR31bO5oZ/wBZ3mMGzwHi5FjGXUUIJBITIuDI5Kg4/WHFQcfrDioOP1hxUHH6w4qDj9YcVBx+sOKg4/WHFQcfrDioOP1hxUHH6w4qDj9YcVBx+sOKg4/WHFQcfrDioOP1hxUHH6w4psk0ODVJrwSJjnLkpHVOBrz6bx4XM8Pb7uP0BTIRT60iZdKzlcwDwbdAujKVPd6ADSOgKdGhmd48G3YjkrZPJwr24FzKfZyC+SrSz+2ZHEVaWf2zI4irSz+2ZHEVaWf2zI4irSz+2ZHEVaWf2zI4irSz+2ZHEVaWf2zI4irSz+2ZHEVaWf2zI4irSz+2ZHEVaWf2zI4irSz+2ZHEVaWf2zI4irSz+2ZHEVaWf2zI4irSz+2ZHEVaWf2zI4irSz+2ZHEVaWf2zI4irSz+2ZHEVaWf2zI4irSz+2ZHEVaWf2zI4irSz+2ZHEVaWf2zI4irSz+2ZHEVaWf2zI4irSz+2ZHEVaWf2zI4irSz+2ZHEVaWf2zI4irSz+2ZHEVaWf2zI4irSz+2ZHEVaWf2zI4irSz+2ZHEVaWf2zI4irSz+2ZHEVaWf2zI4irSz+2ZHEVaWf2zI4irSz+2ZHEUr+mmF4AoRzkg8IXlMg7AAOY/kVyw5NHHSvDNXJMog8RyGDQdJUvaKpHC4wd3M7w335rmc7xu+I+cbnA/sEzPCJHfVs7mhn/Wd/SfD2+7j9AMPU0Q2S+Tv0C6eJlcqKj5eAOmAdz7/wDDjj1M6bC/QKI6COm5k01MgO6ugp138IMzvDffmuZzvG74j5xucD+wTM8Ikd9Wzg61SGaCQe7kuXpB+8BL9JDQMigADyXlbaQ+7KD6AHWPm8e5QG7jTIzRZG9PyrQ3+HB8kyjHBlDcmWuoiimn6TAJh/lzO8N9+a5nO8bviPnG5wP7BMzwiR31bOTFR5DAqKyRezWj1LjLZP1jtTEywD6om5bvpCR1l1jlSRRSKJ1FFDjklIQpdJjGGsnqswmdvxKN5erF8nLKAhoMCKZSp38uT9AEicvH8IZmc+gjhM+lRmqbtQUEoCQw9ibyCNNlmjlEclRFcgpnL9w8ZR5B4h/wxqq8dK9ikkW+4OU5zaCJJl5TGEChRirSLsxV5FwTsBUABBNBK+4eAbFEQC/jERHRfcH9veG+/NczneN3xHzjc4H9gmZ4RI76tnnUhnqoiZU7ZMqrRVQ2kVFGZhTuOI8eQcl/Lpq0SGzVMZVom+zlMXVom+zlMXVom+zlMXVom+zlMXVom+zlMXVom+zlMXVom+zlMXVom+zlMXVom+zlMXVom+zlMXVom+zlMXVom+zlMXVom+zlMXVom+zlMXVom+zlMXVom+zlMXVom+zlMXVom+zlMXVom+zlMXVom+zlMXVo0gJ22RGGE13kAz0oUmd3I5NwyLzJOsS8LjA2IAAm2KN48XXiA3CYfoUczfFDseqUE1TE/hnMGWkP2RCoBvpG/Qs8APuAHIAAVAoaw+xVQKGsPsVUChrD7FVAoaw+xVQKGsPsVUChrD7FVAoaw+xVQKGsPsVUChrD7FVAoaw+xVQKGsPsVUChrD7FVAoaw+xVQKGsPsVUChrD7FVAoaw+xVQKGsPsVUChrD7FVAoaw+xVQKGsPsVUChrD7FVAoaw+xVQKGsPsVUChrD7FVAoaw+xVQKGsPsVUChrD7FVAoaw+xVQKGsPsVUChrD7FVAoaw+xVQKGsPsVUChrD7FVAoaw+xVQKGsPsVUChrD7FVAoaw+xVQKGsPsVUChrD7FVAoaw+xVQKGsPsVUA20fWVdnD7yncCUaYtGKQ6RI1QTQAw/WPwZQyzeUc3vDffmuZzvG74j5xucD+wTM8Ikd9W8Ye8N9+a5nO8bviPnG5wP7BMzwiR31bxh7w335rmc7xu+I+cbnA/sEzPCJHfVvGHvDffmuYF5jTMWUod0ReoAAecYLgOo1WDRcA8MwaqCP8AqMN/lzB+VYSahhL3EHaSZ0jfzKpqdHjCNx5FyzZJ93QsDxT/AOJqIffmcYTMet9zdwRwbudql5xg+TkI4E7+64ZKmKp0ILpZimRHShQZOzCNxETCe9q6N5EVNAjyEOYfGE+WyhOESMYo9atIKZPVRgEOyKgBATDuGA3dzAvJGNHbw3cvOn1EmHpynV4ejzjFynEMsD8LuyFrdwTwv2SpmBQf4eavwZEwKlHyig9YVMNBGz4/agTiIpxXaDXXX0YDEMAGKYogJTFELwMUQ0CAh4vLgs+OApOpNE3yTIOI6bVQv7R1yZYaE+TruxzCXKy64EQv4+o2WWQDB3OEcnU9OSHnGKU6ahDJqEMF5TkOGSYpgHjKYBoDdTZXDx6pv75iqYeBHK7Y6d2Qf94o5r8TtA/5B2HVLT0EIYQOh/6ZiX1Z9NQ92lRo/MiUR8iKzZcQD+erOr7RTwdWdX2ing6s6vtFPB1Z1faKeDqzq+0U8HVnV9op4OrOr7RTwdWdX2ing6s6vtFPB1Z1faKeDqzq+0U8HVnV9op4OrOr7RTwdWdX2ing6s6vtFPB1Z1faKeDqzq+0U8HVnV9op4OrOr7RTwdWdX2ing6s6vtFPB1Z1faKeDqzq+0U8HVnV9op4OrOr7RTwdWdX2ing6s6vtFPB1Z1faKeDqzq+0U8HVnV9op4OrOr7RTwdWdX2ing6s6vtFPB1Z1faKeDqzq+0U8HVnV9op4OrOr7RTwdWdX2ing6s6vtFPB1Z1faKeDqzq+0U8HVnV9op4OrOr7RTwdWdX2ing6s6vtFPB1Z1faKeDqzq+0U8HVnV9op4OrOr7RTwdWdX2ing6s6vtFPB1Z1faKeDqzq+0U8HVnV9op4OrOr7RTwdWdX2ing6s6vtFPB1Z1faKeDqzq+0U8HVnV9op4OrOr7RTwdWdX2ing6s6vtFPB1Z1faKeDqzq+0U8HVnV9op4OrOr7RTwdWdX2ing6s6vtFPB1Z1faKeDqzq+0U8HVnV9op4OrOr7RTwdWdX2ing6s6vtFPB1Z1faKeDqzq+0U8HVnV9op4OrOr7RTwdWdX2ing6s6vtFPB1Z1faKeDqzq+0U8HVnV9op4OrOr7RTwdWdX2ing6s6vtFPB1Z1faKeDqzq+0U8HVnV9op4OrOgCn13MjlEAf4STQgm/1hT0GjI94GYx5RbIHKPGVU2UdwuQfqnOJfJm35blUOEVuvK3bl65dwfi61JMBHyjo4xonBtmaCTdEncTSKBC3jymG7SPKPnHAhZZllrRyw3BlCIfKM1DDoBJzkhp7UwAPdpI6K6ChklklCiVRNQg5JiHKOkDFEPGUBMYwgUpSheYxh0AAAGkREaTD9NSJC8PyiybaDEZAP17+uVu7a4O1v8AOSCaE4mTryj1iUmQhbipqjxEdFALiKDoHsTaLhKio3coHFNZBYgkUTOHGUxTaQ8YyHVVUMUiaaZROoocw3FIQhbzGMYeIKIBpS7KZsRyTkj7+JZUQvKd5dxcif2ux85SfU78hclCSblKDgn1SKhoBygA9qbi7US302F9Hl4pFkUyiQF7rhL9q1Hu5QZF/EYfGFmZFmPZSLwDIMwD/LPkiZwbyJgby3UHV8qJbjyLghb07wuMVkj1wNSCHlE48prtHnOikkHBr/1ph+pLZQ9ubgbkVjfbKap5ZMO1SfNCLei9dBRvd/t1JQZy91RV+kb/AElYLBxeWn8BrUj7qp/Aa1I+6qfwGtSPuqn8BrUj7qp/Aa1I+6qfwGtSPuqn8BrUj7qp/Aa1I+6qfwGtSPuqn8BrUj7qp/Aa1I+6qfwGtSPuqn8BrUj7qp/Aa1I+6qfwGtSPuqn8BrUj7qp/Aa1I+6qfwGtSPuqn8BrUj7qp/Aa1I+6qfwGtSPuqn8BrUj7qp/Aa1I+6qfwGtSPuqn8BrUj7qp/Aa1I+6qfwGtSPuqn8BrUj7qp/Aa1I+6qfwGtSPuqn8BrUj7qp/Aa1I+6qfwGtSPuqn8BrUj7qp/Aa1I+6qfwGtSPuqn8BrUj7qp/Aa1I+6qfwGtSPuqn8BrUj7qp/Aa1I+6qfwGtSPuqn8BrUj7qp/Aa1I+6qfwGtSPuqn8BrUj7qp/Aa1I+6qfwGtSPuqn8BrUj7qp/Aa1I+6qfwGtSPuqn8BrUj7qp/Aa1I+6qfwGtSPuqn8BrUj7qp/Aa1I+6qfwGtSPuqn8BrUj7qp/Aa1I+6qfwGtSPuqn8BrUj7qp/Aa1I+6qfwGtSPuqn8BrUj7qp/Aa1I+6qfwGtSPuqn8BrUj7qp/Aa1I+6qfwGtSPuqn8BrUj7qp/Aa1I+6qfwGtSPuqn8BrUj7qp/Aa1I+6qfwGtSPuqn8BrUj7qp/Aa1I+6qfwGtSPuqn8BrUj7qp/Aa1I+6qfwGtSPuqn8BrUj7qp/Aa1I+6qfwGtSPuqn8BrUj7qp/Aa1I+6qfwGtSPuqn8BrUj7qp/Aa1I+6qfwGtSPuqpGCKXulXfnHoGOT/61PmMHKkyZgQbvI4XWPd/t1Gg+XLxOJM3Vh7w4hBIxStCmDugmA1oANAAHEAf/Scr/8QALxABAAIBAwIEBgEEAwEAAAAAAREhMQBBUSBhQHBxgTBQYIDB8JEQoKGxkNHg8f/aAAgBAQABPzL/AMTkt1ZRaZFw2PqNR7+kgmIM9xMntrPgvDyCJk5j6boUKFChQoUKFChQoUKFChQoUKFChQoUKFChQoUKFChQoUKFChQoUKFChQoUKFChQoUKFChQoUKFChQoUKFChQoUKFChQoUKFChQoUKFChQzQ+Ck7clMVXfTQdSSe/c3LjfTyGJdJMDB7eZzJoqVwwZuWtaGgmpFWCqMSCIPzpn6gQ8RJdAtkE4RLaB5kOYeAx6IEW48yzJxw7QfaXxK4tFRPUv4trEMYAAPqN7rq/pYVbmqXalb3BKkIaC/MmnFC+ALIC9MC7kpnfcHMFfQwfUoeLBrVELFFjp8CGbOnxac6Y8x4BKtA2REPlXBq2yzkTQVyY2cQdCxP+eqKlY7B0bXxS1aXIY254v6azMzMzMzMzMzMzMzMzMzMzMzMzMzMzMzMzMzMzMzMzMzMzMzMzMzMzMzMzMzMTIQSo3Aw7z0s8sciYJAFiU9K2xEMGl+StbWssC9yOUgjenmNa9sIhFbybiPSkWIh5J28ZHaaQaR5P74ARkAAD6dOyB4dZgBs0UEkTBRiiC8SQdNGKuOblT7dqxXmNLYX2i+bs+/RA5bBE54QDvEvQIAABAKACgD6gOOajQ5EmJUQnQsagUegP8A1hv5jNNhwAEjHKJuRt0OcVnZNEvnefqFTFM2glAW+WM9jonulse/G0k9vMqGAhAlvdgl5YPqVw/NCgyhgKgb/wBsNDZuB8Nm4Hw2bgfDZuB8Nj3D25OoDX1CcOHDhw4cOHDhw4cOHDhw4cOHDhw4cOHDhw4cOHDhw4cOHDhw4cOHDhw4cOHDhw4cOHDhw4cOHDhw4cOHDhw4cOHDhw4cOHDhw4cOHDhw4cOHDhw4n7OtOUsKxj+xbHwx8MfDHw1q8IcqBpBRI+oXLly5cuXLly5cuXLly5cuXLly5cuXLly5cuXLly5cuXLly5cuXLly5cuXLly5cuXLly5cuXLly5cuXLly5cuXLly5cuXLly5cuXLly5cuXLly5cuR/cBspeEQWx/f8j4bNwPhs3A+GzcD4bNwPhs3A+GzcD4bP+TG1B3sP51SA8rGGEwxrkxAAsg2mheZIDzEtQk+ylwPhsz+KOZk85lQGuJyaY3m9Q/LpcTqBOQgJUD/AM67nAw5tK3n+tguGzjDcSOdJGQAI+o36LjUQ5JJHKGaFVL9kzgfDZzlDZIwlNLOPO60ltsrhsSQQ3KysU+CMYmllFiIqwkOavI+xFBYlHPsjnA+GzisjEAYBskDcwE6pZ2q2qb9XQfqylfhHUavLoHZXNfqJNGVcfdOUJm2o8cbk0TNLKmpUSAIGk9kTeFkImf4Y1Jb4o758+fPnz58+fPnz58+fPnz58+fPnz4E/lgEgTA6cF4AMST2eIclWnWhe4mBqQwOEecocD4bNta4xAlSuyLdtNClYh5h7jiigOldGhIXHKRDT+IFmQCQBKnqfwO2OBx3oaLfLxpEsoEwUxVu3w28cQWOrhp5GbecocD4bNToSUo5s+iRt0gkKKGWJK/KVIyhuOT2JTzi7didCpTsWBBemlaMItpCCiIcaW0DKhgN66euHNczoEJZwiTBgR6I9oSIfMuVf2TxraZgKXXAUnZIyeOTHAMtKPHqt5y3A+GzEitRSNiwkjfbz0JoDxkV8c0pDbRBN+GSZhGAOlbQAJEDbfpj7IpEjGFOu1lFiU9CSdA3RPLdgrdR7+MP9ZDWCmKoCSrWv8A88h17dL8ZkR8bhLBEnCO1DQMkmUe7UM+xJU843A+GzuadGx8yQwem1LKIwoCfWeuF+mPUS9+cUdBIUEPQ9cM3Z8cQ8I3yZ53uPGS5cuXLly5cuXLly5cuXLly5cuXLly5ct1DieEI/zMF85XA+GzQXsrMIZ3Fu3RXLZBGRBQBJG/wCFGRvHfOCO50Y1FNTJBUxsS/Y84Hw2aWpSZY/2YcHRj/u9I5EJ9j4CllzMSQT2Y7vSP0B0jBNJTZ9jzgfDZ1nXQ5uiyq7e3RjRGMlRCiW3h68KOQpcIjATO05dCGBC5IKiJYkXB9kDgfDZyMZCiCTu8FTlY6JhMB7TjQoim2oCs5KCmBxBhOlTmXabhjmbNEyxMcp93PdUQQH9UT0qng9S7m+yA4Hw2cJ0RbPDWcmXB0pTJyTDK6KwDmkawVqSWdrPdYEgAQlFiJSJoV6SIvJy99G3QRULRSlMh15agFEiCCY4qgOirxzBLLsFKyvsgcD4bPFB6ueQ4YbgvRUnZkMUAsgYokhelEw5YrWw8uhQTgmoKTwdTacqtJNYwNkB4v2ROB8NnEquHTEDmRyAaWe/8FWfzUEfDSs1eXPcCQaLJdIH2jinBCJd5jUEHhnTReVOaqUYDT8DPpCFYgjk0QqG2EDrYVuz5VQoUKFChQoUKFChQoUKFChQoUKFChQoUKFChQoUKFChQoUKFAxb5OHagUvRV8XIQCc1pcMOgSABCUWIlInm+4Hw2eQU8MoinOGWVGVLj3K0IcLDIkGC+BVxQPigdr3hmuPmZchmJy7AEADwxOKarKiKmSO1R+Wz8ze1yRvuYGoPOBwPhs2JQyCr1thrOwVrYloJcOBaSpGiNk3DVb/T6CBxZGAf1/UMmqIxpq9UouAaDZB9UTS3s7cSTufCJoEAAAgFABQB4gLjOVKeZe28vlyAKOxBKpf8AZecbgfDZkw8QCYzEBidQ/GA2D6s9tQIZhNVkkd8PGKAqfJ4k0hy5qmUzY+WpsSOKiEOzCt4n2AuB8NmiAAgSikRpE01YztJKEXh+2oi3ULrYFu75UlSpUqVKlSpUqVKlSpUqVKlSpUqVKlSpUqVKlSpUqVKlSpUqVpLpOEagVvTIbfjWA/YhKEAnzjcD4bPFuoApiyg2FaPXSlSof4Od9HSA1Ng0hTe2JnSIJ4EsMWcPsocD4bMCQSV/qq9dJsqiYhThB5TxralxIdoH/wCAG2p0SlOwQEtgAOlyosK/Yq9zQwOkEI2uo5s1FHGEm2Cjyk7GjxDPAlWjYT7InA+GzQBsxEpA6VaDSyWURjEESM4oBOlEDQR2b20rLL8Mx3oh2kyjKLd1AnL/ADQQot0SzSK/ZA4Hw2dE3TZgZkfZKwFDkHD7Uy/ZZowfG41JyG3BEO7bOYhAbV1f0sCtz7HXA+Gz3XH40RYfAlhEekiWrToBBUOM/A1hDwjZJZJOj9jBkKZDt8Bp7Eo3OMjKLMajBYfhguRH1PsbcD4bObuKcPKgOGAqAt1K2q8s45TFnZXpSKZKJQqsoAtdFLuVOezSE551CCFeZvolWOdGVGBG27mr+oJgRdtsL2LqZdwWyZZhwCNuIkJrEzdyT3OdXcy7pgL2oDZWNObPsacD4bNZ/tYQAXgZSS/SvDCJxWpA9XsOkW2eCw3BndESgfg96lDtDGVEScCaZt0wS1SWTiSlJkQ6N1IRRss6N8pL4OTABDuVAnyzOHDhw4cOHDhw4cOHDhw4cOHDhw4cOHDhw4cOHDhw4cOHDhw4cOFfyHf5ARYEPm04Hw2Yj0MW/wCj8MdB+wMzjCqpVtehFehMep7WRwzUBpBF5l3P88BPhlmcrEWpIEwNsdalzCxdiwHKJBAIf1lMmas4O9OzFjyIohFud4jwK0B82JaQ4VeWdAULtWbckgo2Cj5ZP3bcrEO2wWgCaTU3RYkqjRXeg82Q4Hw2eEJl+9JYB/K9E8mEICUwqQ5wXqDHHyXJHuZBpQ+IxOBSwS6IZBcUtOjlwqgx0UhGx6FnlbdFHOEm6fAqnkKYFI2lfv8ALrtZik88A8cebE4Hw2cGF9ogb2FLdaT3mzH/ALoegy5LMC5sLL7mV8dThlk89LDrlYz0M+Qyoxu4VON28C64dS9HuUhRsZfLlF+ooLQ9Gfmw4Hw2bNtlstef8GN+hbKOpIFeU7WkGwToqKDA+PQ4QhAV9mSk9M9sRh+neG8BCvAkE6FK4CIoKB0BMt33jMu6Y01QqH+JnPR+VOXLly5cuXLly5cuXLly5cuXLly5cuXLly5cuXLly5cuXLly5OgyQ1cW8QbuoZlBlZJR0y9zZbbeGRVbll0p82HA+GzXFiyWrhPyegDms4n+Rv8AOkeBO2rLcvVFdEiT78YjYut247R9izgfDZ1BhNs2+TB0COEJXF12Lje7bwJ0CfavhDxD26HxgvdCDNDPt9jTgfDZz9gyySUbJRxxL/b1z1zgfDZz109c4Hw2c9dPXOB8NnPXT1zgfDZz109c4Hw2c94JMcZMwou9fqP41+o/jX6j+NfqP41+o/jX6j+NfqP41+o/jX6j+NfqP41+o/jX6j+NfqP41+o/jX6j+NfqP41MpvE7obL+PCLmywY1gItr3BKCII1O8d2q2V/LK5cuXLly5cuXLly5cuXLly5cuXLly5cuXLly5cuXLly5cuXLly5dxdEdrc53AIXgSmWJMGcqo2gqSH7AXA+GznricVHUWhMPoseXy5ET2a//ANPZ5sDgfDZ9r80A2cbFwnPiTyFRbESeRJ6+AQeS0BFhxAny5dX/AFRIsez82HA+GzB4zMiOGQG4gzA+HBNuGSJLGANJLxrmHCxtsz38ABRqJAkoSIAWy9PKKlrZjINjI2KfLFhxkkgJWKsOXV0siS84VE2j/myzgfDZvfvlBDFbQrlCp1wfud3hUqVKlSpUqVKlSpUqVKlSpUqXP427XTKtW1m8amzpEBH3+EmiDwR8zJfHK73iNImVFbln2ZgA+VOHDhw4cOHDhw4cOHDhw4cOHDhw4cOHDhw4cOHDhw4cOHDhw4ThcDDY/wAjDSZqeq5h9Qf+ZZwPhs3A+GzcD4bNxioGG7hVr5jPBk+QJNyxFweiMWIMSn+9L9Q2GR5UqYcSzt7OibaWRHf1pN5jJtGjxF1xsH/fRUA3pTaxa6tuazZ9QENheLIQRJZsNdCy96xnxPb2c9vManCUShkpjCuva9GLkTwTRrwmmIlABsxEpK6RKT6dxbqbKDtM185ZeY6s9E2aQMqWWZjg/HmMHtwzrTTITc0r21MMhkBZN/GjpOYmf4aZqyzN2v5S9BRE9cfTYwYMGDBgwYMGDBgwYMGDBgwYMGDBgwYMGDBgwYMGDBgwYMGDBgwYMGDBgwYMGDBgwYMGDBgwYMGDBgwYMGDBgwYMGDBgwYMGDBgwYMGDBiUhFJ2qQvSZIQqCIe3PScXYE2t2kUxJWaNCw3FqsRGlmRXzHUlVLDlCCsdlQULcmXiJCSfUqL6gMbeSQBnVjGAxvLZMyUckK8yL/oobDNirCF0WP7oD0wn+z6jEeN3MaJsAKuoN6tiOmbdTPNwfMtNZ/ph2Xqx2kJ0jRl2pIhMRLYPqEveLulVC3JjsXqp9gSJIHpFhlEo8zWp7SiuQZTzru3ik1zA93Q9Qy980MfTZDx48ePHjx48ePHjx48ePHjx48ePHjx48ePHjx48ePHjx48ePHjx48ePHjx48ePHjx48ePHjx48ePHjx48ePHjx48ePHjx48ePHjx48ePHhuOHLu1dGhZobs9hU+vSBLHlgEJZLN8aBAAAIBQAUAf+Jyv/8QAKxABAQABAwIGAgICAwEAAAAAAREhADFBIFEwQGBhcIAQUHGBkaCQweCh/9oACAEBAAE/If8AxOSyrH2gEg+e+dH6+e5k0Gx2yXSlvrYVuiVuFuxM+muPHjx48ePHjx48ePHjx48ePHjx48ePHjx48ePHjx48ePHjx48ePHjx48ePHjx48ePHjx48ePHjx48ePHjx48ePHjx48ePHjx48ePHjx48UbhJA2BR4a3sps1ieXAUDlVQAwp3gaRmUaoGx4c4Z8m5WBFMEOAmfZETnKop9A6L6x99KpVVWq5Vd1eV9QLM+vmjW7kjEzTpulv8AO2+UBSSPktL72DOz5dLwVNCEGeWwHGQALAj1EO6vuMZr4QdFSFnOzG5iBmR8kypIth5VLJTM9EuVjj+Z7MABAAD1KlR1J7kgLBCN0BxFliGzwAhj5HsTHGvuIRqABXTBgCnlylQEQwdKs1qgETy9GTDiXsWiUJcDKFj02AAAAAAAAAAAAAAAAAAAAAAAAAAAAAAAAAAAAAAAAAAAAAAAAAAAAAAAAAAAAHnGzpoKpIEexqVZW0okwUeIj0noYSb4X01YUo1gQKKbEdwI5WHPyNsNuKcUTe2KQ26ZRunfLUHhi+ksZ4R/YmYhQQPTrpovKhJVCCI6scq8ae9yHkv0jbmxCqRYsHOCEfIzm8vBTyoEhg5HQc89+YX9mW1wB0A/4BEHgdAMB6gpbEU7zpJIRQejM6KSAsZJq5bGZfkXFIiL+Wbmqo6IuNxkG2NqhELDNfUASZ+gICl9IwrPRLEcNbKXZffMp8lYXNBOAJXpwZXgPUtztXdhostYEef9YbCDuLsIO4uwg7i7CDuLsJSi9p4cA6IOY+obly5cuXLly5cuXLly5cuXLly5cuXLly5cuXLly5cuXLly5cuXLly5cuXLly5cuXLly5cuXLly5cuXLly5cuXLly5cuXLly5cuXLly5cuXLly5cuXEAOSfUswWTu/0W12FdhXYV2EffGKvazCLlE9Qy5cuXLly5cuXLly5cuXLly5cuXLly5cuXLly5cuXLly5cuXLly5cuXLly5cuXLly5cuXLly5cuXLly5cuXLly5cuXLly5cuXLly5cuXLly5cuXLlobsgXr08AnuT/f5XYQdxdhB3F2EHcXYQdxdhB3F2EHcXYQdAewQnDzibfcd9YGTyPEyjlGTGrSMFaLcYCzfTQmEpJA8QouT6U3F2EHusrg0Ahwg3dDltiEcwiTE4TNLm9lCdmL4ENq0cDodogD0Rzy/MO+AFQcgQR2TRT1QRbBtwwaca59uWY8hp1X6TXF2EHm06gw9vmQg14BXJ3IKo9hk+j4HE6cMHLcBAENMS77gBBiNNVKRF+kVxdhBsq1IyDdpuawIpQU//ANbWwQTw7slYmb4yCPuDXBVk1XTK/wB5cQ88px2RWZLscv21cgUa3MvLQNwCxQVVVVXKq5L5pSpUqVKlSpUqVKlSpUqVKlSpUqVKlSbemZwhG6JkdEZqCximeKqErXaHx34EGHD2fMsVxdhBpRn9A2BPQFMBUNXddQvMCyhWFHV81hm+GCojy67JswFnrRTI3qKp0lWiB4qFTk+eSFRWIe2Vbsh7fPP9yBuFqc6Rg80+ZLi7CDUxOibmoaOEjlTp2Z2CEbgkF4DGgO7oQ23FSohkBqGvYjGx8+wDW20V0yBBpuhrC9BZmSbMhWHY6CI2gHFQDFSjPTF0b5NR1cOgl7p5zj6MyImKstKaeeKTUydVz8qET2fmS4uwg007SGkgQuAZ5KvyMpxhUBhSORf0FDYD5+kgAB0gSzzC8d2hG+tdPhJkyZQAFRyqeh57PTUDoKJDDx51ClPI32n6aO0zHKmq8hKZLAaY85F+4TwfsqfzCNCYUiuHZu2WL8yeXF2EH3HNRUNiYI2uM9IgEEkJvLySENyPWkQJBD2Au8qGwydFx2DRBP8A5NS+eUG6JqpyyPLcvfzho0aNGjRo0aNGjRo0aNGjRo0aNGjRo0aquGe2AOQM12VX5luLsIN1y0dg60Fs55zPQLxA0hS0yVgTwFcVRpsEQR8Yb0CoRRGiYRNkeE0gaRbCj3Dh9Hri7CDC5qt2kTgpfdegkbECLpmEdlqmZ4BKoZPm1MQOVIM9I6j1CITID5MP0euLsINwANuYZMwFVMKifkVCKI0TCJsjwmgb31DdwgrM089YbwkMzSUthKLordA5DJIBcyZn6QXF2EHlqmnsVEOBFSEfnDXdG7Tpa/HWCUKwqoEQkoRnShwTGwYdUATFCpL+mXgwwjCwOfoV2xBAQ/Jq7GmQT6P3F2EHeMkVjGoj6Kl2OhV0Dk78IMgga5g8jGnw72BTdIwB/wAAiLyuomE1Di6jhUFwbo0fkyLFk0Fr3eW6zq55oDEcpnhPp6DkcsROBQzgn6QXF2EHZkjIbKQqJBDAHTCPqT2oNtHdSDv5u32xLzv8rr+Oh5MT8ZvsHVS6BjCMzG1VcD6Q3F2EHYUmFChBWdB7RwBBvZwG2QiPhwv1t1gKuwuTSx04tqUqroQGQEPKhwIZ3w2yQlWaUlWBQMt1qiwch0nHFE01ti/z+q48ePHjx48ePHjx48ePHjx48ePHjx48ePHjx48ePHjx48ePHjLha7tWBjdnTtvpAhoSWnECHrPkB/wCIvK6iYT5fuLsIM44Ulp2JWMV0G5Typi5dRUdzwRphslPGh0nZC2Jo23yxQue1hB+X+pcqkdx7fIJj9dFhQsY4k3NT35g1cXYQe/f7Xp6PZM6skaCkNGiXAmmIK5KrA58eohFAS4SZkDkbm4gn5YbUfxxHVey0lOU37I2zdMSNEQFfgCMoXh4TdAP+ARB4HQDAeYLhWcb2NYh2Ryv65wx6YRQQsXGaOL8x3F2EGRmJLhgGgLO+kDPBEbIK7nJ51noejhDeuak4uxAAY0DHuHn+vNkB3UxxYZIvE/XNFFN+rqLpjKcD6AXF2EGA/4BFHldEcJqlaud5zv+rjRkOk+4qmitsX+P1VevXr169evXr169evXr169evXr169evXr169evXr169evXr15MLHtqQM7sYd9tPRIlwreXgSAnzHuLsINQKAAqrADKq7BpKEljssPs8uQaqlsJn/sAQ01LiZVBXTbSKyDrtKEPHijDY7n0ouLsIPfrXmKVxGBpdtWHiyy96vI5hEdJraLzYEXS3rgBRSLSPZwMH2IHSlMr7VhoKzAF76wRwZiFflLZhncUBdfAI4cbJzF0bVQxp6Z1CJ9Iri7CDfhv98zKkAFdXfscIZFqDINEFoTNY49+pW7or4QaXgixeLavlTGlbKE4H4/o4C/SA3F2EGZ3K9XwxpZZojl83yEjttwTTAr8UVCKI0TCJsjwmmEIUwWUxFezW0DDV9xrNfCP0duLsIP3HZFDZAZdLrbAsNCXQNjwMeATFFvCgHCuFLc6jZlmfbChS7XwMqxGABsI4ELBzUjW62mJdnMSiCJ9G7i7CD2JXUNxnocE0BeeuWfO5ktROlGOODqCdoA6iGhhA6WW8yDwjo5VAqRNiXBDm51i2kZqcoURXKLd/yELWgSFAT5heLNB34EQUrmZaAbNBJUy9qLgV7D1URcXuB4IXDzF1CAQRBEaI5ETcfo1cXYQd0+8DFXcVSy4DodlUj5QVbM9jQAIfJXyTKvmxHghA5Wm6mhnsu8ELM0OV34YUqJ0wQ4j81LLv0CIF5O5T2qsjB8izP6y5cuXLly5cuXLly5cuXLly5cuXLly5cuXLly5cuXLly5cuXLly4cgzLKtyVEGQny1cXYQcdJwjlXtWO3TRp1LkhAx3WUVz0Iiv4JgaO3o9EQec1Qxs6tNOrseHmi1NVKH0IjdUrLpoMUrjBdEZFvnsAiC1CubzM1fJzYEbiNWu8j5GDgmH5qcCc/FOMbJ8Y9gFjAAD9YENWA2GpGTwapo9GTLsQK6vllNi4uwgybqtikhoXSLIY+ivMjgYPc2GgCgTDW3AVPOYwHvFQuIn1ZeaIUIJojm3UXSH5wBHoSLRIKLACgCrGB5FwQiRCAzaH9cStmc3GqbH+0+WLi7CDz8oV3/7oYZCGXXv2/8AGTzP7vRiaI3h60gqZhrfG2AkK3xmYErro55jDIlELIYNyHkVlb4QNCPZdM2/XPHqkcvE9oG9GfK9xdhBhbQQP48jIcU6Ft3FHGzL7lrQAXHB8oMZZl8eepGwmM5XqTnpVObLNr4qL5yy48gZk8oEZZ+6DGAU3XGzMKvsjLaLJLDR/wCwJD9VLly5cuXLly5cuXLly5cuXLly5cuXLly5cuXLly5cuXLly5cvBawJu7W8I1wZQ0P2qWTJW8StuaqtunQVJZ8uG/yxcXYQaHhs5cTlguX2c/mTf9BJ07iJBrA8i2ASLV4hUBxU6HFIbQKZNhQxMn0WLi7CDXCoGgH+RfYW5uJ+VLJdipeXH91UYXkRAmzcBlGAZx/hHoSWHqnt8nsBPo0uLsIM2c4FQpzKzw4Ut3/XrNqLi7CDNqDai4uwgzag2ouLsIM2oNqLi7CDNqDai4uwgzaaXeVVp3TlfIpUqVKlSpUqVKlSpUqVKSoytgAkITYB5RRAwRCB/kwui+2SGQtLipbeCuBL+sly5cuXLly5cuXLly5cuXLly5cuXLly5cuXLly5cuXLly5cuXLlrfIYpXMUG5w0G88BEN1QlaaRPoBcXYQZtRfvnBP3u+hRN/XG9xQKDqRUFXBwvyxcXYQaBAS1xDEMXcI4eZYouBcJ4Xw4D38gnL4qwHyuptt+uFj7qMZi8XDc7D8r3F2EHILUew+n4x8woQUPgNjySAqur5AwlMORPAT5AlPKCUnHSoJ1w9VT7rst2VUcD+snfrKlH4M5KDNT2ryEIb0ROwfLJcXYQa+3YXk7DRJUGrZpKxRU4UJP9vla9evXr169evXr169evXr169dJ5dm8LhBioXhFIhdd5JtsrQxvyUD3026mr/M99GSmh9SB0XBhgA/VXLly5cuXLly5cuXLly5cuXLly5cuXLly5cuXLly5cuXLly5ccmSp2rBfHkznfRd+n6E2X+V+/wDzLXF2EHcXYQdxdhB3FhGKhHZQExlnyNdM3VDn/dB0TtZcQXIUTtxv4PUFGFyVovzmDg2VdHflJPH23HNmwsH5FM/pjstxBbki3gdBuMjXNGNQRw2aEAgiCI0RyIm4+oDg5iZCRkZV2mv5roL6LVAjODc9j+RmJ3b4aqKle76Q26+TcMkzZ2UGg+G/3zMqQUU9OqBQAFVYAZVXYNZCLvOBM9RXYmiqVVVquVXdXlehH7J/svxABnKYfIoF1R6PizMRJoYk/wCIsidACwBdKpyJU8rkK55vdGzGHlmO4kX7Hj01+/fv379+/fv379+/fv379+/fv379+/fv379+/fv379+/fv379+/fv379+/fv379+/fv379+/fv379+/fv379+/fv379+/fv379+/fv3788TO/ajYLdzj3GuGRdYmBtSUL0lhUj4hrsPPSFOKxowtMk7yyX5HFYKpVNAoFC9nVeYjRBaAEGE9SgvUZBDAoAqYamptVJLGdLTh8kzhU7w30cdAEA6qss8JbCeiYiCUR9RlD+tDU77JgC628Opk5I2C4R+S8VoJOEXLD7QbQ7zT7f1LYZp5Z9QExU0JRmhi4DgH84lzhgJN0BPk4TjWzxNe4v0JUDY/IHJgXczjTrZBsxWcsLxWZlfTU+fPnz58+fPnz58+fPnz58+fPnz58+fPnz58+fPnz58+fPnz58+fPnz58+fPnz58+fPnz58+fPnz58+fPnz58+fPnz58+fPnz58+fPnz55ozY7bA1XLs7Oi2Xf4NyFdyPfRryYlkdOYajhAD/gEQeB0AwH/icr//xAAoEAEBAAIBAgYCAgMBAAAAAAABEQAhMSBwMEBBUGCAEFFxoGGx4JD/2gAIAQEAAT8Q/wCJyR4I0ii7D9qiDeXn2PsA1FiLB9Y+pI0YDWMvVQFj8bZMmTJkyZMmTJkyZMmTJkyZMmTJkyZMmTJkyZMmTJkyZMmTJkyZMmTJkyZMmTJkyZMmTJkyZMmTJkyZMmTJkyZMmTJkyZMmTJkyZMmTJkyXCJDTmIRRQoDG9nrqnd1nESK4AqgRgGSpQaV3O2s87VViR2XFRhHdf9BmawBEtwzn1IqCqGq7X5BAS5eE/wAAAHZsyBP1xc3R7B3co44mfSPVHKEcyOKAnVUfI87zngW0SZYoApJxwpm0QoWofuSAQ95IOsyLsVAPYucIvRWflYrRvAR8kNuz2DbkVdoBz9LhkLLC+JIruM4hyQrlA+JQBc4OBEnWkBXTJVP0MBwelO4wtRkE6HqHLJKGQHxuRERERERERERERERERERERERERERERERERERERERERERERERERERERERERERE5Qg9GcakjFGQq0FJiGL0aNpvHSxBwTxAFar6vgDCaYvnqMhiAE7jctuKCjtQnS9SdDJSO4LuqbLngh0osgdRFtgAD46nAhneBbJOERwOYsygGFPlXSclWuoHnYQBKEW7i6BCCJCNExDxgX8vkYxGTSV1ehoA8FuNaAAAACfIOFCDDhwyEs9PzbXACXkVU7F8u4w7OSOdFepVE8D8gmbJEYn0Yhg+QzbgdcfGkEIjoDoFZlpoGFjkuSdyqBTSXjEgQPozcB8l9/xz1+poACoEp/WGoM/dugz926DP3boM/dugBPAvuiIIYhBD5B79+/fv379+/fv379+/fv379+/fv379+/fv379+/fv379+/fv379+/fv379+/fv379+/fv379+/fv379+/fv379+/fv379+/fv379+/fv379+/fv2/mJiKBg68oKgf6LVuhboW6FugFPnHjVADGKg+QKFChQoUKFChQoUKFChQoUKFChQoUKFChQoUKFChQoUKFChQoUKFChQoUKFChQoUKFChQoUKFChQoUKFChQoUKFChQoUKFChQoUKFChQoUKFChQoUAa8gyPwEhpTP9/i3QZ+7dBn7t0Gfu3QZ+7dBn7t0Gfu3QZkeASVeT6XtJyKVRxPYJdANgqOnCikbgQrFBNBQmIAUBE0OQMIcj9KfdugzdMr8UU80alAyUYTtq7gwYyDztmDSq9PkAAVkH6DPEPIwgKeV/Ik/Ee3kVmwgnGLzYjgtQ7/DyNZsktwUgaDP89fpL7t0GdBTL95lIo3sxdsQMZ9u84R4KHAUJDJyZCLknEDtXx9I/wC+tkTJ7t0GbLEc/NAAWIyzYKxANgACj7L4frpWVCcAEolysuSQANpRiKUBQF51gAJQPTyQvUWidygeA6C6RMV6HnzlAKGq7XzRs2bNmzZs2bNmzZs2bNmzZs2bNmzZs1OktQzVfACImBxNpiSto0Y6nHAZHGTme73l5PdugzR6SYvmACD2IUUBJThEFOp9SHEcIVW9MgAus/wWS5UOAhENI9VDKMtGiFbtX89SKom61SmJJZDPOoUB4VS+pIED3lf3boMzigNBVZByd1V0aAVJhMBEmTfNK0DFtUMKysyCDqCBhrw0E/WQxIhm7xByN6wxfrKTb9gKURZwLumOSsLD0zUJlXCXSTsAFVNHnTY2GA0w5okrPPEoBp7hCepTLKd5b3boM6KDBjGfWKrdB2ppUZhB7hFJTUqAbbfe1wHTXwoWq2QMocpaaQnk1ZmarlH5gGFBGWMxQZPnZM7EZcnzCDLDyDKsNVL2OQSKF82bMwuAasm5UYhPZpRnf4k57yTL7t0Ge+GWFBHHNCO0HSLVRBIgjA1gKx6jwAXwc8VkMugIJHms62CA2B6+eAA5r4TuJ/eba+bkSJEiRIkSJEiRIkSJEiRIkSJEiRIkSJEcREMukiuqLFe8nu3QZvNboHx7wB5JMHQtMN+APA0FA2h4AFwJlEbuIgQFOgwzn1IICKCibHC6AoNk1EmODX0e926DMSA1D9V2T6Z6XRzzD/8AoEBLLRKOsECBmnIUZAKFA9AJgBG6JsEQKM+j3u3QZyYgWVBzKkj0ajDOfUggIoKJscniQzbAtXVvQr1UugGHqLY+tGH5BWtKK2VBkUXJ9IPdugzKxUJCcRrMToIzaliHbcvOCO446AkMlCAJbZD06mKggLJWYLArjgOkowR86JiO+VhXW/pWxOvpAD3boM7uEfO7ybkDemIyRnpSUFN5vizQ49aCYCw6oHADwW41oAgoEZiPGLfi7AUQBzg9oRSNMwGTAyZKaSvBAdnSqDcqeERLm1vDs/R/3boM7BnMDt0CUjdpVCFPySil3D1H/YUxfTkx2uVz/Ty7HzFxpcB1G2MI5IU2AC0+kQ+7dBmziyHiBt7M6IAGAYb3mg5tcweEdYH/AHE4AJA8ZLLILxCosD+WNYAFGQWYABtgo7ZQVygCgT2HGuEARIkPKEIgile05MmTJkyZMmTJkyZMmTJkyZMmTJkyZMmTJkyZMmTJkyZMmTJkCEgUGEB7QqSCmNSpAkJGKDxwcgPBbjWgCCgRnd/3boM6qUAkRXnUNexEMRLR25ZBdF4NZc4MK1e7vp5fcY4hCv5jt8uHH5yzLqfRC1Aj24lzApJrGzqR2fd/3boMwlEiQkVqM4AkQcmPbvjaaAAY8AEpmbqaKlKjPDa2Pa8OglhyfkfDHtwFBKA65wzQNF8gJgHFYZSOX0TaCNQ9yA8FuNaAAAACeYIUoPqBHH7c326Cwmif1GKC1ZCO8Xu3QZk6AGOhsAAQF5xa3GXiJaLpPrnENXCWt6gpUo5hzqMxEAmC7L35sqgjO7IIEy/twVzameh9QUFj9AR926DNB4Lca0AAUIkxqJnqD5z0U2hVDCAplWHkAFA0WPaYcOHDhw4cOHDhw4cOHDhw4cOHDhw4cOHDhw4cOHDhw4cOHDhoCSCzSAdiVZQRW0CJY+f5fi6veL3boMzoOeHKAACq6DP090RXGJtLyiGL2oUIDduHP/3jwdbpWjoEEgJB6qZxgG0KNHX7i/Sf3boM6yibGJ1KwnSC6xbDJtR6WqphQLMxaZR5BJoZrBQoh1DCQAUAAAdKavGyEAqQTkACGl8XCNswSXpIYDEshO6OEmoclwKpHfbIRasIo/SL3boM3TKzVIVW0CALgiTa7ZgT7BqRpKA/kJ4AgonhrEwU/rGnwXIA6w0s2LNyMZEf/wBH/dugzV6rmVvxFIY5ABAwYGUlirnPG9mGc+pBARQUTY440HqT0SVo1vJRCmTLFAFBPHIn0d926DPTifCDraMYmPYUSKkkigmnHgCmy6QoiSyDQApsxKvmChSAEVwpb4NKVZEEgghOLKdHj4IJQBGR9GvdugzcezNfwI2pldnhImoEUSvLdek1YLst/nBgCoYZIAs5xcuEK9MneJKRtfMBAWpTSmi2IWi8mk1fwGcxI7zlJF6rJl3BLZkahaslyLCAIUjoLxO4V6Z/6FAoe2C9yBYOg54cICAaJpPo17t0GcdYXb8F5OjpftIEQiMe3LfRMkPSRYjx6IioAfAp7JJVH09nuGEU0RO9Q02Xy6bmTgW6TS2b5MITvVGjph/mXYGKD7X79+/fv379+/fv379+/fv379+/fv379+/fv379+/fv379+/fv37eS4U0W4950bd2vdugz3oDOYOwlPSylP5AO4w2zqil6B6OlXlpE49uDrRJ5BOLMrdAB4Smne0QaxsAsdVzKo+I+boEev1OWKGExPhu5KK6uPbNipynk3keJFC7oXlAocmKQg5bQm2YEEe1gnZE5ASG+xOrSmKcOkpCN92UPdugzA+628k0ZtluhTAtWlMSFhiGz7iPOUFyx+KG6mRoRW11FPuDCGc0Y48ZHnAidE1ig/lcDWKAHkEtI5wsVvBBadr7cAovlF8wWVKOfdj3boM2jQBmNGihE3oD6qpyhxVywdvRGOSum6ArQjn+Ov9BtYhMGlz0h+bmibUIJvVCig8gpYGIxoKHQBAvbZIiRhE4W2iMruwvdugzhWUr7WCIRKCRD+a4UdbKRAXsbgagUvet1YEFdvjzM8KopwVjSE2Oh7TCKPEDJkJQlDyDIIl3h6FJSLEkzZcbgaaIys2C0LYBu1Ln/79qUKFChQoUKFChQoUKFChQoUKFChQoUKFChQoUKFChQoUKFChR+w9EaHCc2uWYqeU0qp4IP5EzsbAsVaSMDDYO6/u3QZoJIesjBoNSBkXo2xKs6XXaIlS0PIV1syqQUKsBSAIdCfxVTuyYdQYn6LPdugzqoFQWYtBIVsB0RomMSIbANXyOuIemRA+56I2etj8pdRhh9AorrADY36M+7dBmcN2vAVIFXyiA2/r1HLXu3QZnLRy17t0GZy0cte7dBmctHLXu3QZnLRy17t0GZziZAR1ElUGhryOPHjx48ePHjx48ePHjxnZEyQkoVyyNr5S1YOpIecKxlD9prTVNDEh3YFD2woUKFChQoUKFChQoUKFChQoUKFChQoUKFChQoUKFChQoUKFChQoEeKbTPhBC9XE/8AUAYViUVofQFz926DM5aCOaQMJjLDWID27R4V4NnOBLCHdge7dBmTV6EKcEQSoEKeYE2dhELxENovDyASnNJ/dnrki2b9tleXOowDCds5o7sP3boMziI1EtGmbxnmMAgcA+ve/wC4DIuKH+yaAtloAeOuICZ2lEYPwGQFR3I6throm+13mCyHG6WgHMslMpe+feZcvu0h926DNzCT2HmL6Y+cgIWmsEMcgA+rz5WHDhw4cOHDhw4cOHDhw4cOHD/jxELNjIUVWF4ZDMaiDF6u8k2k1a8e6rYxGi1tOn1TRRJCCAPaffv379+/fv379+/fv379+/fv379+/fv379+/fv379+/fv379rh8DiQISwOQAAktxhHGkWqZcv/2W926DP3boM/dugz9gqXE5p8YgF2h3Gb5RG80Al7Rnm9DCYMLjfRLuhGfIdbCgQPHVjcAhEfkaEDFV2k0hiNvca0xBbg5OfICxMB+QNK7VcR11BFwOg54cICAaJpPkDPQJtQhnfRiCCKZCwD7JGEr3GILwVEFhgCjYSdJF+I+c6/5lywjTKzVIVW0CIj8dOg54coAAKroMPsbupKeTGuJhwzn1IqCqGq7XoAgLY39YCCCiv3GMyZYTjMYzKEXK9RdIGjtbSgOgk7NzW5ZYGRDpsiVHQblVdGBtvxtdu3bt27du3bt27du3bt27du3bt27du3bt27du3bt27du3bt27du3bt27du3bt27du3bt27du3bt27du3bt27du3bt27du3bt27du3bt26ivWYIpuKiCjDTDReAIkI4hJ3T0nyE4jeJTbFnIUSo7nT0uDcC57jPcYA7JYmCE5k5xn9bJyqfkoBAqFFh1TFAqGaU1EOZwLs+O5OIx1CPaAe8MkhpPSRUgJhE0LUfImSASCc6WYbIMIuAlpcPkjF9yyl6gnraEUSTjtTlookjtzpHRB8hjPK7/OZq3M2vc+tCP4wRVO+lSFCey1EQtwXF2Yl3ydQ0NSYPnAgWmgKW9uMD43LFixYsWLFixYsWLFixYsWLFixYsWLFixYsWLFixYsWLFixYsWLFixYsWLFixYsWLFixYsWLFixYsWLFixYsWLFixYsWLFixYsWLFixYsWXCQCxC7J9C+jA5xAaSvokBj68MUmQHFbGSixiAPBbjWgAAAAn/E5X//EABQRAQAAAAAAAAAAAAAAAAAAAOD/2gAIAQIBAT8Af/63o//EABQRAQAAAAAAAAAAAAAAAAAAAOD/2gAIAQMBAT8Af/63o//Z;clipPath=inset(27% 31% 27.5% 30.67%);" vertex="1" parent="1">
          <mxGeometry x="98.9" y="469" width="102.2" height="80.87" as="geometry" />
        </mxCell>
        <mxCell id="WmRn3ag8AA0C3TBZO2lk-2" value="AAU access card" style="text;html=1;align=center;verticalAlign=middle;whiteSpace=wrap;rounded=0;" vertex="1" parent="1">
          <mxGeometry x="110" y="549.87" width="80" height="30" as="geometry" />
        </mxCell>
        <mxCell id="WmRn3ag8AA0C3TBZO2lk-6" style="edgeStyle=orthogonalEdgeStyle;rounded=0;orthogonalLoop=1;jettySize=auto;html=1;entryX=0;entryY=0.5;entryDx=0;entryDy=0;curved=1;exitX=1;exitY=0.5;exitDx=0;exitDy=0;" edge="1" parent="1" source="WmRn3ag8AA0C3TBZO2lk-3" target="WmRn3ag8AA0C3TBZO2lk-4">
          <mxGeometry relative="1" as="geometry">
            <Array as="points">
              <mxPoint x="447" y="540" />
              <mxPoint x="560" y="540" />
            </Array>
          </mxGeometry>
        </mxCell>
        <mxCell id="WmRn3ag8AA0C3TBZO2lk-3" value="" style="shape=image;verticalLabelPosition=bottom;labelBackgroundColor=default;verticalAlign=top;aspect=fixed;imageAspect=0;image=data:image/webp,UklGRhAaAABXRUJQVlA4IAQaAAAwdACdASpbARgBPjEYikOiIaESCc2QIAMEtLd8JDkc3d6PuGhisZ2ddv6d/yr8cvef36/Z/x//r/Zm+IvXD93PsMvr2p/xv60fav7R+1n92/dj76f13+c8HfkL/eeoL+G/yD+s/2H9m/7t+1XHzbP/n/tm+Av2e+cf3n+8fs1/b/3f+wb7L+0ehv1s/zvuAfyj+h/4P8tv8l///sPwHvs//I9gL+V/0j/I/4n+yf6z/Ef//5o/8L/E/63/1/6X3PfnX9q/2P+M/xX/v/0n2Efx7+df4/+2f4j/p/4D////L7s/YL+1XsU/rD/zPz/K4VFgywZYMsGWDLBlgywZYMsGWDLBlgywZYMsGWCjhJBTSO1HrAeWB6+g4eOk3doA0nF6+5DNHQMLf7P9n+z/EKlJRiAq71oxhcCDRMflxrR3I3YDWIfEPiHvCcTNDWiaboqK7+gVnviJq4svw0JK6B5CHH/KbCOcQm+QCmBUbMzbLOLZIzDnwk3FrdfbGB4k/BRgjA4+rdCtn2MaHomri0EfQ0EXdID01AScOFEsE/D4FnaPVhdVXog7Z21YOyDvlJ8HdqjgGV//AD/inzJUfjQDJx2lxqEOAA65KkuYcnteWAeZHS+tym4UPVj+GiYUZFaymNIxuPzvqBBIveLYvQi8aFR6ZzR3OZBjUEuos3Oi3cgah4TAcDZks0EdaCWZIWQlCiFZDmCK+qDgakScd/eaz5DN+WdK7rMPe72T/HBWPWe/W2LAb24soXG8p/vPhnu2kejuis6Sca/cilAJcuPRsEV9UGpMwHRYLjadwzkVJZ+i05bafL5sBR6/jg37JtyxCAASTiNbAjT1idUh8krzyND/mJqU8iRYVxzXRky8y6d6uI6C+57MMf8KCWb/FfbK2ysyA6NBtjpb5XbDOP6gAgZtn4uXAzXl7I946YqEAeMiEUCI47AGEQJZ3mB3uk5ZfxhYB6znlAN3pTZ4xPgRlCZRl1iSCa8LvnF+QW8K6KqmvHvXHg0pEIE/OzRSFLyObWVOjtDP4DK208K4rfYdgjAK8TSV2U8L/c65zRvvAaouILNpFcHoXnwCDEXoxgLDZywZJo1p5GnrT1p60yrx3k8LsuOOxkRJDQC0cQaBbtjicXB6ajZRso2UbKNlGyjYxz4+9wYNy8lZT+ohaVXQzMF8GrnRTp9serWg7mVlcauNXGristNoC2G4DrTBp5vhwLXmtgo8xwDStQkfSSY3jPKKR3ql6z/YgAD+/ToAAIO+XhgfOjHFZIjYvrWbVovgxzvowjh9DVcFyXi7QB9JgVoid0ZFvmSR6/RU+FVJs4K58M2KtBqeX5tNIhAOrG1QvJ+Vf5wGOrJ3pQ8Tfa2odimpqLkM5pfxGurvJY/dMaC5JWmrdP/pXLpp9zfzfTZ7/1q+Ol/nF4D5NSXG/wPgiUjaX7PsKoz9E17HpBzpqRYbAD8JO7h99af7302Lce1kSIrC7sgzQ+Z/hsfMo4m20zIZT8qHsU0ZeiYQmcxe28u4H+jEhaHMp7P86aTdJzSN2u4DQRFccLnksKlbYHec772KYdRldy46eFckLdfVdFAOM1e2u0kvaQIvWTty0V9fZqlFzlULWMU4n1Ye49g0GcakUGWKT5/UviXfAwZ4Uaczu1Vuh6psuHHJuxSkCqMHxVYBr8jFZ85TQRdSQgD9iLf9i3aaoYiHxSW2BGW8ZAizzTB3ocRt2oLkJmN036/kaMcYmJ8zARK8nZNpGT8Du+/7xiG2qVS7cvv62dWZnanZjSUO9lgtHIk4HDJ5RoAHNW1NhT7LiV+BD8Ox+6XQVrRqotmBwWXq+tmpgW6eoHBNkGtmFcdNIWz9rRKHlgedJ+QVFXz34EuvdK++ojLiYh2FZB/WequjdUO5oDlbLxWZmiq5V53aOa5+y36WXMKPUJOyBgop7XrQ4fqDBfoep0EQywCV5f+Zj/pjdObXZvT0ktIqhZ7OUBAFa/4yXls+h5o1vRtodkAF48rv8wxBOGkh9ukDu+j+g7gI9fBqQ6HpKdPDXUVMJGhpjBEq26eTabYSSR+GT7NmxAV08GnjFGPXVe9jadyoZ+bGGHfhyLbn8gvs4pWQWG/d5oNpyNavstyW2cayNybuOnAbC0fA4Silxnp7z2Y2pFWf9GmGAsyd1QS/xlvRMY8KmK+CzRf33pdeXyWtDgm4OSTe65ULFWOW/wT4RJiQPc39CYLwEeWvsANrrgqzovXOCrUrvqMfEZvYfxMdYYIlZ41bqDblE+HsfqCAWOaYUHZpdHXnFUAW3z05RcYDaTEiwwNIf+D2WRsa4pXXwcJtTev9R9Gef/mobYdGnaLSufwj65Torii55dWOaAmjxcBDiWPuellrnpKJnmw2arFlCgTc4Kl4QqFtqM7yEmZVaLqJaDw6ysXdKD/97ooNF+vf3LsZdC4a+fHaADd85lYxW5NrKZR6T0Muksm4P4dxhCSgZmAWyACV4xOXRdMLx1A7eZGRrUuH/2c8hRzzTRdUzHQdYCAJpE8q09iS4UI6PwOIa07CDluTJ8cnE4Hzo/NpAXszUl0C9Y/tV6zFcnRodMYzweGEikyV/LPE0xHoBM5dSlWB/zoGKh6yTSTPKohu2gu0Q6Z82RVa3bfl7k1iykOZMmXwX+C8A7DI+iAW6FJ7XNhBuXKiD1xFBHKSS1YjiP8hXw6FuSAfwRmcdrztxFy4uCRR7reLr6NvnLufv4+oUtPNAEgjM5sBiuCeWnXAdvtjsddTYwKeU9gsLEgSudlxliZ4s3eGEWoiW2uZSkCvnqW87bJpufaf6L7fpWxzYVvYAor848fIRaIK8ojlXReRjzo2XS2v983oVi6qeligVyagQilffCCJ9guhDZ/2GAo1BzNQ756b9qIY7iEevOnTphhk86MuYHfhnBUlwgcRO2BhyeDsTmklA+LkYlB0kgzXClZfz6iAgbDri1HWVDbHSrg7zSIDfKTWAhee6oeywkG8o0wpI6YfzmA/FAa0D4evH5TU4QFR5YweqfSTCcPaSrvSanzo+e+zX3mFmXyDjb1KiKSeDOcyHL6VIYUeUuHVSYumztIgg5sxCThbOYsdiv7A6/Rbx7Qfkmz7ZMeoRTMe4G/tQ2JymNn6p4ndEmlbjEbPL/cCM4zCARsvxlPOIGxfG5YdcYfBTu4YhRNHF6w/1wgI5RmoBd5JMDO11it4wCg31lKjSqjjG/kWJ48jMNPIodvb47m6JnZPqKlJW7gBDR0rv5WMfMNHKEFJ4tSqj4b9ag79mP/MSdNLMwGq0+PiUHSNFuuU1HdLxsci8SrXqvRYutigCymuMZErneEUhw1f8y+HzAjyfrv5m3+Xww2FEZB6jcvnaKZGEF0aU0cwLHgg58Yzl7V23kgnhKK6SXP0xzAkYhyqv6kw6u9uvTfkKrKnirczOqYZEqwW85zqC1cGO0yVwqIuaFUSz/++l9nCy6d+ff6kv9B5ji+j0GPKJciBAxX/TAXz/dvP2aV32G9eF1g5PInd4emXHYG5MahvPT9xSZ9Im61iy8NKt9zzbCX2OPmooLdiCQ4GOMXm25KFiNEev/1ROmso/usne/B2a1Q3HD532ApOFhBAKTO8z4V0zSbpR3Y3IxX9FC8WlMpONxnnn1dpZKAowbAyl3IfSvER/iVBpJVNALMTMm2tNsZZOlHIkoOAV/+RXP049BC6cBuLq3s+EBcUC6FclTx8orf1q+7ttWnXifUGY+0ucg/Vyk3zKsmx3owfLq8OO2VB4jHi19r5sd8TlmNNBsy5jN2JWlNj4wULb5uqfOT8QNOG+W04U2r4iu5dPSP3G//RODVmGsDffvRk34RIgaruykMEPthgAHSe+SmCJb0ePzxRqOEoUSE+mB09Zj6fsjd9VX5laait8TyFN3MFs5C6cg+zKFyigROJ4BRIzJ7gdbJH3g904DbhBk9XZtgx/XDz5RqsjOKC2cmQJgj/Q9IQ2mtf0Gms7VRkss8yv2wA6Xu4Y3mgr6ileQSbjhhDp1jl82qbOUThlreNJfESoVDQQ3ovKoyOGd8YEBYSlGgKIzbToEPZyHcdnDFLVV8PMKl3TeWtuvc991pxDwA8jeBLY/FVzk1FqqxXv4JreweviFh8mI8DB94tmFoEHsxKEvzIgbFrQskzHt+IMcIstv7vvvgRIDqbZ9RR9FAPq0YOviPlTcHVO3ZqanhGaTsBdPhgMb+s62dXK8f/shCVkXcRSDh52ej3x+E+LcgFPkdd4vmDxCHSA/SXVg448RSITk96CVPpWRiznT5wxj/hvyczrpJQTTf3QbeF7q9WTQzr3Dmf9QkP7179oBD1v69/jgNKYx9AIlNFszhyW3W5pmRVDxGo1cUnyOUtV6cGNdx41lsWoODLxbXtMUYREwH7tP+JuTLL5WW9CS8KGPzh7YBJcvJ00KtGc9KdEsibgpS6nzS98n3K1lJcsfBO7fUhuLjP8J+eF34kjK6lrnVzoH1WHA+PCTeMfzcNqCZr4+Y8OITDWDZwOW1GCsbkvT0/Hl+bsMAGA9i9LnHikBwU+9V/rIxFg2ZYneU5ZjBzeJkhfcBIr7j/MAF+r4ZkihdNMzCv0xGEltx4WKyfZhhtWMHEQwTHDVenfyq+5GWA6tn8F2AchmuQo0dBOILrU0sZD5b8fMR/xltlPlKOZGYvVp9OM8OSqAmLWbUe2szBL2Gw3NLMO/gixMaiH8J7CRxwFmYT94F4sMeyO3YDsAE979Uo+1uat7JeIcWguR6AV1kwExdHyJ8MDUPt7MXrE+WH5NWcxYteeEIXp4DEFPDONQcU8BuEGu+p9Ha1TiVsGUeq2D0c8DvG93ikbDsLq/nojSGjWkcgQO4OAZDEfJ4cftynZRr69NrdHcOSn3npaiu6TZy3UabCuavrzF8rl3cupe6zk9/E3Vc4SscVUpHHHr6pznc6mYQjt5HZWuaOzmfyS7+dWPL1K140y9CAhCHiy+JMVUHz2FfFXAOb2TEXakDLIYqHBGgVF3Vy8dHKTNakWqJXwc97rMdGzOVOpWPiftTAvMyGkKutuTP5qDldXY5CbJGgWVqPQp5xEnk1Nxv9B535QIWeJn0f7q0AHgPoqziYiDDcypZ2RNVsgmh4IDnu7e+4hGlPRk6TJ85SDTlB8IkBa0rFlgV9E+tJWYwhYrtwW69MOlzw/aZCq7e4GKsHejZ4CjJoQBC1OJ1KSaxcPN5wal15Ne+D0lJz8BziZHHyDKpukhLph9jx89Ebe96O6NL0eKibxwUg1BnGFACYrC+D8NUtfrpKp7H7VJSH3/XjnLn8dEY7DXPXgQu4397wvk0gSys3UfFQfYiwiloz8/RI0QdrWrG4axW0Mh3zymY/KOnNkC5mZ++bCWHFPHZwlVIkrvWXbb9DK1of2z9/q+U99CMfkwvrTk3NwB0rP7x5tXZ/oLXZcHZH8pFXSbI5NEpiSQCGpdjgGF7AAS8EcEC77y0QweRXAUezYCMsCbT9e7vA1ypoBh7k68zCb9jQlaIeCMkxSrI1kz6VisNhfcsyraC45vTB8VN+2IpD5VqnndzC3Jvn3/64VhQ8kUTuc34rzjoaQ8rrtdRAD0H43ZL0XQs8MJagIewfpB0IpSnO0/QwcKvM4dkrQ4ldzQ/M1jWXZwlTAPFz1fNXP9DKla9z4F+QAmbl9Z82yqeAlzzXRcppTOh+IWIpajPVtv0rcrlW/m4A0BD4jfJwZREq8n8RJBFHvN3idHnWK9IQG9HGYeiHSkWZ9QSTCVzJKxvbaI0psehItsar03opsTTq2Iyv36Yj/jgFqOj4eQz0LAbtCxIkzQOBOb2cZk8/vQrn9UQ3Kw8/ZfEXQtBPdChagKfdiDjjiLVoB+xV8cQC+YHENSwlOo3A3xpxbfQ8uS/8PRtFdhXunFFzGswCGcy3FcIoCkuxRP0l3Hri7RcalnCfyImaO+Ejhz3H4xigb7bqfAeGEw9laGS+Ss7/5nuIvYsySFcvul+vOcJIcagl5spQMCC7N80iUrYaJ/ntWFrTnP8wn3CCF6DjSms1y+QULQAcbH1z7KCYhXsfe8H5ZFGWig/IMz+3uLKJhRhfLPb8xDKYM88Tj+HjNgjCjPChtrqyAQcceiQyc+MrKjJF0BCuk6jfz/28SsI7iva+RDslIenNVyLoeYvc1xVRZTBP99FIJBHvfTN6DqOmkDWnn0qFYPfmpT1s3K/oMX1+SigQkUT728cSmJK8vK0Ve1vdgL2c2g+pKZjLgKSnHM12T87q2pURIxVIankxQ0EIgy9dQ9MzDg0CBkXx2nMSX/032OpooLdiZwpmK1C3NIR51B2Rh+Et/ABNqU74VewUD+vr/1ShNBXK19Ep/CK+Aa47LAxE09M2QMCiAerJvMddux9Pa8vZECDaophH9ncGXry8Tf0k6RwqZ7lt0VMZo83GrwhbBh7cNPfkjih23qjtKvqYSu7i+YKXwi3BNgfkodqDR29j9ndDqRsjSb2GHO5TuKAyNR77jtXBgQi+cGtnbqX6Mw7IwZWYIcxSAaUfgKj/gtauwD1Rg7HNtOH0ld7MVpHU6RIFXaAra1wAmLLg46kP6feeRRyQyToDQzXRKDnEQOYRig9wr1qK8sBoqXQkiELHmtnwY8XsX2dlyjLuIqQNPc56g6ch3RqRzgo4PgxbHDCEwtVoOlPJMLaOrAzc9yMdKZ6I/8rByNetTJfz/LiGO035SmqSekHyy8gmuWeKirpmoMFwq0JMaY8Yfc6XQj0beYe5jXHtLOt9X3HtfVD+Vypt88GGATDC95ZodDotXkexlmWlo9hm3m4rcR5AIgD26QM7aAVvxjIcV/HDycmUYA37Y5p6lGxA/MJaQJ3uRRLz1rdbS4/p0z43jUTrSz1eSLPsxHMQRWNrJ90D5OdvVgmjjx0t1rzGngu3G44NGwWr7oPLW0Ave5r3Lc/5cWsoWs6vu1arhOPaUBF/uLuTT/jY30v5OmymgHDNhqGdgXfdQ8t+K4c0m8xuYtTr7xuEuW5PbaPfreM7SSwdk0VObmqRbwYQyooKkpG6Pe7aC3z5hfRssmk9XiDJIuLLVI/HI9l7ce1D8LCJThceGSzs0/12H9Hm0yg59Wkj1f4JS2V161vHYL8A2vIDqKfdrp8U/hqZWFdf3sCIVe9WVSlAKQExQKEdXpS88UmSeyUQpXbvob8ONqYXjSZ+HvCP8xbDC1Q2sgoMDPbiSOVT6UeJSAB6IvbS8C2EFTNrHWVf7OM7j7NEYiLCAPLuL8IQsbzg0yRtVRbKVqVIM3aVFfvpEseC9UkHuGi0vg1YK+hH6vvL+5aCIGiTd9zn7zJfKVvBM6lmxYGt5nqbsVX3+CWAivdpUpnkvAyzhYYYEj6jC0yLDBnaFt2oQ6WayH5WMemApZKW1Zo+KVR7VdMC2SyEHbCnl4ZbvUZwjDzWL87kFGBF5Gh4KGSwfNUGO610CZERWiuUy71iPfY1JaoCJ3HVqJkSOS1QJxUIQEx9lqhq1uUtSD8thk0guZIGAAFbx/Oiz49UTnuUDBCQ08+TFOiAMeodAmFqKzL7rk5kBqn1yj+UixsVOG0r3SgEjwkon4eYk4/QUwtyObO9Su1IYiIasG4pxJ0KM10sFadQTs0srnKf6fZHElOXay19qHXK4Ofhxqk3B68HIX8h0/UT/qxu5JZ8sRlHb9GLyF6G/x4aX9lQrq9tn+AT2i3EYA6sCFg36FZuWEoz8+kYfjZ2P2R0CsAdmORLKDMiXQsfSPuLHitJ+TNSFKp5/l6cz13WQ+nn5MrfIXfFDf7NIL50wfm/E/111T1vecmXD0RCeCFMe1g8AeWnvw2jjjWfJk11PoK2HE3WRt0oJefxbvQ2ipIfQcbciTSB1BWU4bWJmCzm5IwY/O3mHCbeTq4NoYQMKb71n5XdP5QMtdFbHov7+wFbuYvaCsYpnMzSrHoyeJuivMFkmJktD+6jO3VKNC0HjGIE7vSb6uVAGDn+DQWcE2lCSRhtzZ14zze9Qs2uVCjpx1Pay29TrBV+4Jbxja75j90q9dUvbUosP/BUDlB9+naacHDLgQutHUGA3i7UZtCu34OQv7JNBfLj8iIUV1po/gODVwisoIqNo46QiurSmNDVkjizjCfYR28AfPANqGp3UI80eAsn99ZXBZ+856cTWZGl218HlfSQbLa9psqE3kd6Xq9ehFQtxj3xIoYYre/v4eqCH8EWGd7Kp3TZTkqWeS9GeAIOJbjMP059JD65TILwC/PfhqOCuvmzzXSkOwGXEglfb2gY+hCxbPge+eqeFhPpAGvhpVOSTa9r25GJjGcbKgAbEGwdxXYf62MhrfmeA1A9X655ZxJTu8aYzpeziuIec6QiCyPM+1VcnEkbWXJPl/1x9W6wDbMw6wsYsND/lp70QqCgwTjc5E9seWg/3mXn//+PORz5ySJihE7BTvefUJUjRVUk8kGZZ0GRpxzWqQzqUFtbRitXvcjNDAZONQ9uV9Y8EA3kG1E+0RIT6AhL+You5OY5eUMx2rP4ho4pfhh1jWHMhOROzVQKw3w6Wl1idTUEF/lNj1ZiRGi8WWkO0xFAnSV7RSPpl9dbRUc0Y+luSQcSSeN7w503TiBdtg7uRhWANJKGJmCeTNX/pOj6/1vF/9JjGa937cx/jMZjWnPQLAhhxezn/c4RXkcqb4nHSogvOdgZwlZpfdIzG+8cWjZ6EvgxDVCNHY0wj6225X7U70sLsOZOpRqWf3O/x/bO0jIOTuVbc/ziTqmum+qT/oEcF2bFlZokFxCYzGkAjafSnQ16ROybHMjNuUARee1sW8sASEtITFCg2rLW/XyHUDi+TXXRb5Iaj/YCFjpFVC7fp4lEWu3HshZVer0KeeAjj06JTjE/x41xHvPh5eUAAAA=;clipPath=inset(8.26% 1.67% 14.05% 2%);" vertex="1" parent="1">
          <mxGeometry x="300" y="461.62" width="147" height="95.63" as="geometry" />
        </mxCell>
        <mxCell id="WmRn3ag8AA0C3TBZO2lk-7" style="edgeStyle=orthogonalEdgeStyle;rounded=0;orthogonalLoop=1;jettySize=auto;html=1;curved=1;entryX=1;entryY=0.5;entryDx=0;entryDy=0;exitX=0;exitY=0.5;exitDx=0;exitDy=0;" edge="1" parent="1" source="WmRn3ag8AA0C3TBZO2lk-4" target="WmRn3ag8AA0C3TBZO2lk-3">
          <mxGeometry relative="1" as="geometry">
            <Array as="points">
              <mxPoint x="560" y="480" />
              <mxPoint x="447" y="480" />
            </Array>
          </mxGeometry>
        </mxCell>
        <mxCell id="WmRn3ag8AA0C3TBZO2lk-12" style="edgeStyle=orthogonalEdgeStyle;rounded=0;orthogonalLoop=1;jettySize=auto;html=1;entryX=0;entryY=0.25;entryDx=0;entryDy=0;" edge="1" parent="1" source="WmRn3ag8AA0C3TBZO2lk-4" target="WmRn3ag8AA0C3TBZO2lk-11">
          <mxGeometry relative="1" as="geometry" />
        </mxCell>
        <mxCell id="WmRn3ag8AA0C3TBZO2lk-4" value="" style="image;aspect=fixed;perimeter=ellipsePerimeter;html=1;align=center;shadow=0;dashed=0;spacingTop=3;image=img/lib/active_directory/database_server.svg;" vertex="1" parent="1">
          <mxGeometry x="560" y="460.04" width="81" height="98.78" as="geometry" />
        </mxCell>
        <mxCell id="WmRn3ag8AA0C3TBZO2lk-8" value="Access control server" style="text;html=1;align=center;verticalAlign=middle;whiteSpace=wrap;rounded=0;" vertex="1" parent="1">
          <mxGeometry x="560" y="570" width="80" height="30" as="geometry" />
        </mxCell>
        <mxCell id="WmRn3ag8AA0C3TBZO2lk-16" style="edgeStyle=orthogonalEdgeStyle;rounded=0;orthogonalLoop=1;jettySize=auto;html=1;" edge="1" parent="1" source="WmRn3ag8AA0C3TBZO2lk-9" target="WmRn3ag8AA0C3TBZO2lk-14">
          <mxGeometry relative="1" as="geometry" />
        </mxCell>
        <mxCell id="WmRn3ag8AA0C3TBZO2lk-9" value="" style="shape=note;whiteSpace=wrap;html=1;backgroundOutline=1;darkOpacity=0.05;" vertex="1" parent="1">
          <mxGeometry x="771" y="456" width="80" height="100" as="geometry" />
        </mxCell>
        <mxCell id="WmRn3ag8AA0C3TBZO2lk-10" value="Logfile" style="text;html=1;align=center;verticalAlign=middle;whiteSpace=wrap;rounded=0;" vertex="1" parent="1">
          <mxGeometry x="771" y="565.87" width="80" height="30" as="geometry" />
        </mxCell>
        <mxCell id="WmRn3ag8AA0C3TBZO2lk-11" value="LOG" style="text;html=1;align=center;verticalAlign=middle;whiteSpace=wrap;rounded=0;fontSize=30;" vertex="1" parent="1">
          <mxGeometry x="771" y="501.87" width="80" height="30" as="geometry" />
        </mxCell>
        <mxCell id="WmRn3ag8AA0C3TBZO2lk-13" value="Door access scanner" style="text;html=1;align=center;verticalAlign=middle;whiteSpace=wrap;rounded=0;" vertex="1" parent="1">
          <mxGeometry x="333.5" y="565.87" width="80" height="30" as="geometry" />
        </mxCell>
        <mxCell id="WmRn3ag8AA0C3TBZO2lk-14" value="?" style="text;html=1;align=center;verticalAlign=middle;whiteSpace=wrap;rounded=0;fontSize=70;" vertex="1" parent="1">
          <mxGeometry x="950" y="491.43" width="60" height="30" as="geometry" />
        </mxCell>
      </root>
    </mxGraphModel>
  </diagram>
</mxfile>
